<?xml version="1.0" encoding="UTF-8" standalone="no"?>
<!DOCTYPE svg PUBLIC "-//W3C//DTD SVG 1.1//EN" "http://www.w3.org/Graphics/SVG/1.1/DTD/svg11.dtd">
<svg width="163" height="145" viewBox="0 0 163 145" version="1.1" xmlns="http://www.w3.org/2000/svg" xmlns:xlink="http://www.w3.org/1999/xlink" xml:space="preserve" xmlns:serif="http://www.serif.com/" style="fill-rule:evenodd;clip-rule:evenodd;stroke-linejoin:round;stroke-miterlimit:2;">
    <path d="M162.276,66.455c-1.584,-6.77 -5.3,-12.836 -10.61,-17.328c-2.463,-2.174 -4.989,-4.254 -7.484,-6.397c-1.045,-0.89 -1.822,-2.06 -2.246,-3.375c-1.48,-4.585 -4.047,-8.746 -7.484,-12.121c-4.027,-3.84 -8.995,-6.552 -14.409,-7.867c-2.225,-0.631 -4.244,-1.853 -5.838,-3.55c-2.246,-2.391 -4.648,-4.648 -7.163,-6.749c-11.697,-9.12 -24.698,-11.407 -38.786,-6.656c-7.06,2.474 -13.374,6.738 -18.311,12.359c-2.06,2.267 -4.71,3.903 -7.66,4.71c-10.476,2.919 -17.494,9.523 -20.941,19.926c-0.31,0.839 -0.818,1.594 -1.48,2.215c-1.894,1.864 -3.861,3.623 -5.828,5.373c-3.685,3.271 -7.235,6.676 -9.802,10.962c-3.654,6.117 -5.135,12.649 -3.685,19.677c1.294,6.004 4.357,11.49 8.788,15.744c2.815,2.816 5.869,5.373 8.788,8.085c1.563,1.273 2.774,2.939 3.509,4.813c2.64,8.643 9.368,15.423 17.991,18.125c3.747,1.253 7.225,3.23 10.227,5.797c2.349,2.039 4.533,4.213 6.997,6.148c7.204,5.818 16.251,8.882 25.505,8.644c4.431,-0.114 8.809,-0.963 12.97,-2.495c6.677,-2.464 12.65,-6.501 17.432,-11.769c2.267,-2.505 5.186,-4.317 8.436,-5.238c10.082,-2.981 17.111,-9.316 20.62,-19.398c0.31,-0.922 0.828,-1.77 1.511,-2.464c1.894,-1.822 3.861,-3.55 5.869,-5.238c3.571,-2.805 6.666,-6.159 9.171,-9.947c4.151,-6.811 5.694,-14.119 3.934,-21.996l-0.021,0.01Zm-9.275,17.607c-1.718,3.116 -3.954,5.921 -6.604,8.292c-4.989,4.741 -9.833,9.595 -13.384,15.568c-0.538,0.849 -1.024,1.729 -1.439,2.639c-1.376,3.189 -3.933,5.714 -7.132,7.06c-2.463,1.128 -5.061,1.998 -7.628,2.878c-2.474,0.817 -4.721,2.194 -6.573,4.037c-5.621,5.827 -12.018,10.475 -19.989,12.618c-1.915,0.486 -3.861,0.818 -5.827,0.983c-0.704,0.073 -1.481,-0.528 -2.216,-0.88c-0.072,-0.031 -0.103,-0.248 -0.103,-0.352c-0.104,-1.48 -0.207,-2.95 -0.28,-4.43c0.032,0 0.104,-0.031 0.145,-0.031c0.249,0.383 0.456,0.807 0.777,1.366c0.341,-1.263 0.083,-2.608 -0.704,-3.654c0.849,0.207 1.584,0.383 2.287,0.559c0.032,-0.072 0.104,-0.176 0.145,-0.248c-0.6,-0.425 -1.19,-0.849 -1.863,-1.335c0.735,-0.249 1.48,-0.497 2.35,-0.808c-0.921,-0.538 -2.06,-0.579 -3.023,-0.103c0.352,-0.601 0.601,-1.087 0.88,-1.584l-0.207,-0.207c-0.6,0.424 -1.159,0.88 -1.791,1.335c-0.352,-0.497 -0.631,-1.263 -1.656,-1.263c0.176,0.497 0.352,0.953 0.497,1.305c-0.673,0.145 -1.366,0.279 -2.07,0.424c-0,0.104 0.031,0.176 0.031,0.279c0.259,0.073 0.507,0.135 0.776,0.176c-1.014,0.145 -1.884,0.818 -2.287,1.76c1.055,-0.248 1.966,-0.497 3.126,-0.776c-1.046,1.097 -1.242,2.753 -0.497,4.078c0.455,-0.88 0.849,-1.584 1.232,-2.318c0.062,-0 0.124,-0 0.176,0.031c0.103,1.159 0.176,2.349 0.279,3.509c0.031,0.455 0.031,0.911 0.104,1.335c0.144,1.335 -0.456,1.998 -1.822,1.894c-7.049,-0.393 -13.778,-3.115 -19.119,-7.732c-3.83,-3.302 -7.66,-6.677 -12.09,-9.171c-2.578,-1.449 -5.259,-2.733 -8.012,-3.83c-4.461,-1.77 -8.084,-5.155 -10.155,-9.482c-0.683,-1.377 -1.283,-2.795 -1.79,-4.254c-0.797,-1.946 -2.029,-3.685 -3.582,-5.093c-2.846,-2.774 -5.724,-5.517 -8.571,-8.291c-3.819,-3.623 -6.438,-8.333 -7.484,-13.498c-1.407,-7.308 0.497,-13.84 4.783,-19.782c1.935,-2.67 4.461,-4.741 6.821,-6.997c3.934,-3.758 7.732,-7.66 10.331,-12.504c0.528,-0.984 1.055,-2.04 1.511,-3.054c1.232,-2.577 3.219,-4.72 5.693,-6.149c2.816,-1.625 5.848,-2.867 8.995,-3.685c2.547,-0.704 4.855,-2.06 6.708,-3.933c3.364,-3.613 7.225,-6.728 11.459,-9.275c6.459,-3.716 13.922,-5.279 21.323,-4.461c6.604,0.683 12.867,3.271 18.022,7.453c2.463,2.008 4.823,4.14 7.059,6.397c1.75,1.811 3.944,3.146 6.356,3.861c4.689,1.2 9.005,3.571 12.546,6.883c2.898,2.785 5.061,6.252 6.293,10.082c0.538,1.615 1.47,3.075 2.702,4.255c3.053,2.95 6.148,5.827 9.171,8.819c3.064,2.909 5.414,6.49 6.852,10.475c2.361,6.491 1.584,12.753 -1.511,18.829l-0.021,0Z" style="fill:#fff;fill-rule:nonzero;"/>
    <path d="M101.985,113.386c0.475,-0.165 0.949,-0.289 1.434,-0.392c0.632,2.391 1.304,4.751 1.936,7.101l-0.021,0.021c-0.631,0.497 -1.542,0.403 -2.049,-0.228c-0.922,-0.952 -1.936,-1.801 -3.095,-2.816c0.31,1.294 0.559,2.423 0.91,3.509c0.176,0.559 0.073,0.766 -0.527,0.911c-0.497,0.104 -0.777,0.166 -0.953,-0.496c-0.528,-2.174 -1.128,-4.286 -1.687,-6.429c1.014,-0.631 1.159,-0.6 1.967,0.104c0.993,0.911 2.008,1.791 2.991,2.702c0.042,-0.042 0.114,-0.042 0.145,-0.073c-0.35,-1.288 -0.7,-2.555 -1.051,-3.914Zm0,-0c-0.001,0 -0.003,0.001 -0.005,0.001l0,-0.02c0.002,0.006 0.004,0.012 0.005,0.019Zm15.284,-35.721l-0.01,0c-0.052,0.321 -0.073,0.652 -0.073,0.984c-1.583,-0.104 -3.126,-0.207 -4.637,-0.352c-0.207,-0.031 -0.414,-0.352 -0.559,-0.559c-1.863,-3.406 -3.727,-6.853 -5.59,-10.258c-0.145,-0.259 -0.331,-0.487 -0.559,-0.673c-0.279,3.654 -0.528,7.266 -0.807,10.993c-1.791,-0.104 -3.551,-0.207 -5.269,-0.383c-0.145,-0.031 -0.352,-0.425 -0.352,-0.632c0.207,-3.467 0.487,-6.987 0.735,-10.465c0.249,-3.695 0.528,-7.349 0.776,-11.034c0.032,-0.207 0.073,-0.383 0.104,-0.704c1.584,0.135 3.136,0.207 4.679,0.383c0.207,0.041 0.414,0.352 0.559,0.6c1.904,3.406 3.726,6.853 5.589,10.258c0.114,0.207 0.249,0.425 0.497,0.88c0.28,-3.902 0.528,-7.515 0.808,-11.241c1.832,0.103 3.519,0.248 5.237,0.352c0.528,0.041 0.414,0.424 0.383,0.776c-0.248,3.261 -0.455,6.563 -0.704,9.834c-0.279,3.726 -0.527,7.484 -0.807,11.241Zm18.311,-20.06l0.021,-0.011c4.627,0.808 7.06,3.892 6.853,8.644c-0.166,2.639 -0.477,5.268 -0.953,7.866c-0.662,3.665 -3.912,6.273 -7.629,6.118c-0.548,0.031 -1.107,0.021 -1.656,-0.031c-2.712,-0.311 -5.413,-0.59 -8.26,-0.911c0.207,-2.143 0.424,-4.213 0.631,-6.252c0.456,-4.141 0.88,-8.25 1.336,-12.401c0.134,-1.159 0.207,-2.319 0.383,-3.478c0.062,-0.259 0.269,-0.466 0.528,-0.528c2.908,0.28 5.869,0.487 8.746,0.984Zm1.014,7.494l0.001,-0.01c0.067,-1.073 -0.625,-2.051 -1.656,-2.35c-1.17,-0.311 -2.35,-0.538 -3.551,-0.673c-0.455,4.358 -0.911,8.54 -1.335,12.722c1.056,0.103 1.936,0.248 2.846,0.279c1.367,0.197 2.64,-0.745 2.847,-2.112c0.393,-2.594 0.672,-5.22 0.848,-7.856Zm-56.993,11.759l-0.01,-0c-1.791,0.072 -3.582,0.041 -5.549,-0.031c1.046,-2.743 1.967,-5.165 2.878,-7.629c1.822,-4.813 3.654,-9.637 5.445,-14.481c0.103,-0.497 0.579,-0.829 1.087,-0.735c0.952,0.062 1.894,0.072 2.846,0.031c0.476,-0.031 0.911,0.3 0.984,0.776c1.687,4.855 3.374,9.668 5.061,14.481c0.849,2.319 1.657,4.638 2.464,6.956c0.103,0.259 0.186,0.518 0.248,0.777l-2.111,-0c-1.098,-0 -2.184,-0.031 -3.271,-0.031l-0.042,-0c-0.331,0.041 -0.652,-0.197 -0.693,-0.539c-0.207,-0.776 -0.487,-1.511 -0.663,-2.287l0,-0.042c-0.072,-0.393 -0.445,-0.662 -0.838,-0.59c-1.894,0 -3.758,0 -5.652,-0.031c-0.414,-0.051 -0.787,0.228 -0.849,0.632c-0.207,0.766 -0.466,1.511 -0.776,2.246c-0.093,0.248 -0.3,0.435 -0.559,0.497Zm5.269,-13.912c-0.704,2.039 -1.336,3.861 -2.039,5.797l3.798,-0c-0.6,-1.895 -1.128,-3.758 -1.759,-5.797Zm-42.689,10.082l0,-0.021c1.087,-0.217 1.719,-0.849 1.688,-1.697c0.134,-1.305 -0.528,-1.998 -1.936,-2.143c-1.398,-0.083 -2.795,-0.228 -4.182,-0.456c-4.006,-0.662 -5.517,-3.757 -5.093,-7.339c0.383,-3.198 2.495,-5.341 5.869,-6.076c2.36,-0.59 4.845,-0.466 7.132,0.352c1.015,0.466 1.998,0.994 2.95,1.584c-1.231,1.366 -2.318,2.557 -3.478,3.861c-1.501,-1.139 -3.457,-1.511 -5.268,-0.983c-0.363,0.093 -0.694,0.269 -0.984,0.496c-0.559,0.394 -0.838,1.087 -0.704,1.76c0.125,0.652 0.642,1.159 1.305,1.263c0.838,0.145 1.718,0.217 2.598,0.321c0.88,0.103 1.749,0.176 2.598,0.352c2.619,0.435 4.596,2.598 4.813,5.238c0.704,4.637 -2.205,7.411 -5.652,8.291c-2.743,0.756 -5.662,0.683 -8.363,-0.207c-1.16,-0.507 -2.278,-1.108 -3.344,-1.791c1.304,-1.439 2.391,-2.671 3.551,-3.933c1.915,1.273 4.275,1.677 6.5,1.128Zm28.746,-1.128l-0,5.041c-1.336,0.041 -2.702,0.114 -4.11,0.145l-10.154,0.32c-0.632,0 -0.911,-0.072 -0.911,-0.807c-0.145,-7.028 -0.352,-14.015 -0.528,-21.044c-0,-0.279 -0.042,-0.559 -0.073,-1.014l5.725,-0c0.144,5.807 0.32,11.665 0.496,17.607c3.199,-0.072 6.325,-0.176 9.555,-0.248Zm20.702,13.394l0.021,0.01c-0,5.135 -0,10.155 0.072,15.289c-1.159,0 -2.277,0.042 -3.405,-0.031c-0.176,0 -0.425,-0.486 -0.425,-0.735c-0.041,-1.863 0,-3.685 0.031,-5.548c0,-0.145 -0.031,-0.311 -0.031,-0.455c-0.072,-0.042 -0.103,-0.042 -0.176,-0.073c-0.497,0.88 -1.056,1.76 -1.511,2.671c-0.217,0.414 -0.652,0.673 -1.128,0.662l-0.042,0c-1.128,0.29 -2.277,-0.393 -2.567,-1.521c-0.269,-0.653 -0.662,-1.253 -1.159,-1.76l-0,6.78c-1.263,-0 -2.381,-0 -3.509,-0.031c-0.197,-0.114 -0.331,-0.321 -0.352,-0.559c-0.042,-0.632 0.031,-1.304 0.031,-1.967l-0,-12.722c1.19,0 2.319,0 3.405,0.032c0.259,0.093 0.477,0.279 0.601,0.527c0.911,1.76 1.791,3.551 2.702,5.311c0.103,0.207 0.207,0.424 0.383,0.735c0.59,-1.201 1.159,-2.288 1.718,-3.375c0.455,-0.88 0.911,-1.76 1.335,-2.64c0.145,-0.403 0.559,-0.652 0.984,-0.6c0.983,0.031 1.966,0 3.022,0Zm-65.368,-27.596l0,0.01c0.383,5.338 0.777,10.676 1.128,16.013c0.114,1.553 0.249,3.064 0.321,4.607c0.031,0.217 -0.176,0.6 -0.279,0.6c-1.729,0.135 -3.489,0.238 -5.31,0.383c-0.528,-7.629 -1.087,-15.175 -1.615,-22.804c1.397,-0.103 2.733,-0.207 4.037,-0.279c1.57,-0.103 1.615,-0.104 1.718,1.47Zm70.523,28.155l-0.01,0.01c0.02,-0.155 0.072,-0.31 0.145,-0.455c3.405,0.176 6.852,0.352 10.33,0.528c-0.072,1.087 -0.072,2.07 -0.176,3.022c-0.041,0.145 -0.455,0.352 -0.704,0.352c-1.759,-0.072 -3.478,-0.176 -5.238,-0.248c-0.175,-0 -0.351,0.031 -0.631,0.031l0,2.35c1.791,0.103 3.582,0.207 5.341,0.31l0,2.919c0,0.466 -0.248,0.528 -0.631,0.497c-1.439,-0.072 -2.847,-0.176 -4.286,-0.248l-0.734,-0c-0.042,0.807 -0.114,1.615 -0.145,2.525c1.966,0.104 3.83,0.249 5.693,0.28c0.673,-0 0.952,0.145 0.849,0.88c-0.114,0.807 -0.114,1.656 -0.145,2.391c-1.439,-0 -2.774,0.031 -4.079,-0c-1.863,-0.073 -3.757,-0.207 -5.62,-0.28c-0.414,0 -0.694,-0.041 -0.663,-0.6c0.249,-4.741 0.456,-9.523 0.704,-14.264Zm0.704,-41.426l0.01,-0.02c0.538,-0.176 0.89,-0.694 0.859,-1.263c0,-0.528 -0.383,-0.983 -0.911,-1.056c-0.693,-0.134 -1.438,-0.238 -2.173,-0.383c-2.702,-0.486 -3.934,-1.791 -4.037,-4.213c-0.145,-2.277 1.397,-4.306 3.623,-4.782c2.246,-0.663 4.678,-0.238 6.573,1.128c0.207,0.176 0.383,0.352 0.662,0.601c-0.88,0.807 -1.656,1.542 -2.463,2.318c-0.942,-0.786 -2.174,-1.107 -3.375,-0.88c-0.693,0.031 -1.252,0.57 -1.304,1.263c0.041,0.808 0.642,1.015 1.304,1.16c0.807,0.144 1.615,0.248 2.422,0.424c1.719,0.228 3.085,1.563 3.344,3.271c0.445,1.884 -0.3,3.851 -1.895,4.958c-2.349,1.687 -7.794,1.367 -9.73,-1.056c0.766,-0.766 1.543,-1.573 2.35,-2.422c1.056,0.839 2.391,1.232 3.726,1.128c0.342,0 0.684,-0.062 1.015,-0.176Zm-35.877,55.835c0.041,0.424 -0.104,0.631 -0.528,0.662l-3.199,0c-0.103,-3.933 -0.248,-7.794 -0.352,-11.696c-1.056,-0 -1.998,-0.073 -2.95,-0c-0.569,0.031 -0.849,-0.104 -0.849,-0.704l0,-2.702c3.727,-0.114 7.412,-0.217 11.314,-0.321c0,1.087 0,2.112 -0.031,3.126c-0.155,0.187 -0.362,0.3 -0.6,0.321c-0.984,0.031 -1.967,0 -3.023,0c0,0.352 -0.031,0.632 -0.031,0.911c0.073,3.167 0.176,6.366 0.249,9.523c-0.021,0.29 -0.021,0.59 -0,0.88Zm11.168,-63.95l-3.923,0c0,-1.014 0,-1.998 0.031,-2.95c0.094,-0.238 0.311,-0.414 0.559,-0.455c1.305,-0.073 2.567,-0.073 3.83,-0.104c1.998,-0.041 3.975,-0.114 5.973,-0.145l0.952,0l0,3.406l-3.623,-0c0.104,4.006 0.176,7.908 0.28,11.914l-3.799,-0c-0.072,-3.83 -0.176,-7.732 -0.28,-11.666Zm0.114,64.261l-0.01,0.01l-3.933,-0c-0,-1.687 0.031,-3.375 -0,-5.062c-0.042,-3.095 -0.073,-6.18 -0.145,-9.275c-0,-0.641 0.186,-0.879 0.848,-0.848c0.953,0.031 1.905,-0 2.992,-0c0.072,5.051 0.176,10.082 0.248,15.175Zm-11.138,-55.939c-0.103,-3.581 -0.248,-7.204 -0.424,-10.785c-0.031,-0.528 0.104,-0.704 0.631,-0.704l3.168,-0c0.217,5.051 0.393,10.04 0.6,15.175l-3.799,-0c-0.072,-1.16 -0.145,-2.423 -0.176,-3.686Zm-19.781,61.88l-0.01,-0.021c0.807,0.559 1.553,1.087 2.391,1.719c-0.383,0.59 -0.807,1.149 -1.263,1.687c-0.973,0.942 -2.505,1.004 -3.55,0.145c-1.098,-0.714 -1.481,-2.143 -0.88,-3.302c0.476,-0.921 1.056,-1.781 1.718,-2.567c0.859,-0.87 2.184,-1.077 3.271,-0.507c1.356,0.714 1.874,2.391 1.159,3.747c-0.631,-0.425 -1.231,-0.663 -1.159,-1.615c-0.021,-0.249 -0.114,-0.497 -0.29,-0.683c-0.414,-0.466 -1.138,-0.507 -1.604,-0.083c-0.694,0.787 -1.304,1.666 -1.791,2.598c-0.352,0.6 0.031,1.128 0.632,1.408c0.672,0.321 1.159,0.145 1.687,-0.663c-0.311,-0.248 -0.663,-0.528 -1.015,-0.807c0.207,-0.352 0.425,-0.673 0.704,-1.056Zm51.435,8.747c0.911,0.021 1.719,0.59 2.04,1.439c0.352,1.252 0.528,2.556 0.528,3.861c-0.114,1.252 -1.17,2.215 -2.423,2.215c-1.169,0.248 -2.339,-0.414 -2.743,-1.542c-0.331,-1.274 -0.497,-2.588 -0.497,-3.903c0,-1.19 1.377,-2.07 3.095,-2.07Zm0.104,6.149c0.735,-0.145 0.983,-0.632 1.014,-1.439c-0.145,-0.735 -0.279,-1.574 -0.455,-2.422c-0.124,-0.539 -0.621,-0.911 -1.17,-0.891c-0.631,0.021 -1.128,0.559 -1.107,1.201c0.062,0.859 0.186,1.718 0.352,2.567c-0,0.073 0.01,0.135 0.031,0.197c0.145,0.58 0.745,0.942 1.335,0.787Zm-26.416,0.496l0.01,0c0.414,-2.453 0.87,-4.844 1.325,-7.308c1.615,0.321 3.188,0.601 4.844,0.88c-0.062,0.456 -0.134,0.88 -0.207,1.336c-1.128,-0.176 -2.215,-0.352 -3.343,-0.559c-0.104,0.528 -0.207,0.983 -0.311,1.542c0.953,0.176 1.864,0.352 2.847,0.559c-0.104,0.424 -0.176,0.849 -0.249,1.304c-0.952,-0.134 -1.863,-0.279 -2.846,-0.455c-0.104,0.528 -0.176,1.014 -0.28,1.615c1.16,0.207 2.174,0.424 3.302,0.631c-0.062,0.455 -0.134,0.838 -0.207,1.335c-1.656,-0.279 -3.229,-0.569 -4.885,-0.88Zm-16.583,-13.984c0.362,0.155 0.549,0.538 0.455,0.911c-0.31,2.35 -0.662,4.71 -1.014,7.132c-0.89,-0.304 -1.301,-0.866 -1.232,-1.687l0,-0.073c-0.559,-0.383 -1.087,-0.807 -1.687,-1.159c-0.228,-0.114 -0.497,-0.124 -0.735,-0.031c-0.766,0.983 -1.397,0.393 -2.174,-0.104c1.305,-1.159 2.567,-2.318 3.83,-3.447c0.528,-0.455 1.046,-0.911 1.543,-1.366c0.238,-0.321 0.683,-0.393 1.014,-0.176Zm-1.553,4.668l0,0.011c0.145,-0.808 0.28,-1.512 0.425,-2.216c-0.073,-0.041 -0.114,-0.113 -0.145,-0.144c-0.57,0.527 -1.128,1.014 -1.76,1.614l1.48,0.735Zm75.337,-7.204l0.01,-0c-0.093,0.652 0.31,1.283 0.942,1.47c1.056,0.393 2.07,0.911 3.126,1.407c-0.773,0.732 -1.594,0.898 -2.464,0.497c-0.465,-0.207 -0.921,-0.424 -1.48,-0.704c0.073,0.642 0.145,1.129 0.176,1.657c0.09,0.89 -0.345,1.58 -1.304,2.07c-0.062,-1.17 -0.207,-2.257 -0.207,-3.344c0.062,-0.672 -0.362,-1.293 -1.015,-1.48c-0.952,-0.352 -1.863,-0.807 -2.815,-1.263c1.087,-1.128 1.159,-1.128 2.391,-0.496c0.383,0.175 0.745,0.351 1.232,0.6c0.145,-1.294 -0.911,-2.909 1.232,-3.406c0.072,1.025 0.176,2.008 0.176,2.992Zm-46.136,11.769l-0.01,-0.01c-0.57,-0.062 -1.16,-0.031 -1.263,0.673c-0.176,0.704 0.424,0.838 0.952,0.983c0.29,0.041 0.57,0.104 0.849,0.176c0.963,0.145 1.677,0.963 1.687,1.936c0.062,0.983 -0.517,1.894 -1.439,2.246c-1.469,0.517 -3.105,0.093 -4.15,-1.056c0.279,-0.279 0.6,-0.559 0.776,-0.704c0.807,0.207 1.48,0.456 2.143,0.559c0.051,0.021 0.103,0.031 0.155,0.031c0.476,0.042 0.9,-0.321 0.932,-0.797c0.072,-0.6 -0.352,-0.807 -0.88,-0.911c-0.383,-0.072 -0.777,-0.176 -1.16,-0.279c-0.755,-0.145 -1.335,-0.756 -1.438,-1.511c-0.166,-0.86 0.176,-1.729 0.879,-2.247c1.367,-0.797 3.095,-0.528 4.151,0.632c-0.424,0.6 -0.921,1.024 -1.656,0.424c-0.166,-0.083 -0.342,-0.145 -0.528,-0.145Zm-15.848,0.394l-0.01,-0.011c0.838,-1.304 1.718,-2.567 2.598,-3.902c0.497,0.145 0.953,0.248 1.48,0.424c-0.134,0.207 -0.207,0.383 -0.31,0.559c-1.263,1.791 -2.526,3.582 -3.758,5.414c-0.248,0.383 -0.455,0.528 -0.911,0.383c-0.424,-0.145 -0.6,-0.321 -0.6,-0.777c-0.031,-2.07 -0.134,-4.109 -0.207,-6.179l0,-1.015c0.528,0.176 0.983,0.28 1.511,0.425l0,4.606c0.062,0.041 0.135,0.041 0.207,0.073Zm20.31,-1.512l5.341,0c0.041,0.352 0.041,0.735 0.072,1.232c-0.631,0.041 -1.19,0.041 -1.791,0.073l0,6.076c-0.352,0.031 -0.817,0.072 -1.48,0.103l0,-6.045l-2.07,0c-0,-0.486 -0.041,-0.88 -0.072,-1.439Zm35.804,-8.364l0.011,0c-0.57,0.352 -1.097,0.632 -1.656,1.015c0.942,1.76 1.894,3.478 2.877,5.31c-0.455,0.238 -0.838,0.456 -1.335,0.735c-0.983,-1.801 -1.936,-3.519 -2.919,-5.31c-0.559,0.29 -1.087,0.528 -1.687,0.849c-0.238,-0.414 -0.414,-0.766 -0.663,-1.191c1.584,-0.88 3.095,-1.718 4.71,-2.598c0.238,0.414 0.414,0.807 0.662,1.19Zm-63.246,7.101l0,0.011c-0.462,1.194 -0.086,2.036 1.129,2.525c0.383,0.145 0.766,0.29 1.263,0.497c-0.176,0.456 -0.321,0.849 -0.497,1.305c-1.543,-0.601 -3.023,-1.201 -4.534,-1.833c0.911,-2.318 1.822,-4.575 2.774,-6.925c0.497,0.207 0.911,0.352 1.408,0.559c-0.528,1.336 -1.015,2.599 -1.543,3.861Zm32.183,-79.207c-0.001,0.003 -0.001,0.007 -0.001,0.01c-0.014,0.182 -0.117,0.333 -0.279,0.414c-1.015,0.777 -2.039,1.511 -3.23,2.391l0,-5.724l3.509,0c0,0.98 0.031,1.929 0.001,2.909Zm-53.755,60.689l0.011,-0.01c0.693,-0.135 1.366,-0.249 2.111,-0.352c0.073,0.29 0.104,0.528 0.176,0.849c-1.055,0.207 -2.039,0.424 -3.126,0.631c-0.31,-1.615 -0.59,-3.095 -0.911,-4.71c1.056,-0.207 2.071,-0.424 3.127,-0.631c0.072,0.321 0.103,0.559 0.175,0.88c-0.703,0.145 -1.376,0.279 -2.111,0.455c0.062,0.352 0.134,0.6 0.207,0.952c0.559,-0.103 1.118,-0.176 1.718,-0.279c0.073,0.248 0.145,0.497 0.249,0.807c-0.642,0.145 -1.201,0.28 -1.833,0.425c0.063,0.321 0.135,0.631 0.207,0.983Zm6.397,-1.905l0,-0.01c0.187,0.569 0.021,1.19 -0.424,1.584c-0.859,0.6 -2.008,0.621 -2.878,0.031c0.145,-0.238 0.28,-0.414 0.352,-0.559c0.508,0.031 1.004,0.021 1.512,-0.031c0.176,-0.031 0.31,-0.352 0.455,-0.528c-0.155,-0.176 -0.352,-0.321 -0.559,-0.424c-0.259,-0.032 -0.517,-0.032 -0.776,-0.032c-0.642,0.021 -1.191,-0.445 -1.263,-1.086c-0.186,-0.642 0.135,-1.315 0.735,-1.584c0.714,-0.342 1.553,-0.321 2.246,0.072c-0.176,0.497 -0.352,0.808 -0.952,0.601c-0.249,-0.052 -0.507,-0.021 -0.735,0.103c-0.155,0.124 -0.259,0.3 -0.28,0.497c0.031,0.207 0.187,0.373 0.383,0.424c0.321,0.042 0.632,0.052 0.953,0.032c0.579,-0.042 1.097,0.341 1.231,0.91Zm3.893,-3.685l-0,-0.01c0.207,0.607 -0.111,0.959 -0.953,1.056c0.135,1.263 0.311,2.526 0.456,3.861c-0.352,0.072 -0.601,0.103 -0.984,0.176c-0.207,-1.335 -0.383,-2.598 -0.559,-3.861c-0.383,0.072 -0.766,0.114 -1.159,0.145c-0.041,-0.311 -0.072,-0.559 -0.145,-0.911c1.17,-0.176 2.257,-0.311 3.344,-0.456Zm64.198,26.883c0.497,-0.176 0.952,-0.352 1.408,-0.528c0.735,1.231 1.014,2.349 -0.321,3.478c-0.352,-0.984 -0.704,-1.936 -1.087,-2.95Zm-62.925,-22.173l-0.011,0c-0.031,-0.352 -0.062,-0.673 -0.134,-1.056c0.352,-0.031 0.673,-0.072 1.056,-0.103c0.031,0.352 0.072,0.631 0.103,1.014c-0.352,0.042 -0.662,0.114 -1.014,0.145Zm76.454,-0.497l-0.01,0.011c-0.487,-0.042 -1.015,-0.073 -1.263,-0.601c-0.29,-0.569 -0.228,-1.252 0.145,-1.759c0.051,-0.073 0.103,-0.145 0.176,-0.207c-0.083,-0.321 -0.125,-0.653 -0.145,-0.984c0.103,-1.087 0.704,-1.47 1.935,-1.263c0.156,0.031 0.311,0.094 0.445,0.187c0.632,0.414 0.818,1.252 0.404,1.884c-0.196,0.248 -0.228,0.59 -0.103,0.879c0.082,0.383 0.082,0.777 -0,1.16c-0.062,0.383 -0.414,0.662 -0.808,0.662c-0.259,0.031 -0.517,0.031 -0.776,0.031Zm0.031,-1.925l-0.01,0c-0.28,0.031 -0.383,0.248 -0.383,0.528c0.041,0.259 0.258,0.455 0.528,0.455l0.02,0c0.269,-0.031 0.466,-0.258 0.435,-0.528l0,-0.031c-0.041,-0.279 -0.311,-0.465 -0.59,-0.424Zm0.393,-1.936l0,-0.01c-0.321,-0 -0.424,0.217 -0.424,0.497c0.021,0.238 0.217,0.424 0.455,0.424l0.052,0c0.228,-0.02 0.393,-0.227 0.373,-0.455c-0,-0.249 -0.207,-0.456 -0.456,-0.456Zm3.261,3.023l-0.021,-0.01c0.425,0.703 0.539,0.703 0.984,-0.031c-0.104,-0.104 -0.207,-0.311 -0.352,-0.383c-0.352,-0.176 -0.311,-0.456 -0.28,-0.735c0,-0.28 0.207,-0.352 0.456,-0.352c0.217,-0.021 0.383,-0.207 0.383,-0.425c-0.042,-0.134 -0.104,-0.383 -0.249,-0.455c-0.155,-0.083 -0.341,-0.062 -0.486,0.031c-0.3,0.248 -0.704,0.3 -1.056,0.145c-0.145,-0.363 0.01,-0.777 0.352,-0.953c0.145,-0.113 0.3,-0.196 0.466,-0.248c0.817,-0.269 1.697,0.166 1.966,0.983c0.031,0.425 -0.041,0.849 -0.207,1.232c-0.072,0.218 -0.176,0.352 -0.072,0.601c0.072,0.248 0.103,0.517 0.072,0.776c0.031,0.621 -0.403,1.159 -1.014,1.263c-0.559,0.145 -1.149,0.031 -1.615,-0.311c-0.341,-0.269 -0.517,-0.693 -0.455,-1.128c0.041,-0.104 0.176,-0.28 0.248,-0.28c0.269,0.042 0.538,0.104 0.808,0.176c0.041,0 0.072,0.104 0.072,0.104Zm4.492,-2.639c0.59,-0.176 1.232,0.051 1.584,0.558c0.414,0.456 0.476,1.139 0.145,1.657c-0.528,0.879 -1.159,1.718 -1.76,2.567c-0.289,0.165 -0.652,0.145 -0.911,-0.073c-0.207,-0.248 -0.072,-0.424 0.073,-0.631c0.248,-0.311 0.466,-0.642 0.673,-0.984c-0.073,-0.093 -0.156,-0.176 -0.249,-0.248c-0.673,-0.383 -0.942,-1.18 -0.673,-1.894c0.124,-0.525 0.585,-0.917 1.118,-0.952Zm0.394,2.007c0.279,-0.082 0.455,-0.341 0.455,-0.631c-0.01,-0.021 -0.01,-0.052 -0.01,-0.083c-0.042,-0.217 -0.259,-0.352 -0.476,-0.3c-0.269,0.031 -0.466,0.259 -0.456,0.528l0,0.062c0.011,0.249 0.228,0.445 0.487,0.424Zm-12.722,1.087l0.01,-0.01c-0.352,-0.673 0.063,-1.201 0.063,-1.76c-0,-0.6 0.051,-1.2 0.144,-1.79c-0.32,0.113 -0.569,0.217 -0.848,0.32c-0,-0.383 -0.28,-0.766 0.072,-1.086c0.393,-0.487 1.046,-0.715 1.656,-0.559c0.342,0.103 0.342,0.383 0.311,0.631c-0.031,0.352 -0.145,0.704 -0.176,1.056c-0.073,0.911 -0.176,1.832 -0.249,2.743c0,0.103 -0.072,0.248 -0.103,0.455l-0.88,0Z" style="fill:#fff;"/>
</svg>
