<?xml version="1.0" encoding="UTF-8" standalone="no"?>
<!DOCTYPE svg PUBLIC "-//W3C//DTD SVG 1.1//EN" "http://www.w3.org/Graphics/SVG/1.1/DTD/svg11.dtd">
<svg width="368" height="93" viewBox="0 0 368 93" version="1.1" xmlns="http://www.w3.org/2000/svg" xmlns:xlink="http://www.w3.org/1999/xlink" xml:space="preserve" xmlns:serif="http://www.serif.com/" style="fill-rule:evenodd;clip-rule:evenodd;stroke-linejoin:round;stroke-miterlimit:2;">
    <path d="M42.289,85.544c-5.722,3.009 -12.113,4.535 -18.581,4.436c-3.261,0.033 -6.489,-0.538 -9.542,-1.68c-5.656,-2.119 -10.158,-6.523 -12.398,-12.134c-1.208,-3.042 -1.812,-6.292 -1.768,-9.576c-0.044,-3.349 0.56,-6.676 1.779,-9.795c1.109,-2.811 2.778,-5.37 4.92,-7.511c2.13,-2.098 4.678,-3.723 7.478,-4.788c3.053,-1.142 6.281,-1.713 9.542,-1.68c3.251,-0.022 6.49,0.395 9.631,1.23c2.998,0.823 5.754,2.328 8.06,4.403l-5.897,5.963c-1.493,-1.428 -3.283,-2.537 -5.227,-3.229c-2.075,-0.768 -4.282,-1.153 -6.501,-1.142c-2.163,-0.032 -4.315,0.396 -6.303,1.241c-1.834,0.791 -3.492,1.955 -4.854,3.426c-1.372,1.483 -2.437,3.218 -3.14,5.107c-0.747,2.009 -1.131,4.129 -1.109,6.281c-0.022,2.262 0.351,4.524 1.109,6.655c0.692,1.943 1.757,3.733 3.14,5.26c1.362,1.482 3.009,2.668 4.854,3.492c1.988,0.867 4.14,1.295 6.314,1.262c1.933,0 3.855,-0.186 5.743,-0.571c1.681,-0.34 3.295,-0.933 4.788,-1.778l0,-10.586l-9.191,-0l0,-7.226l17.186,-0l-0,22.951l-0.033,-0.011Zm23.983,-41.586l6.896,-0l19.338,44.891l-9.126,0l-4.183,-10.267l-19.459,-0l-4.052,10.267l-8.939,0l19.525,-44.891Zm10.124,27.771l-6.907,-18.261l-7.039,18.261l13.946,0Zm21.117,-27.771l7.995,-0l-0,37.654l19.074,0l0,7.226l-27.069,0l0,-44.88Zm22.38,-0l9.191,-0l12.233,33.921l12.618,-33.921l8.62,-0l-18.13,44.891l-6.907,0l-17.625,-44.891Zm47.109,-0l29.738,-0l-0,7.225l-21.743,0l-0,11.037l20.601,-0l-0,7.225l-20.601,0l-0,12.167l22.885,0l-0,7.226l-30.88,0l0,-44.88Zm60.738,9.641c-0.835,-1.219 -2.021,-2.152 -3.394,-2.69c-1.416,-0.571 -2.943,-0.868 -4.469,-0.857c-0.911,0 -1.812,0.099 -2.69,0.319c-0.835,0.198 -1.626,0.538 -2.35,1.01c-0.692,0.461 -1.274,1.076 -1.68,1.812c-0.44,0.802 -0.659,1.713 -0.637,2.636c-0.077,1.35 0.516,2.646 1.581,3.481c1.208,0.878 2.526,1.581 3.931,2.086c1.56,0.593 3.273,1.164 5.139,1.713c1.801,0.527 3.536,1.296 5.14,2.284c1.581,0.989 2.921,2.306 3.931,3.866c1.142,1.932 1.691,4.161 1.581,6.402c0.055,2.174 -0.406,4.337 -1.328,6.314c-0.846,1.735 -2.065,3.272 -3.58,4.469c-1.56,1.208 -3.339,2.12 -5.227,2.669c-2.043,0.604 -4.151,0.9 -6.282,0.889c-2.745,0 -5.468,-0.461 -8.049,-1.394c-2.602,-0.945 -4.898,-2.559 -6.655,-4.689l6.029,-5.832c0.956,1.472 2.273,2.658 3.833,3.46c1.548,0.812 3.283,1.24 5.04,1.24c0.944,0 1.878,-0.131 2.789,-0.384c0.901,-0.241 1.757,-0.626 2.537,-1.142c0.747,-0.494 1.383,-1.153 1.834,-1.933c0.472,-0.812 0.714,-1.746 0.692,-2.69c0.087,-1.45 -0.495,-2.844 -1.582,-3.8c-1.175,-0.955 -2.503,-1.713 -3.931,-2.251c-1.559,-0.615 -3.272,-1.197 -5.139,-1.746c-1.801,-0.527 -3.525,-1.284 -5.139,-2.251c-1.571,-0.966 -2.921,-2.262 -3.932,-3.799c-1.142,-1.922 -1.691,-4.14 -1.581,-6.369c-0.055,-2.098 0.439,-4.173 1.428,-6.029c0.922,-1.658 2.207,-3.097 3.744,-4.217c1.603,-1.142 3.393,-1.999 5.293,-2.504c1.988,-0.549 4.03,-0.823 6.084,-0.823c2.339,-0 4.656,0.362 6.874,1.076c2.229,0.725 4.283,1.944 5.996,3.547l-5.831,6.149l-0,-0.022Zm22.313,-2.416l-13.759,0l0,-7.225l35.502,-0l0,7.225l-13.759,0l-0,37.655l-7.984,0l0,-37.655Zm76.529,-7.225l10.575,-0l21.742,33.35l0.132,-0l0,-33.35l7.984,-0l-0,44.891l-10.147,0l-22.182,-34.426l-0.121,-0l0,34.426l-7.983,0l-0,-44.891Z" style="fill:#015f81;"/>
    <path d="M305.256,78.373c0.494,-0.351 1.175,-0.242 1.537,0.242c0.352,0.494 0.242,1.175 -0.241,1.537c-0.494,0.351 -1.175,0.242 -1.537,-0.242c-0.352,-0.494 -0.242,-1.175 0.241,-1.526m2.471,3.371c0.56,-0.406 1.351,-0.285 1.757,0.275c0.406,0.56 0.285,1.35 -0.275,1.757c-0.56,0.406 -1.35,0.285 -1.757,-0.275c-0.406,-0.56 -0.285,-1.35 0.275,-1.757m-3.833,-5.271c-0.417,0.308 -0.999,0.209 -1.295,-0.197c-0.308,-0.418 -0.209,-1 0.197,-1.296c0.407,-0.297 1,-0.209 1.296,0.197c0.297,0.418 0.209,0.989 -0.198,1.296m-2.657,-3.657c-0.34,0.242 -0.813,0.176 -1.065,-0.164c-0.242,-0.341 -0.176,-0.813 0.165,-1.065c0.34,-0.242 0.812,-0.176 1.065,0.164c0.241,0.341 0.175,0.813 -0.165,1.055m-1.746,-7.05c-0.308,0.098 -0.648,-0.066 -0.747,-0.385c-0.099,-0.307 0.066,-0.648 0.385,-0.747c0.307,-0.098 0.647,0.066 0.746,0.385c0.099,0.307 -0.066,0.648 -0.384,0.747m-0.911,3.415c-0.264,0.197 -0.637,0.131 -0.835,-0.132c-0.198,-0.264 -0.132,-0.637 0.132,-0.835c0.263,-0.197 0.637,-0.131 0.834,0.132c0.198,0.264 0.132,0.637 -0.131,0.835m-2.274,-22.226c-0.691,-0 -1.251,-0.56 -1.251,-1.263c-0,-0.703 0.56,-1.252 1.262,-1.252c0.692,0 1.252,0.56 1.252,1.263c0,0.692 -0.56,1.252 -1.252,1.263m-0.011,4.173c-0.604,-0 -1.098,-0.484 -1.098,-1.088c0,-0.604 0.483,-1.098 1.087,-1.098c0.604,0 1.099,0.483 1.099,1.087c-0,0.604 -0.484,1.099 -1.088,1.099m0,4.183c-0.516,0 -0.922,-0.417 -0.922,-0.933c-0,-0.516 0.417,-0.922 0.933,-0.922c0.517,-0 0.923,0.417 0.923,0.922c-0,0.516 -0.417,0.922 -0.923,0.922m-0.011,4.195c-0.417,0 -0.757,-0.34 -0.768,-0.757c-0,-0.418 0.34,-0.758 0.757,-0.769c0.418,-0 0.758,0.34 0.769,0.758c0,0.417 -0.34,0.757 -0.758,0.768m0,4.184c-0.329,0 -0.593,-0.263 -0.593,-0.593c0,-0.329 0.264,-0.593 0.593,-0.593c0.33,0 0.593,0.264 0.593,0.593c0,0.33 -0.263,0.593 -0.593,0.593m-1.251,5.425c-0.198,0.263 -0.571,0.329 -0.835,0.132c-0.264,-0.198 -0.329,-0.571 -0.132,-0.835c0.198,-0.264 0.571,-0.329 0.835,-0.132c0.263,0.198 0.318,0.56 0.132,0.835m-1.099,-3.624c-0.098,0.318 -0.439,0.483 -0.746,0.384c-0.319,-0.098 -0.483,-0.439 -0.385,-0.746c0.099,-0.319 0.44,-0.484 0.747,-0.385c0.308,0.11 0.483,0.44 0.384,0.747m-1.317,7.248c-0.242,0.34 -0.725,0.417 -1.065,0.175c-0.341,-0.241 -0.418,-0.724 -0.176,-1.065c0.241,-0.34 0.725,-0.417 1.065,-0.176c0.34,0.253 0.417,0.725 0.165,1.066m-2.416,3.612c-0.297,0.418 -0.879,0.506 -1.296,0.209c-0.417,-0.296 -0.505,-0.878 -0.209,-1.296c0.297,-0.417 0.879,-0.505 1.296,-0.208c0.417,0.296 0.505,0.878 0.209,1.295m-2.416,3.624c-0.351,0.483 -1.043,0.593 -1.526,0.242c-0.484,-0.352 -0.593,-1.043 -0.242,-1.527c0.351,-0.483 1.043,-0.593 1.526,-0.241c0.484,0.351 0.593,1.032 0.242,1.515m-2.416,3.624c-0.406,0.56 -1.197,0.681 -1.757,0.275c-0.56,-0.407 -0.681,-1.197 -0.274,-1.757c0.406,-0.56 1.197,-0.681 1.757,-0.275c0.56,0.406 0.68,1.197 0.274,1.757m4.601,-19.393c-0.132,0.396 -0.56,0.615 -0.955,0.483c-0.395,-0.131 -0.615,-0.56 -0.483,-0.955c0.131,-0.395 0.56,-0.615 0.955,-0.483c0.395,0.132 0.615,0.56 0.483,0.955m-3.986,-1.285c-0.154,0.484 -0.681,0.758 -1.164,0.593c-0.483,-0.153 -0.758,-0.68 -0.593,-1.164c0.154,-0.483 0.681,-0.757 1.164,-0.593c0.483,0.154 0.747,0.681 0.593,1.164m-3.997,-1.306c-0.187,0.571 -0.802,0.889 -1.384,0.691c-0.582,-0.197 -0.889,-0.801 -0.692,-1.383c0.187,-0.571 0.802,-0.89 1.373,-0.703c0.571,0.187 0.89,0.802 0.703,1.373m-3.975,-1.274c-0.209,0.659 -0.923,1.021 -1.582,0.813c-0.658,-0.209 -1.021,-0.923 -0.812,-1.582c0.208,-0.659 0.922,-1.021 1.581,-0.812c0.659,0.208 1.021,0.922 0.813,1.581m25.18,2.811c0.395,-0.132 0.834,0.088 0.966,0.494c0.132,0.407 -0.088,0.835 -0.494,0.967c-0.396,0.131 -0.835,-0.088 -0.967,-0.495c-0.131,-0.395 0.088,-0.823 0.495,-0.966m4.085,-1.493c0.483,-0.165 1.01,0.109 1.175,0.593c0.164,0.483 -0.11,1.01 -0.593,1.175c-0.484,0.164 -1.011,-0.11 -1.175,-0.593c-0.154,-0.484 0.109,-1.011 0.593,-1.164m4.085,-1.516c0.571,-0.186 1.186,0.121 1.383,0.692c0.187,0.571 -0.121,1.186 -0.692,1.384c-0.571,0.186 -1.186,-0.121 -1.383,-0.692c-0.187,-0.571 0.121,-1.186 0.692,-1.373m4.096,-1.515c0.659,-0.209 1.372,0.154 1.581,0.812c0.209,0.659 -0.154,1.373 -0.813,1.582c-0.659,0.208 -1.372,-0.143 -1.581,-0.802c-0.22,-0.659 0.143,-1.373 0.802,-1.581m-12.903,9.861c1.164,-0.187 2.306,-0.483 3.415,-0.857c6.171,-2.009 12.442,-4.908 15.758,-10.058c-2.822,0.131 -10.729,-0.011 -18.24,2.415c-1.076,0.341 -2.13,0.747 -3.162,1.208c0.175,-1.164 0.252,-2.339 0.241,-3.514c0,-6.49 -0.823,-13.342 -4.689,-18.097c-0.736,2.735 -3.338,10.202 -3.338,18.097c-0.011,1.131 0.044,2.263 0.165,3.383c-1.055,-0.528 -2.142,-0.967 -3.273,-1.307c-6.171,-2.01 -12.947,-3.338 -18.657,-1.131c2.372,1.548 8.675,6.325 16.186,8.752c1.066,0.362 2.164,0.659 3.262,0.889c-0.824,0.835 -1.581,1.735 -2.251,2.702c-3.822,5.249 -7.182,11.288 -6.831,17.394c2.197,-1.768 8.686,-6.292 13.332,-12.683c0.68,-0.901 1.295,-1.845 1.855,-2.834c0.538,1.044 1.164,2.043 1.867,2.976c3.822,5.249 8.511,10.312 14.44,11.882c-1.01,-2.635 -3.305,-10.212 -7.939,-16.593c-0.648,-0.922 -1.362,-1.801 -2.119,-2.635" style="fill:#d55040;fill-rule:nonzero;"/>
    <path d="M287.352,69.158c0.005,-0.006 0.011,-0.013 0.016,-0.02l-0.011,0.022c-0.002,-0.001 -0.003,-0.001 -0.005,-0.002Zm0,0c-0.214,0.288 -0.429,0.537 -0.654,0.858c-2.625,3.415 -4.7,7.226 -6.15,11.289c-0.055,-0.022 -0.109,-0.044 -0.164,-0.044c-0.44,-0.066 -0.978,0.286 -1.406,0.165c-0.428,-0.121 -0.725,-0.692 -1.131,-0.857c-0.406,-0.164 -1.01,0.033 -1.406,-0.175c-0.395,-0.209 -0.538,-0.835 -0.9,-1.099c-0.362,-0.263 -0.988,-0.197 -1.318,-0.505c-0.329,-0.307 -0.307,-0.944 -0.604,-1.285c-0.296,-0.34 -0.911,-0.428 -1.164,-0.812c-0.252,-0.384 -0.088,-0.988 -0.285,-1.395c-0.198,-0.406 -0.78,-0.637 -0.934,-1.065c-0.153,-0.428 0.143,-0.977 0.055,-1.416c-0.088,-0.44 -0.604,-0.813 -0.648,-1.263c-0.044,-0.451 0.385,-0.912 0.396,-1.362c0.011,-0.45 -0.385,-0.944 -0.33,-1.384c0.055,-0.439 0.582,-0.801 0.703,-1.23c0.121,-0.428 -0.165,-0.999 0.011,-1.416c0.176,-0.417 0.769,-0.637 0.988,-1.021c0.22,-0.385 0.088,-1.011 0.352,-1.373c0.263,-0.362 0.889,-0.428 1.197,-0.758c0.066,-0.066 0.109,-0.142 0.153,-0.23c3.844,2.558 7.995,4.612 12.354,6.116c0.317,0.099 0.591,0.175 0.885,0.262Zm-4.344,1.078l-0.011,0.011c-0.011,-0.099 -0.033,-0.187 -0.055,-0.275c-3.305,0.923 -6.523,2.12 -9.63,3.58c3.316,-0.812 6.556,-1.856 9.718,-3.129c0,-0.066 -0.011,-0.121 -0.022,-0.187Zm-0.725,3.305l-0.011,0c0.231,-0.428 0.429,-0.878 0.571,-1.339c-1.954,2.339 -3.382,5.084 -4.172,8.027c0.9,-1.878 2.339,-4.623 3.612,-6.688Zm-1.262,-5.688c-2.471,-1.01 -4.887,-2.163 -7.237,-3.426c2.416,1.955 5.249,3.338 8.28,4.041c-0.319,-0.253 -0.67,-0.45 -1.043,-0.615Zm-9.62,3.821c1.208,-0.043 2.46,0.198 3.591,-0.582c-1.373,-0.505 -2.756,0.308 -3.591,0.582Zm1.439,4.316c1.153,-0.395 2.415,-0.527 3.272,-1.592c-1.461,-0.099 -2.548,1.087 -3.272,1.592Zm9.795,-6.841c-2.603,0.033 -8.544,-0.044 -10.696,-0c2.723,0.955 8.434,0.779 10.817,0.23c-0.044,-0.087 -0.077,-0.153 -0.121,-0.23Zm-7.588,-1.801c-0.714,-0.516 -1.604,-0.758 -2.482,-0.681c0.736,0.472 1.603,0.714 2.482,0.681Zm8.005,3.876c0.011,-0.099 0.011,-0.186 0.011,-0.285c-2.185,1.01 -6.841,4.425 -8.401,6.885c1.713,-1.296 6.315,-5.007 8.39,-6.6Zm-6.479,7.885c0.604,-0.604 1.373,-1.087 1.581,-2.032c-0.955,0.396 -1.284,1.483 -1.581,2.032Zm20.315,-2.339l0,-0.033c2.504,3.646 5.579,6.852 9.104,9.51l-0.132,0.197c-0.198,0.407 -0.044,1.021 -0.285,1.395c-0.242,0.373 -0.879,0.472 -1.164,0.812c-0.286,0.341 -0.275,0.978 -0.604,1.285c-0.33,0.308 -0.967,0.253 -1.329,0.516c-0.363,0.264 -0.494,0.868 -0.89,1.098c-0.395,0.231 -0.988,0.011 -1.405,0.187c-0.418,0.176 -0.692,0.736 -1.131,0.857c-0.44,0.12 -0.978,-0.231 -1.417,-0.165c-0.439,0.066 -0.856,0.549 -1.307,0.56c-0.45,0.011 -0.878,-0.45 -1.328,-0.494c-0.451,-0.044 -0.967,0.318 -1.406,0.23c-0.439,-0.087 -0.747,-0.647 -1.175,-0.79c-0.428,-0.143 -1.021,0.088 -1.417,-0.11c-0.395,-0.198 -0.571,-0.802 -0.944,-1.054c-0.373,-0.253 -1.01,-0.165 -1.351,-0.45c-0.34,-0.286 -0.373,-0.923 -0.669,-1.252c-0.297,-0.33 -0.934,-0.396 -1.197,-0.758c-0.264,-0.362 -0.132,-0.988 -0.352,-1.373c-0.11,-0.175 -0.252,-0.318 -0.417,-0.439c3.635,-2.866 6.874,-6.193 9.663,-9.883c0.198,-0.264 0.352,-0.505 0.527,-0.758c0.209,0.297 0.385,0.582 0.626,0.912Zm-0.571,14.045c0.264,-3.404 0.275,-6.809 0.033,-10.213c-0.066,-0.011 -0.12,-0.033 -0.186,-0.033c-0.099,-0.011 -0.198,-0.033 -0.286,-0.033c-0.132,3.437 0.011,6.875 0.439,10.279Zm2.186,1.208c-0.011,-1.208 0.252,-2.449 -0.505,-3.602c-0.55,1.362 0.252,2.756 0.505,3.602Zm5.797,-4.272c-1.515,-1.462 -3.73,-3.71 -5.292,-5.568c-0.308,-0.329 -0.648,-0.625 -1.021,-0.878c1.618,2.58 3.769,4.779 6.313,6.446Zm-12.595,3.02l0,0.011c1.746,-2.306 3.339,-7.797 3.558,-10.224c-0.088,0.011 -0.165,0.022 -0.252,0.044c-0.78,2.482 -2.68,8.104 -3.306,10.169Zm2.24,1.296c0.33,-1.164 0.945,-2.274 0.56,-3.591c-0.911,1.142 -0.56,2.712 -0.56,3.591Zm-6.171,-4.503c2.603,-1.691 4.799,-3.964 6.402,-6.621c-0.351,0.241 -0.67,0.527 -0.944,0.845c-1.713,2.021 -3.536,3.942 -5.458,5.776Zm9.081,-6.841c0.286,2.394 2.098,7.885 3.954,10.125c-0.703,-2.021 -2.811,-7.566 -3.69,-10.026l-0.264,-0.099Zm-7.324,8.686c0.56,-0.659 1.285,-1.186 1.417,-2.152c-0.934,0.472 -1.153,1.592 -1.417,2.152Zm11.64,-2.108c0.088,1.032 1.021,1.669 1.45,2.13c-0.396,-0.758 -0.615,-1.636 -1.45,-2.13Zm0.955,-28.508l-0.011,0c0.022,-0.362 0.044,-0.702 0.044,-1.098c0.11,-4.381 -0.483,-8.763 -1.757,-12.957c0.154,-0.242 0.374,-0.429 0.615,-0.561c0.407,-0.164 0.978,0.132 1.417,0.022c0.439,-0.109 0.813,-0.625 1.252,-0.68c0.439,-0.055 0.911,0.362 1.372,0.362c0.462,-0 0.912,-0.417 1.373,-0.362c0.461,0.055 0.813,0.571 1.252,0.68c0.439,0.11 0.999,-0.175 1.417,-0.022c0.417,0.154 0.647,0.747 1.043,0.956c0.395,0.208 1.021,0.066 1.383,0.318c0.363,0.253 0.451,0.89 0.78,1.186c0.329,0.297 0.966,0.297 1.263,0.637c0.296,0.341 0.231,0.967 0.483,1.34c0.253,0.373 0.868,0.527 1.076,0.922c0.209,0.396 -0.022,0.989 0.143,1.406c0.165,0.417 0.736,0.714 0.835,1.153c0.098,0.439 -0.253,0.966 -0.198,1.406c0.055,0.439 0.527,0.856 0.527,1.317c-0,0.461 -0.472,0.879 -0.527,1.318l-0,0.077c-4.382,0.22 -8.708,0.988 -12.903,2.273c-0.318,0.099 -0.582,0.209 -0.879,0.307Zm7.072,-13.814c-0.702,0.988 -1.647,1.845 -1.713,3.207c1.241,-0.78 1.417,-2.383 1.713,-3.207Zm-4.853,-0.329c-0.286,0.823 -0.319,1.724 -0.088,2.569c0.34,-0.812 0.362,-1.724 0.088,-2.569Zm10.564,7.708c-0.879,0.055 -1.724,0.374 -2.416,0.912c1.032,0.165 1.878,-0.604 2.416,-0.912Zm-2.01,-4.732c-0.955,0.757 -2.108,1.284 -2.57,2.58c1.417,-0.384 2.054,-1.867 2.57,-2.58Zm-6.248,-3.064l-0,-0.011c-0.626,2.064 -2.175,7.786 -2.91,10.289c0.044,0.088 0.099,0.165 0.153,0.242c1.175,-2.098 2.932,-7.61 2.757,-10.52Zm8.587,10.322c-3.108,-0.154 -6.226,0.395 -9.092,1.614c0.351,0.011 0.702,-0.011 1.054,-0.087c2.646,-0.648 5.337,-1.164 8.038,-1.527Zm-13.254,-9.905l-0.011,0c0.384,2.076 0.845,5.205 1.021,7.632c0.066,0.461 0.176,0.901 0.318,1.34c0.22,-3.053 -0.241,-6.117 -1.328,-8.972Zm11.958,5.019l0.011,-0.011c-2.778,0.834 -7.291,4.348 -8.895,6.182c0.066,0.044 0.143,0.077 0.22,0.11c2.097,-1.549 6.951,-4.997 8.664,-6.281Zm-3.7,-2.757l-0.011,0c-2.208,2.603 -4.217,5.359 -6.029,8.258c0.044,0.055 0.088,0.099 0.132,0.143c0.077,0.066 0.142,0.121 0.208,0.176c2.142,-2.702 4.041,-5.568 5.7,-8.577Zm11.189,25.806l0,-0.011c-0.076,0.45 0.242,0.988 0.121,1.417c-0.121,0.428 -0.692,0.692 -0.878,1.109c-0.187,0.417 0.011,1.01 -0.22,1.405c-0.23,0.396 -0.845,0.528 -1.12,0.879c-0.274,0.351 -0.231,0.977 -0.538,1.307c-0.308,0.329 -0.944,0.307 -1.296,0.582c-0.351,0.274 -0.472,0.911 -0.845,1.142c-0.374,0.23 -0.989,0.055 -1.395,0.241c-0.406,0.187 -0.659,0.78 -1.098,0.912c-0.439,0.132 -0.977,-0.187 -1.417,-0.099c-0.164,0.044 -0.329,0.121 -0.472,0.22c-1.592,-4.239 -3.712,-8.258 -6.303,-11.97c-0.198,-0.275 -0.373,-0.494 -0.56,-0.736c0.34,-0.099 0.67,-0.186 1.054,-0.307c4.25,-1.252 8.258,-3.185 11.871,-5.732c0.329,0.274 0.911,0.307 1.186,0.658c0.274,0.352 0.186,0.978 0.417,1.362c0.231,0.384 0.846,0.571 1.032,0.977c0.187,0.407 -0.077,0.978 0.077,1.417c0.154,0.439 0.692,0.758 0.78,1.197c0.088,0.439 -0.297,0.944 -0.264,1.395c0.033,0.45 0.483,0.878 0.461,1.339c-0.022,0.462 -0.516,0.857 -0.593,1.296Zm-11.222,-3.097l-0,0.011c-0.066,0.066 -0.121,0.143 -0.176,0.22c2.361,0.461 8.148,0.428 10.86,-0.637c-2.152,0.044 -8.071,0.341 -10.684,0.406Zm-0.549,0.824c-0.033,0.088 -0.077,0.176 -0.11,0.264c3.228,1.186 6.545,2.108 9.916,2.756c-3.163,-1.296 -6.402,-2.361 -9.719,-3.185c-0.033,0.055 -0.054,0.11 -0.087,0.165Zm-0.33,1.098c2.131,1.505 6.896,5.062 8.664,6.292c-1.647,-2.372 -6.38,-5.589 -8.62,-6.544c-0.022,0.087 -0.044,0.164 -0.044,0.252Zm0.549,1.999l0,0.011c1.406,2.273 2.691,4.623 3.855,7.028c-0.813,-3.009 -2.295,-5.798 -4.338,-8.148c0.11,0.384 0.275,0.757 0.483,1.109Zm7.83,-2.405c1.131,0.944 2.701,0.615 3.58,0.637c-1.153,-0.363 -2.262,-1 -3.58,-0.637Zm-5.688,-2.855c-0.385,0.186 -0.747,0.417 -1.088,0.67c2.976,-0.736 5.744,-2.12 8.127,-4.042c-2.296,1.241 -4.635,2.372 -7.039,3.372Zm4.645,6.171c0.812,1.23 2.415,1.373 3.25,1.647c-1.01,-0.681 -1.878,-1.614 -3.25,-1.647Zm3.437,-7.401c-0.879,-0.022 -1.746,0.23 -2.482,0.714c0.889,0.065 1.768,-0.187 2.482,-0.714Zm-5.689,10.41c0.165,1.021 1.153,1.581 1.615,2.01c-0.451,-0.725 -0.736,-1.582 -1.615,-2.01Zm-37.303,-22.083c-0.077,-0.439 -0.571,-0.846 -0.593,-1.296c-0.022,-0.45 0.429,-0.9 0.461,-1.34c0.033,-0.439 -0.351,-0.966 -0.263,-1.394c0.088,-0.429 0.626,-0.758 0.769,-1.186c0.142,-0.429 -0.121,-1.011 0.076,-1.417c0.198,-0.406 0.791,-0.571 1.033,-0.966c0.241,-0.396 0.131,-1.011 0.417,-1.362c0.285,-0.351 0.922,-0.384 1.241,-0.703c0.318,-0.318 0.373,-0.944 0.725,-1.219c0.351,-0.274 0.977,-0.153 1.361,-0.384c0.385,-0.231 0.593,-0.835 1,-1.01c0.406,-0.176 0.988,0.088 1.416,-0.044c0.428,-0.132 0.769,-0.67 1.208,-0.747c0.439,-0.077 0.944,0.319 1.384,0.297c0.439,-0.022 0.911,-0.462 1.35,-0.429c0.44,0.033 0.835,0.527 1.274,0.615c0.439,0.088 0.978,-0.23 1.417,-0.088c0.439,0.143 0.692,0.725 1.098,0.912c0.143,0.055 0.296,0.088 0.45,0.088c-1.241,4.447 -1.911,9.037 -1.998,13.649c-0,0.33 0.022,0.615 0.022,0.923c-0.341,-0.121 -0.659,-0.253 -1.033,-0.374c-4.118,-1.46 -8.444,-2.251 -12.815,-2.339c0.011,-0.054 0.011,-0.12 0,-0.186Zm3.317,-3.426c-0.67,-0.791 -1.812,-0.758 -2.427,-0.879c0.703,0.527 1.548,0.835 2.427,0.879Zm8.17,-8.544c-0.22,0.857 -0.176,1.757 0.12,2.581c0.264,-0.846 0.22,-1.768 -0.12,-2.581Zm-1.845,11.64c-2.054,-1.153 -6.534,-1.812 -9.159,-1.625c2.834,0.373 5.645,0.912 8.412,1.614c0.253,0.011 0.494,0.022 0.747,0.011Zm2.009,-0.593l0.011,0c-1.921,-2.91 -4.096,-5.644 -6.479,-8.192c1.812,2.943 3.844,5.755 6.084,8.401l0.165,-0.077c0.077,-0.044 0.153,-0.088 0.219,-0.132Zm-6.424,-5.282c-0.362,-1.416 -1.823,-2.086 -2.525,-2.613c0.724,0.966 1.24,2.13 2.525,2.613Zm2.801,-2.075c0.065,-1.472 -1.143,-2.526 -1.659,-3.24c0.418,1.142 0.571,2.405 1.659,3.24Zm5.962,-3.229c-1.01,2.493 -1.779,7.116 -1.23,9.378c0.066,-0.153 0.121,-0.307 0.165,-0.472c0.165,-2.987 0.516,-5.963 1.065,-8.906Zm-5.051,-0.285l-0.011,-0c-0.066,2.965 1.966,8.532 3.217,10.509c0.055,-0.055 0.11,-0.099 0.154,-0.154c-0.801,-2.361 -2.635,-8.269 -3.36,-10.355Zm1.845,11.267c-1.527,-1.735 -6.38,-5.249 -9.268,-5.996c1.812,1.263 6.984,4.645 9.048,6.062l0.22,-0.066Z" style="fill:#66b3bf;"/>
    <path d="M176.249,0.714l-0.011,-0.011c0.702,-0.571 4.996,1.713 4.689,4.711c-0.494,5.282 -16.78,32.834 -18.383,32.834c-1.746,-0 -7.138,-2.087 -6.94,-3.899c0.055,-0.571 8.543,-27.277 6.446,-29.462c-0.999,-1.044 -8.84,3.997 -9.543,11.376c-0.296,3.284 1.702,2.899 0.901,3.569c-0.747,0.615 -5.787,-2.284 -5.392,-6.567c0.648,-6.654 9.389,-11.464 14.385,-11.464c3.503,-0 5.052,1.999 5.052,5.666c-0,6.853 -5.293,23.511 -4.448,23.511c0.758,0 12.848,-21.984 13.441,-28.079c0.099,-1.428 -0.593,-1.801 -0.197,-2.185Zm12.793,8.137c-0.703,0.527 -3.942,-0.286 -3.745,-1.999c0.461,-2.372 1.439,-4.601 2.844,-6.566c0.901,-0.857 6.293,0.472 4.997,1.713c-0.802,0.757 -3.844,6.665 -4.096,6.852Zm8.049,3.953l-0.011,-0.011c1.603,0 4.151,1.142 3.997,2.185c0,0 -1.35,3.141 -1.702,10.18c-0.296,5.71 -1.801,10.849 -6.896,10.849c-3.833,0 -5.831,-1.636 -6.534,-3.634c-1.427,2.042 -3.009,3.492 -4.502,3.492c-2.746,-0 -4.843,-1.944 -4.843,-6.183c0,-5.282 4.041,-16.559 6.193,-16.559c2.702,-0 4.7,1.427 4.7,2.097c0,0.34 -0.208,0.198 -0.406,0.384c-1.197,1.142 -5.139,10.432 -5.139,15.473c-0,1.241 0.406,1.241 0.604,1.241c1.131,-0 3.503,-4.283 5.458,-7.863c1.888,-4.25 4.809,-10.245 9.081,-11.651Zm-6.095,20.129l0,-0.011c4.096,-0 2.603,-11.036 3.701,-14.276c-2.844,3.624 -4.996,8.664 -6.545,11.333c0.352,1.142 1.044,2.954 2.844,2.954Zm22.325,-24.082c-0.703,0.527 -3.942,-0.286 -3.744,-1.999c0.461,-2.372 1.438,-4.601 2.844,-6.566c0.9,-0.857 6.292,0.472 4.996,1.713c-0.801,0.757 -3.843,6.665 -4.096,6.852Zm10.85,-8.851l-0,-0.022c2.69,0 5.293,1.999 5.293,2.471c-0,0.285 -0.308,0.197 -0.505,0.384c-1.494,1.428 -3.492,4.942 -5.293,9.082c-0,0.036 0.417,0.069 1.251,0.098c2.35,0 1.648,-0.241 1.999,-0.241c0.593,-0 -0.406,3.042 -2.35,3.042c-0.395,-0 -1.801,-0.143 -2.097,-0.143c-2.394,5.952 -4.294,12.519 -4.294,16.087c-0,1.428 0.791,1.527 0.944,1.527c2.306,-0 7.852,-12.662 8.796,-12.662c1.296,0 -4.601,16.231 -10.146,16.231c-2.746,-0 -4.997,-1.999 -4.997,-6.238c0.011,-0.659 0.066,-1.317 0.154,-1.976c-1.933,4.096 -4.678,8.214 -7.193,8.214c-2.745,-0 -4.842,-1.944 -4.842,-6.183c-0,-5.282 4.052,-16.559 6.193,-16.559c2.701,-0 4.7,1.427 4.7,2.097c-0,0.34 -0.198,0.198 -0.395,0.384c-1.197,1.142 -5.14,10.433 -5.14,15.473c0,1.241 0.396,1.241 0.593,1.241c1.626,-0 5.787,-8.807 7.643,-11.728c0.593,-2.131 1.318,-4.382 2.098,-6.589c-0.802,-0.143 -1.757,-0.384 -2.054,-0.384c-0.703,-0 -0.055,-1.615 1.395,-1.615l1.351,0c2.448,-6.424 5.249,-11.991 6.896,-11.991Z" style="fill:#355c7a;"/>
</svg>
