<?xml version="1.0" encoding="UTF-8" standalone="no"?>
<!DOCTYPE svg PUBLIC "-//W3C//DTD SVG 1.1//EN" "http://www.w3.org/Graphics/SVG/1.1/DTD/svg11.dtd">
<svg width="128" height="112" viewBox="0 0 128 112" version="1.1" xmlns="http://www.w3.org/2000/svg" xmlns:xlink="http://www.w3.org/1999/xlink" xml:space="preserve" xmlns:serif="http://www.serif.com/" style="fill-rule:evenodd;clip-rule:evenodd;stroke-linejoin:round;stroke-miterlimit:2;">
    <path d="M126.462,51.335c-1.245,-5.235 -4.146,-9.925 -8.27,-13.381c-1.913,-1.687 -3.888,-3.281 -5.832,-4.937c-0.813,-0.689 -1.419,-1.594 -1.749,-2.602c-1.152,-3.549 -3.157,-6.758 -5.831,-9.36c-3.148,-2.973 -7.015,-5.071 -11.232,-6.079c-1.739,-0.484 -3.312,-1.43 -4.547,-2.736c-1.758,-1.852 -3.62,-3.59 -5.585,-5.215c-9.123,-7.066 -19.254,-8.825 -30.239,-5.163c-5.493,1.913 -10.409,5.204 -14.267,9.555c-1.604,1.749 -3.672,3.014 -5.965,3.641c-8.157,2.253 -13.639,7.354 -16.323,15.387c-0.247,0.648 -0.638,1.235 -1.152,1.708c-1.482,1.44 -3.014,2.798 -4.547,4.155c-2.972,2.407 -5.544,5.266 -7.642,8.465c-2.9,4.495 -3.929,9.946 -2.88,15.192c1.018,4.649 3.405,8.877 6.85,12.158c2.191,2.17 4.577,4.155 6.851,6.243c1.213,0.987 2.16,2.263 2.736,3.713c2.077,6.696 7.323,11.931 14.019,14.009c2.921,0.967 5.626,2.489 7.971,4.474c1.831,1.574 3.538,3.261 5.452,4.752c5.636,4.495 12.671,6.861 19.882,6.676c3.445,-0.093 6.86,-0.741 10.1,-1.924c5.194,-1.892 9.854,-5.009 13.587,-9.092c1.77,-1.934 4.043,-3.333 6.573,-4.042c7.858,-2.304 13.34,-7.19 16.076,-14.987c0.237,-0.72 0.638,-1.368 1.173,-1.902c1.481,-1.41 3.014,-2.747 4.577,-4.043c2.777,-2.16 5.194,-4.752 7.148,-7.683c3.282,-5.009 4.382,-11.139 3.066,-16.992" style="fill:#1e4b64;fill-rule:nonzero;"/>
    <path d="M117.565,51.994c-1.06,-4.505 -3.539,-8.558 -7.077,-11.541c-1.635,-1.45 -3.322,-2.828 -4.989,-4.258c-0.699,-0.597 -1.213,-1.378 -1.491,-2.252c-0.987,-3.055 -2.695,-5.832 -4.988,-8.075c-2.685,-2.561 -5.997,-4.371 -9.597,-5.245c-1.491,-0.422 -2.828,-1.235 -3.888,-2.366c-1.502,-1.594 -3.096,-3.096 -4.772,-4.495c-7.797,-6.089 -16.457,-7.611 -25.848,-4.443c-4.711,1.656 -8.918,4.495 -12.209,8.239c-1.368,1.512 -3.137,2.592 -5.102,3.137c-6.675,1.635 -11.993,6.685 -13.957,13.278c-0.206,0.566 -0.546,1.07 -0.988,1.471c-1.265,1.245 -2.571,2.417 -3.888,3.58c-2.54,2.077 -4.741,4.546 -6.531,7.302c-2.479,3.888 -3.364,8.589 -2.458,13.115c0.864,4.001 2.9,7.652 5.852,10.491c1.872,1.872 3.909,3.579 5.853,5.39c1.038,0.853 1.851,1.954 2.345,3.209c1.759,5.76 6.243,10.275 11.982,12.075c2.5,0.833 4.814,2.15 6.81,3.867c1.563,1.358 3.024,2.808 4.659,4.094c4.803,3.878 10.831,5.914 16.992,5.76c2.952,-0.082 5.873,-0.638 8.64,-1.666c4.443,-1.636 8.434,-4.331 11.612,-7.838c1.512,-1.666 3.456,-2.88 5.616,-3.487c6.49,-1.676 11.674,-6.552 13.742,-12.929c0.205,-0.617 0.545,-1.172 1.008,-1.635c1.265,-1.214 2.571,-2.366 3.908,-3.487c2.376,-1.872 4.444,-4.104 6.11,-6.624c2.808,-4.33 3.754,-9.617 2.633,-14.657l0.021,-0.01Zm-6.182,11.725c-1.142,2.078 -2.633,3.95 -4.402,5.524c-3.436,3.034 -6.439,6.521 -8.918,10.368c-0.36,0.565 -0.679,1.152 -0.957,1.758c-0.915,2.119 -2.622,3.806 -4.752,4.701c-1.635,0.751 -3.373,1.337 -5.081,1.923c-1.645,0.546 -3.147,1.471 -4.381,2.695c-3.744,3.888 -8.013,6.974 -13.32,8.404c-1.276,0.318 -2.572,0.545 -3.888,0.658c-0.473,0.051 -0.988,-0.35 -1.471,-0.586c-0.051,-0.021 -0.072,-0.165 -0.072,-0.237c-0.072,-0.987 -0.144,-1.965 -0.185,-2.952c0.02,0 0.072,-0.021 0.092,-0.021c0.165,0.258 0.309,0.535 0.515,0.916c0.226,-0.844 0.051,-1.738 -0.473,-2.438c0.565,0.144 1.049,0.257 1.522,0.37c0.02,-0.051 0.072,-0.113 0.092,-0.164c-0.401,-0.278 -0.792,-0.566 -1.244,-0.895c0.494,-0.165 0.987,-0.329 1.563,-0.535c-0.617,-0.36 -1.378,-0.391 -2.016,-0.072c0.237,-0.401 0.401,-0.73 0.587,-1.049l-0.144,-0.144c-0.402,0.278 -0.772,0.586 -1.194,0.895c-0.236,-0.329 -0.421,-0.844 -1.1,-0.844c0.113,0.33 0.237,0.638 0.329,0.864c-0.442,0.093 -0.915,0.186 -1.378,0.278c-0,0.072 0.02,0.113 0.02,0.185c0.165,0.052 0.34,0.093 0.515,0.113c-0.679,0.093 -1.255,0.546 -1.523,1.173c0.7,-0.165 1.307,-0.329 2.088,-0.514c-0.699,0.73 -0.833,1.841 -0.329,2.715c0.309,-0.586 0.566,-1.049 0.823,-1.543c0.041,0 0.082,0 0.113,0.021c0.072,0.771 0.113,1.563 0.185,2.345c0.021,0.309 0.021,0.607 0.072,0.895c0.093,0.895 -0.308,1.337 -1.213,1.265c-4.701,-0.267 -9.175,-2.078 -12.734,-5.153c-2.479,-2.294 -5.174,-4.341 -8.054,-6.11c-1.717,-0.967 -3.507,-1.82 -5.338,-2.551c-2.972,-1.182 -5.389,-3.435 -6.768,-6.325c-0.452,-0.916 -0.853,-1.862 -1.193,-2.829c-0.535,-1.296 -1.347,-2.458 -2.386,-3.394c-1.893,-1.851 -3.816,-3.672 -5.709,-5.523c-2.55,-2.407 -4.289,-5.555 -4.988,-8.99c-0.885,-4.649 0.278,-9.453 3.188,-13.186c1.368,-1.687 2.891,-3.25 4.547,-4.66c2.725,-2.396 5.05,-5.204 6.881,-8.331c0.349,-0.658 0.699,-1.358 1.008,-2.036c0.823,-1.718 2.139,-3.148 3.795,-4.094c1.882,-1.08 3.898,-1.913 5.997,-2.458c1.697,-0.474 3.24,-1.368 4.474,-2.623c2.242,-2.407 4.813,-4.485 7.632,-6.182c4.299,-2.479 9.277,-3.518 14.214,-2.972c4.403,0.452 8.579,2.18 12.014,4.968c1.635,1.337 3.209,2.766 4.701,4.258c1.172,1.203 2.622,2.088 4.237,2.571c3.127,0.802 6.007,2.376 8.362,4.588c1.934,1.861 3.374,4.165 4.187,6.716c0.36,1.08 0.977,2.047 1.8,2.829c2.036,1.964 4.093,3.888 6.109,5.873c2.047,1.933 3.611,4.33 4.567,6.973c1.492,4.135 1.121,8.712 -1.018,12.549l-0,0.02Z" style="fill:#fff;fill-rule:nonzero;"/>
    <path d="M77.391,83.261c0.308,-0.102 0.636,-0.195 0.954,-0.256c0.422,1.594 0.864,3.168 1.286,4.731l-0.01,0.011c-0.422,0.329 -1.029,0.267 -1.368,-0.155c-0.607,-0.627 -1.286,-1.193 -2.057,-1.872c0.206,0.875 0.37,1.615 0.607,2.345c0.113,0.371 0.051,0.515 -0.35,0.607c-0.319,0.072 -0.514,0.113 -0.627,-0.329c-0.35,-1.46 -0.751,-2.859 -1.122,-4.289c0.679,-0.422 0.772,-0.391 1.307,0.072c0.648,0.607 1.326,1.193 1.985,1.8c0.02,-0.031 0.072,-0.031 0.092,-0.051c-0.235,-0.861 -0.461,-1.702 -0.697,-2.614Zm0,0c-0,0 -0.001,0.001 -0.002,0.001l-0,-0.01c0.001,0.003 0.002,0.006 0.002,0.009Zm-23.256,5.679c-0.001,0.003 -0.001,0.007 -0.002,0.01l0,-0.01c0.001,-0 0.001,-0 0.002,-0Zm-0,-0c0.277,-1.632 0.585,-3.223 0.883,-4.855c1.08,0.216 2.129,0.401 3.229,0.586c-0.051,0.298 -0.092,0.576 -0.144,0.885c-0.75,-0.113 -1.47,-0.227 -2.221,-0.371c-0.062,0.35 -0.134,0.659 -0.206,1.029c0.627,0.113 1.234,0.226 1.893,0.37c-0.072,0.278 -0.114,0.556 -0.165,0.864c-0.627,-0.103 -1.234,-0.195 -1.893,-0.308c-0.072,0.349 -0.113,0.679 -0.185,1.08c0.772,0.144 1.451,0.277 2.201,0.421c-0.051,0.299 -0.092,0.556 -0.144,0.885c-1.1,-0.185 -2.148,-0.38 -3.248,-0.586Zm33.437,-29.469l-0.021,0c-0.031,0.216 -0.051,0.443 -0.051,0.659c-1.049,-0.072 -2.078,-0.144 -3.086,-0.237c-0.134,-0.02 -0.278,-0.226 -0.37,-0.37c-1.245,-2.273 -2.479,-4.567 -3.724,-6.84c-0.092,-0.165 -0.216,-0.319 -0.37,-0.442c-0.185,2.427 -0.35,4.844 -0.535,7.323c-1.193,-0.072 -2.366,-0.144 -3.507,-0.257c-0.093,-0.021 -0.237,-0.278 -0.237,-0.422c0.144,-2.314 0.329,-4.659 0.494,-6.974c0.165,-2.458 0.35,-4.895 0.514,-7.354c0.021,-0.144 0.052,-0.267 0.072,-0.473c1.06,0.093 2.088,0.144 3.117,0.257c0.133,0.031 0.277,0.237 0.37,0.401c1.265,2.274 2.479,4.567 3.723,6.84c0.072,0.144 0.165,0.278 0.33,0.587c0.185,-2.592 0.349,-5.009 0.534,-7.488c1.214,0.072 2.346,0.164 3.487,0.236c0.35,0.021 0.278,0.278 0.257,0.515c-0.154,2.17 -0.298,4.371 -0.462,6.551c-0.186,2.479 -0.35,4.979 -0.535,7.488Zm12.198,-13.371l0,-0.01c3.096,0.545 4.711,2.602 4.567,5.76c-0.103,1.759 -0.308,3.507 -0.627,5.245c-0.432,2.438 -2.602,4.176 -5.081,4.074c-0.371,0.02 -0.731,0.01 -1.101,-0.021c-1.8,-0.206 -3.61,-0.401 -5.503,-0.607c0.144,-1.43 0.278,-2.808 0.422,-4.166c0.298,-2.766 0.576,-5.502 0.885,-8.269c0.092,-0.772 0.144,-1.543 0.257,-2.314c0.041,-0.175 0.175,-0.309 0.349,-0.35c1.944,0.185 3.909,0.329 5.832,0.658Zm0.679,4.989c0.052,-0.71 -0.411,-1.368 -1.1,-1.564c-0.782,-0.206 -1.564,-0.35 -2.366,-0.442c-0.298,2.9 -0.607,5.688 -0.885,8.475c0.7,0.072 1.286,0.165 1.893,0.185c0.905,0.124 1.749,-0.504 1.893,-1.409c0.257,-1.738 0.452,-3.487 0.565,-5.245Zm-37.974,7.837c-1.204,0.052 -2.397,0.031 -3.703,-0.02c0.71,-1.831 1.317,-3.446 1.923,-5.081c1.224,-3.21 2.438,-6.419 3.631,-9.648c0.072,-0.34 0.391,-0.556 0.73,-0.494c0.628,0.041 1.266,0.051 1.893,0.021c0.319,-0.021 0.607,0.195 0.658,0.514c1.132,3.23 2.253,6.439 3.374,9.648c0.555,1.553 1.101,3.096 1.635,4.639c0.062,0.164 0.124,0.339 0.165,0.514l-1.409,-0c-0.73,-0 -1.45,-0.021 -2.181,-0.021l-0.031,0c-0.226,0.021 -0.432,-0.133 -0.462,-0.36c-0.134,-0.514 -0.33,-1.008 -0.443,-1.522l0,-0.031c-0.041,-0.257 -0.288,-0.432 -0.555,-0.391c-1.265,0 -2.51,0 -3.775,-0.02c-0.278,-0.041 -0.525,0.154 -0.566,0.421c-0.133,0.515 -0.308,1.019 -0.514,1.502c-0.062,0.165 -0.195,0.288 -0.37,0.329Zm3.507,-9.267l0,0.01c-0.473,1.348 -0.895,2.572 -1.358,3.857l2.531,0c-0.401,-1.265 -0.751,-2.509 -1.173,-3.867Zm-28.45,6.716l0.01,0.011c0.72,-0.144 1.142,-0.566 1.122,-1.111c0.092,-0.864 -0.35,-1.337 -1.286,-1.43c-0.936,-0.051 -1.862,-0.154 -2.787,-0.308c-2.664,-0.453 -3.672,-2.51 -3.395,-4.896c0.227,-2.088 1.831,-3.755 3.909,-4.053c1.573,-0.391 3.229,-0.308 4.752,0.237c0.679,0.308 1.327,0.658 1.964,1.049c-0.812,0.905 -1.543,1.707 -2.314,2.571c-0.998,-0.761 -2.304,-1.008 -3.507,-0.658c-0.247,0.062 -0.463,0.175 -0.659,0.329c-0.37,0.268 -0.555,0.72 -0.462,1.173c0.082,0.442 0.421,0.771 0.863,0.843c0.556,0.093 1.142,0.134 1.728,0.206c0.587,0.072 1.163,0.123 1.728,0.236c1.749,0.288 3.066,1.728 3.21,3.487l-0,0.021c0.473,2.561 -1.214,5.019 -3.775,5.503c-1.831,0.504 -3.775,0.452 -5.575,-0.144c-0.771,-0.34 -1.512,-0.741 -2.222,-1.194c0.864,-0.956 1.595,-1.779 2.366,-2.622c1.275,0.843 2.849,1.121 4.33,0.75Zm19.152,-0.75l-0,3.373c-0.885,0.021 -1.8,0.072 -2.736,0.093l-6.768,0.206c-0.422,-0 -0.607,-0.042 -0.607,-0.535c-0.092,-4.68 -0.236,-9.34 -0.349,-14.02c-0,-0.185 -0.031,-0.37 -0.052,-0.678l3.816,-0c0.093,3.857 0.216,7.765 0.329,11.725c2.129,-0.051 4.217,-0.113 6.367,-0.164Zm13.793,8.927l-0,0.011c-0,3.415 -0,6.768 0.051,10.193c-0.771,-0 -1.522,0.031 -2.273,-0.021c-0.113,0 -0.277,-0.329 -0.277,-0.493c-0.031,-1.245 -0,-2.459 0.02,-3.703c0,-0.103 -0.02,-0.216 -0.02,-0.309c-0.042,-0.031 -0.062,-0.031 -0.114,-0.051c-0.329,0.586 -0.699,1.172 -1.008,1.779c-0.144,0.278 -0.432,0.442 -0.75,0.442l-0.021,0c-0.751,0.186 -1.512,-0.267 -1.707,-1.018c-0.175,-0.442 -0.443,-0.833 -0.772,-1.172l0,4.515c-0.843,-0 -1.594,-0 -2.345,-0.021c-0.134,-0.072 -0.226,-0.216 -0.236,-0.37c-0.031,-0.422 0.02,-0.864 0.02,-1.306l0,-8.476c0.802,0 1.543,0 2.273,0.021c0.175,0.062 0.319,0.185 0.401,0.35c0.607,1.172 1.193,2.365 1.8,3.538c0.072,0.144 0.144,0.288 0.257,0.494c0.391,-0.792 0.772,-1.512 1.142,-2.243c0.298,-0.586 0.607,-1.172 0.885,-1.758c0.103,-0.268 0.37,-0.432 0.658,-0.402c0.658,0.021 1.317,0 2.016,0Zm-43.55,-18.39l0.001,0.01c0.257,3.555 0.514,7.111 0.751,10.666c0.061,1.029 0.154,2.037 0.205,3.065c0.021,0.144 -0.113,0.402 -0.185,0.402c-1.152,0.092 -2.324,0.164 -3.538,0.257c-0.35,-5.081 -0.73,-10.111 -1.08,-15.192c0.936,-0.072 1.831,-0.134 2.695,-0.185c1.056,-0.062 1.08,-0.062 1.151,0.977Zm46.996,18.761l-0.011,-0c0.011,-0.103 0.042,-0.216 0.093,-0.309c2.273,0.113 4.567,0.237 6.881,0.35c-0.041,0.73 -0.041,1.388 -0.113,2.016c-0.021,0.092 -0.298,0.236 -0.463,0.236c-1.173,-0.051 -2.314,-0.113 -3.487,-0.164c-0.113,-0 -0.236,0.02 -0.421,0.02l-0,1.574l3.558,0.206l0,1.944c0,0.308 -0.164,0.35 -0.421,0.329c-0.967,-0.051 -1.903,-0.113 -2.86,-0.165l-0.493,0c-0.021,0.546 -0.072,1.08 -0.093,1.687c1.316,0.072 2.551,0.165 3.795,0.185c0.453,0 0.638,0.093 0.566,0.587c-0.072,0.545 -0.072,1.1 -0.093,1.594c-0.956,-0 -1.851,0.021 -2.715,-0c-1.234,-0.041 -2.499,-0.134 -3.744,-0.185c-0.278,-0 -0.463,-0.031 -0.442,-0.401c0.154,-3.158 0.298,-6.347 0.463,-9.504Zm0.463,-27.607l-0.011,-0.02c0.36,-0.114 0.607,-0.453 0.587,-0.834c-0,-0.349 -0.258,-0.648 -0.607,-0.699c-0.463,-0.093 -0.957,-0.165 -1.451,-0.257c-1.81,-0.329 -2.622,-1.193 -2.694,-2.808c-0.093,-1.512 0.936,-2.87 2.417,-3.189c1.501,-0.442 3.116,-0.164 4.381,0.751c0.134,0.124 0.257,0.237 0.443,0.401c-0.587,0.535 -1.101,1.029 -1.636,1.543c-0.617,-0.524 -1.44,-0.74 -2.242,-0.586c-0.463,0.021 -0.833,0.381 -0.864,0.843c0.021,0.535 0.422,0.679 0.864,0.772c0.535,0.092 1.08,0.164 1.615,0.278c1.142,0.154 2.047,1.038 2.221,2.18c0.299,1.255 -0.205,2.561 -1.265,3.302c-1.563,1.121 -5.194,0.915 -6.48,-0.7c0.515,-0.514 1.029,-1.049 1.564,-1.615c0.699,0.556 1.584,0.823 2.479,0.751c0.226,0 0.463,-0.041 0.679,-0.113Zm-23.904,37.193l0,0.01c0.018,0.271 -0.076,0.412 -0.35,0.432l-2.129,0c-0.072,-2.623 -0.165,-5.194 -0.237,-7.796c-0.699,-0 -1.337,-0.052 -1.964,-0c-0.381,0.031 -0.566,-0.062 -0.566,-0.463l0,-1.8c2.479,-0.062 4.937,-0.134 7.539,-0.206c0,0.73 0,1.409 -0.02,2.088c-0.103,0.113 -0.247,0.196 -0.401,0.206c-0.659,0.02 -1.317,-0 -2.016,-0c-0,0.236 -0.021,0.422 -0.021,0.607c0.052,2.108 0.113,4.237 0.165,6.346c-0.01,0.192 -0.01,0.384 -0,0.576Zm7.447,-42.593l-2.603,0c0,-0.679 0,-1.327 0.021,-1.964c0.062,-0.165 0.206,-0.278 0.37,-0.309c0.864,-0.051 1.708,-0.051 2.551,-0.072c1.337,-0.02 2.643,-0.072 3.981,-0.092l0.627,-0l-0,2.273l-2.417,-0c0.072,2.674 0.113,5.266 0.185,7.94l-2.53,0c-0.041,-2.551 -0.113,-5.153 -0.185,-7.776Zm0.072,42.819l-0,0.011l-2.623,-0c-0,-1.132 0.02,-2.253 -0,-3.374c-0.021,-2.057 -0.041,-4.125 -0.093,-6.182c0,-0.422 0.124,-0.586 0.566,-0.566c0.627,0.021 1.255,0 1.985,0c0.051,3.364 0.113,6.717 0.165,10.111Zm-7.427,-37.275l-0.01,0.01c-0.072,-2.386 -0.165,-4.803 -0.278,-7.189c-0.02,-0.36 0.072,-0.473 0.422,-0.473l2.109,-0c0.144,3.363 0.257,6.696 0.401,10.11l-2.531,0c-0.041,-0.771 -0.092,-1.614 -0.113,-2.458Zm-13.176,41.225l0.011,-0c0.535,0.38 1.028,0.73 1.594,1.152c-0.257,0.391 -0.535,0.761 -0.843,1.121c-0.648,0.627 -1.667,0.669 -2.366,0.093c-0.73,-0.474 -0.987,-1.43 -0.586,-2.202c0.318,-0.606 0.699,-1.182 1.141,-1.707c0.566,-0.576 1.451,-0.72 2.171,-0.339c0.905,0.473 1.254,1.584 0.781,2.489c-0.421,-0.288 -0.823,-0.453 -0.771,-1.08c-0.021,-0.165 -0.082,-0.329 -0.196,-0.453c-0.277,-0.308 -0.761,-0.339 -1.069,-0.062c-0.463,0.525 -0.864,1.101 -1.193,1.728c-0.237,0.402 0.02,0.751 0.421,0.936c0.443,0.216 0.772,0.093 1.121,-0.442c-0.216,-0.164 -0.442,-0.35 -0.678,-0.535c0.133,-0.236 0.277,-0.442 0.462,-0.699Zm34.272,5.832c0.607,0.01 1.142,0.401 1.358,0.967c0.236,0.833 0.35,1.697 0.35,2.571c-0.083,0.833 -0.782,1.471 -1.615,1.471c-0.772,0.165 -1.553,-0.278 -1.821,-1.029c-0.216,-0.853 -0.329,-1.728 -0.329,-2.602c0,-0.792 0.915,-1.378 2.057,-1.378Zm0.072,4.104c0.494,-0.093 0.658,-0.422 0.679,-0.957c-0.103,-0.493 -0.195,-1.049 -0.309,-1.615c-0.082,-0.36 -0.411,-0.606 -0.781,-0.596c-0.432,0.02 -0.761,0.38 -0.741,0.802c0.041,0.576 0.124,1.142 0.237,1.708c-0,0.051 0.01,0.092 0.02,0.133c0.103,0.391 0.504,0.628 0.895,0.525Zm-28.656,-9c0.237,0.092 0.371,0.36 0.309,0.607c-0.216,1.563 -0.442,3.137 -0.679,4.752c-0.596,-0.199 -0.871,-0.573 -0.823,-1.121l0,-0.052c-0.37,-0.257 -0.72,-0.535 -1.121,-0.771c-0.154,-0.072 -0.329,-0.083 -0.494,-0.021c-0.514,0.658 -0.936,0.257 -1.45,-0.072c0.864,-0.771 1.708,-1.543 2.551,-2.294c0.35,-0.308 0.699,-0.606 1.029,-0.915c0.164,-0.206 0.452,-0.257 0.678,-0.113Zm-1.028,3.116l-0.01,-0.01c0.102,-0.535 0.195,-0.998 0.288,-1.471c-0.042,-0.02 -0.072,-0.072 -0.093,-0.092c-0.381,0.349 -0.751,0.679 -1.173,1.08l0.988,0.493Zm50.194,-4.793l-0,0.011c-0.062,0.432 0.205,0.843 0.627,0.977c0.71,0.257 1.389,0.607 2.088,0.936c-0.514,0.487 -1.059,0.596 -1.635,0.329c-0.309,-0.134 -0.618,-0.278 -0.988,-0.463c0.041,0.422 0.093,0.751 0.113,1.101c0.062,0.589 -0.226,1.049 -0.864,1.378c-0.051,-0.772 -0.144,-1.492 -0.144,-2.222c0.041,-0.452 -0.247,-0.864 -0.678,-0.987c-0.628,-0.237 -1.245,-0.535 -1.872,-0.844c0.73,-0.751 0.771,-0.751 1.594,-0.329c0.257,0.124 0.494,0.237 0.823,0.401c0.092,-0.864 -0.607,-1.944 0.822,-2.273c0.042,0.679 0.114,1.327 0.114,1.985Zm-30.744,7.838c-0.37,-0.051 -0.771,-0.021 -0.843,0.442c-0.124,0.473 0.277,0.566 0.627,0.659c0.195,0.02 0.381,0.061 0.566,0.113c0.637,0.092 1.121,0.637 1.121,1.285c0.041,0.659 -0.34,1.266 -0.957,1.502c-0.987,0.35 -2.067,0.072 -2.767,-0.699c0.186,-0.185 0.402,-0.371 0.515,-0.463c0.545,0.134 0.987,0.298 1.429,0.37c0.031,0.021 0.072,0.021 0.103,0.021c0.319,0.02 0.597,-0.216 0.617,-0.535c0.042,-0.401 -0.236,-0.535 -0.586,-0.607c-0.257,-0.041 -0.514,-0.113 -0.771,-0.185c-0.504,-0.093 -0.885,-0.504 -0.957,-1.008c-0.113,-0.576 0.113,-1.162 0.586,-1.502c0.906,-0.524 2.058,-0.35 2.767,0.422c-0.277,0.391 -0.607,0.679 -1.1,0.278c-0.103,-0.052 -0.227,-0.093 -0.35,-0.093Zm-10.553,0.257l-0,0.01c0.566,-0.874 1.152,-1.707 1.728,-2.602c0.329,0.093 0.638,0.165 0.987,0.278c-0.092,0.134 -0.133,0.257 -0.205,0.37c-0.844,1.193 -1.687,2.397 -2.51,3.61c-0.165,0.258 -0.298,0.35 -0.607,0.258c-0.288,-0.093 -0.401,-0.206 -0.401,-0.515c-0.031,-1.388 -0.093,-2.746 -0.144,-4.124l-0,-0.679c0.35,0.113 0.658,0.185 1.008,0.278l-0,3.065c0.051,0.031 0.144,0.051 0.144,0.051Zm13.525,-1.008l0,-0.01l3.559,-0c0.031,0.236 0.031,0.494 0.052,0.823c-0.422,0.031 -0.792,0.031 -1.193,0.051l-0,4.053c-0.237,0.02 -0.546,0.051 -0.988,0.072l0,-4.032l-1.378,-0c-0,-0.329 -0.031,-0.587 -0.052,-0.957Zm23.863,-5.564l-0.01,-0.011c-0.381,0.237 -0.73,0.422 -1.101,0.679c0.638,1.173 1.265,2.325 1.924,3.538c-0.299,0.165 -0.556,0.309 -0.885,0.494c-0.658,-1.193 -1.286,-2.345 -1.944,-3.538c-0.37,0.195 -0.72,0.36 -1.121,0.566c-0.165,-0.278 -0.278,-0.515 -0.442,-0.792c1.049,-0.587 2.057,-1.142 3.137,-1.728c0.164,0.277 0.278,0.534 0.442,0.792Zm-42.14,4.721c-0.309,0.795 -0.058,1.357 0.751,1.687c0.257,0.092 0.514,0.185 0.843,0.329c-0.123,0.298 -0.216,0.555 -0.329,0.864c-1.039,-0.391 -2.016,-0.792 -3.024,-1.214c0.607,-1.543 1.224,-3.045 1.852,-4.608c0.329,0.134 0.606,0.226 0.936,0.37c-0.35,0.885 -0.679,1.728 -1.029,2.572Zm21.445,-52.765l-0.01,-0c0,0.113 -0.072,0.226 -0.185,0.277c-0.679,0.515 -1.358,1.008 -2.15,1.595l0,-3.816l2.345,-0c0,0.658 0.021,1.285 0,1.944Zm-35.824,40.432c0.473,-0.092 0.915,-0.164 1.409,-0.236c0.041,0.195 0.062,0.36 0.113,0.565c-0.71,0.144 -1.358,0.278 -2.088,0.422c-0.206,-1.08 -0.401,-2.057 -0.607,-3.137c0.71,-0.144 1.389,-0.278 2.088,-0.422c0.041,0.216 0.062,0.381 0.113,0.587c-0.473,0.102 -0.915,0.195 -1.409,0.308c0.052,0.226 0.093,0.391 0.144,0.628c0.37,-0.072 0.741,-0.114 1.142,-0.186c0.051,0.165 0.092,0.33 0.164,0.535c-0.421,0.093 -0.792,0.185 -1.213,0.278c0.051,0.216 0.092,0.422 0.144,0.658Zm4.258,-1.265l-0.01,-0.01c0.123,0.37 0.01,0.792 -0.288,1.049c-0.576,0.401 -1.337,0.411 -1.924,0.021c0.093,-0.165 0.185,-0.278 0.237,-0.371c0.339,0.021 0.668,0.011 1.008,-0.02c0.123,-0.021 0.216,-0.237 0.308,-0.35c-0.103,-0.113 -0.226,-0.206 -0.37,-0.278c-0.175,-0.02 -0.339,-0.02 -0.514,-0.02c-0.432,0.01 -0.792,-0.309 -0.844,-0.731c-0.113,-0.421 0.093,-0.864 0.494,-1.049c0.484,-0.226 1.039,-0.205 1.502,0.052c-0.113,0.329 -0.227,0.545 -0.628,0.401c-0.164,-0.031 -0.339,-0.01 -0.493,0.072c-0.103,0.082 -0.175,0.195 -0.185,0.329c0.02,0.134 0.123,0.247 0.257,0.278c0.205,0.02 0.411,0.041 0.627,0.02c0.391,-0.031 0.741,0.227 0.823,0.607Zm2.602,-2.458c0.137,0.404 -0.075,0.641 -0.638,0.71c0.103,0.843 0.216,1.686 0.309,2.571c-0.237,0.041 -0.401,0.062 -0.658,0.113c-0.134,-0.884 -0.257,-1.728 -0.371,-2.571c-0.257,0.041 -0.514,0.072 -0.771,0.092c-0.021,-0.205 -0.041,-0.37 -0.093,-0.607c0.772,-0.123 1.492,-0.216 2.222,-0.308Zm42.778,17.907c0.329,-0.113 0.638,-0.236 0.936,-0.35c0.494,0.813 0.679,1.564 -0.206,2.315c-0.236,-0.659 -0.473,-1.286 -0.73,-1.965Zm-41.934,-14.77c-0.021,-0.226 -0.042,-0.442 -0.093,-0.699c0.237,-0.021 0.442,-0.052 0.699,-0.072c0.021,0.236 0.052,0.421 0.072,0.678c-0.236,0.021 -0.442,0.072 -0.678,0.093Zm50.944,-0.329l0,0.02c-0.319,-0.03 -0.679,-0.051 -0.843,-0.401c-0.196,-0.38 -0.154,-0.833 0.092,-1.172c0.031,-0.052 0.072,-0.103 0.114,-0.144c-0.052,-0.216 -0.083,-0.443 -0.093,-0.659c0.072,-0.73 0.463,-0.987 1.286,-0.843c0.102,0.021 0.205,0.062 0.298,0.123c0.422,0.278 0.545,0.834 0.267,1.255c-0.133,0.165 -0.154,0.391 -0.072,0.587c0.062,0.257 0.062,0.514 0,0.771c-0.041,0.257 -0.267,0.442 -0.534,0.442c-0.175,0.021 -0.34,0.021 -0.515,0.021Zm0.021,-1.276l-0.01,-0.01c-0.186,0.021 -0.258,0.165 -0.258,0.36c0.021,0.175 0.175,0.309 0.35,0.309l0.021,-0c0.175,-0.021 0.308,-0.175 0.288,-0.35l-0,-0.021c-0.021,-0.185 -0.206,-0.318 -0.391,-0.288Zm0.257,-1.296l-0.01,0c-0.206,0 -0.278,0.134 -0.278,0.34c0.01,0.154 0.144,0.278 0.309,0.278l0.041,-0c0.154,-0.021 0.267,-0.155 0.246,-0.309c0,-0.175 -0.133,-0.309 -0.308,-0.309Zm2.18,2.006c0.278,0.463 0.35,0.463 0.659,-0.031c-0.072,-0.072 -0.144,-0.205 -0.237,-0.257c-0.226,-0.123 -0.206,-0.308 -0.185,-0.494c0,-0.185 0.144,-0.236 0.309,-0.236c0.144,-0.01 0.257,-0.134 0.257,-0.278c-0.021,-0.103 -0.072,-0.257 -0.165,-0.308c-0.103,-0.052 -0.236,-0.042 -0.329,0.02c-0.195,0.154 -0.463,0.196 -0.699,0.093c-0.093,-0.237 0.01,-0.504 0.236,-0.628c0.093,-0.072 0.196,-0.123 0.309,-0.164c0.535,-0.175 1.121,0.113 1.306,0.658c0.021,0.278 -0.031,0.566 -0.144,0.823c-0.051,0.144 -0.123,0.236 -0.051,0.401c0.051,0.165 0.072,0.339 0.051,0.514c0.021,0.412 -0.267,0.772 -0.679,0.844c-0.37,0.092 -0.771,0.02 -1.08,-0.206c-0.226,-0.175 -0.35,-0.463 -0.308,-0.751c0.02,-0.072 0.113,-0.185 0.164,-0.185c0.175,0.021 0.36,0.062 0.535,0.113c0.031,0 0.051,0.072 0.051,0.072Zm2.994,-1.748l-0,0.01c0.39,-0.124 0.812,0.031 1.049,0.37c0.267,0.309 0.308,0.751 0.092,1.101c-0.349,0.586 -0.771,1.141 -1.172,1.707c-0.196,0.113 -0.432,0.093 -0.607,-0.051c-0.134,-0.165 -0.041,-0.278 0.051,-0.422c0.155,-0.216 0.309,-0.432 0.443,-0.658c-0.052,-0.062 -0.103,-0.113 -0.165,-0.165c-0.442,-0.257 -0.627,-0.792 -0.442,-1.265c0.082,-0.35 0.391,-0.607 0.751,-0.627Zm0.246,1.337c0.186,-0.062 0.309,-0.227 0.309,-0.422l0,-0.062c-0.031,-0.144 -0.175,-0.226 -0.319,-0.195c-0.185,0.01 -0.308,0.164 -0.308,0.35l-0,0.041c0.01,0.171 0.148,0.293 0.318,0.288Zm-8.465,0.72l0,0.01c-0.236,-0.453 0.052,-0.802 0.052,-1.173c-0,-0.401 0.031,-0.802 0.092,-1.193c-0.216,0.062 -0.38,0.134 -0.565,0.206c-0,-0.267 -0.185,-0.525 0.051,-0.73c0.268,-0.319 0.689,-0.473 1.101,-0.371c0.226,0.072 0.226,0.258 0.205,0.422c-0.02,0.237 -0.092,0.463 -0.113,0.7c-0.051,0.606 -0.113,1.213 -0.164,1.82c-0,0.072 -0.052,0.165 -0.072,0.309l-0.587,-0Z" style="fill:#fff;"/>
</svg>
