<?xml version="1.0" encoding="UTF-8" standalone="no"?>
<!DOCTYPE svg PUBLIC "-//W3C//DTD SVG 1.1//EN" "http://www.w3.org/Graphics/SVG/1.1/DTD/svg11.dtd">
<svg width="100%" height="100%" viewBox="0 0 75 48" version="1.1" xmlns="http://www.w3.org/2000/svg" xmlns:xlink="http://www.w3.org/1999/xlink" xml:space="preserve" xmlns:serif="http://www.serif.com/" style="fill-rule:evenodd;clip-rule:evenodd;stroke-linejoin:round;stroke-miterlimit:2;">
    <path d="M0,7.631l0,-5.132c3.955,-1.389 8.247,-2.499 13.519,-2.499l0.033,0c7.332,0 12.768,2.137 18.04,4.197c5.472,2.157 11.13,4.378 19.353,4.384l0.125,0c8.242,0 13.908,-2.216 19.388,-4.375c1.488,-0.581 2.989,-1.17 4.542,-1.715l0,5.131c-0.917,0.352 -1.836,0.719 -2.778,1.089c-5.896,2.312 -12.001,4.703 -21.152,4.703c-0.023,0 -0.124,0 -0.124,0c-9.133,-0.005 -15.23,-2.403 -21.119,-4.712c-5.074,-1.995 -9.513,-3.88 -16.275,-3.88l-0.033,0c-5.517,0 -9.488,1.261 -13.519,2.809Zm0,12.296c3.953,-1.393 8.249,-2.501 13.519,-2.501l0.033,-0c7.332,-0 12.779,2.137 18.04,4.208c5.472,2.156 11.13,4.378 19.353,4.384l0.125,-0c8.242,-0 13.908,-2.216 19.388,-4.375c1.486,-0.585 2.988,-1.177 4.542,-1.724l0,5.13c-0.918,0.352 -1.838,0.718 -2.778,1.087c-5.896,2.324 -12.001,4.704 -21.152,4.704c-0.023,-0 -0.124,-0 -0.124,-0c-9.133,-0.006 -15.23,-2.392 -21.119,-4.713c-5.074,-1.994 -9.557,-3.879 -16.275,-3.879l-0.033,-0c-5.483,-0 -9.477,1.261 -13.519,2.81l0,-5.131Zm0,17.13c3.953,-1.393 8.249,-2.502 13.519,-2.502l0.033,0c7.332,0 12.779,2.137 18.04,4.209c5.472,2.156 11.13,4.377 19.353,4.383l0.125,0c8.242,0 13.908,-2.215 19.388,-4.374c1.486,-0.586 2.988,-1.177 4.542,-1.724l0,5.129c-0.917,0.351 -1.836,0.718 -2.778,1.088c-5.896,2.312 -12.001,4.704 -21.152,4.704c-0.023,-0 -0.124,-0 -0.124,-0c-9.133,-0.006 -15.23,-2.403 -21.119,-4.713c-5.074,-1.995 -9.513,-3.88 -16.275,-3.88l-0.033,0c-5.517,0 -9.488,1.261 -13.519,2.809l0,-5.129Z"/>
</svg>
