<?xml version="1.0" encoding="utf-8"?><svg xmlns="http://www.w3.org/2000/svg" xmlns:xlink="http://www.w3.org/1999/xlink"><symbol viewBox="0 0 32 32" fill-rule="evenodd" clip-rule="evenodd" stroke-linejoin="round" stroke-miterlimit="2" id="algolia" xmlns="http://www.w3.org/2000/svg"><path d="M16 .002C7.262.002.138 7.047.012 15.755c-.128 8.844 7.048 16.173 15.893 16.224a15.88 15.88 0 007.7-1.922.373.373 0 00.069-.608l-1.497-1.327a1.056 1.056 0 00-1.111-.186 12.936 12.936 0 01-5.229 1.026C8.689 28.874 2.915 22.927 3.029 15.78 3.141 8.723 8.917 3.018 16 3.018h12.972v23.057l-7.36-6.539a.543.543 0 00-.795.083 6.029 6.029 0 01-5.244 2.39c-2.965-.205-5.367-2.592-5.589-5.556A6.04 6.04 0 0116 9.956a6.042 6.042 0 016.01 5.501c.024.274.148.529.353.712l1.917 1.699a.375.375 0 00.616-.211c.138-.74.187-1.51.133-2.299-.309-4.502-3.956-8.124-8.459-8.401-5.164-.318-9.481 3.721-9.617 8.784-.134 4.934 3.909 9.188 8.844 9.297a9.006 9.006 0 005.513-1.725l9.616 8.525a.64.64 0 001.063-.478V.607A.606.606 0 0031.383 0H16v.002z" fill-rule="nonzero"/></symbol><symbol viewBox="0 0 100 100" fill-rule="evenodd" clip-rule="evenodd" stroke-linejoin="round" stroke-miterlimit="2" id="arrow-down" xmlns="http://www.w3.org/2000/svg"><path d="M93.619 32.75c2-2 1.9-5.1 0-7.1-2-2-5.1-1.9-7.1 0l-36.4 36.5-36.6-37c-1.9-2-5.1-2-7.1 0-2 1.9-2 5.1 0 7.1l43.7 44.1 43.5-43.6z" fill-rule="nonzero"/></symbol><symbol viewBox="0 0 21 39" fill-rule="evenodd" clip-rule="evenodd" stroke-linejoin="round" stroke-miterlimit="2" id="arrow-left" xmlns="http://www.w3.org/2000/svg"><path d="M19.942-.003c.276 0 .541.106.753.308a1.056 1.056 0 010 1.494L3.007 19.487l17.688 17.698a1.069 1.069 0 010 1.505 1.069 1.069 0 01-1.505 0L-.003 19.497 19.19.305c.212-.212.477-.308.752-.308z"/></symbol><symbol viewBox="0 0 21 39" fill-rule="evenodd" clip-rule="evenodd" stroke-linejoin="round" stroke-miterlimit="2" id="arrow-right" xmlns="http://www.w3.org/2000/svg"><path d="M1.06 39c-.276 0-.541-.106-.753-.307a1.057 1.057 0 010-1.495l17.688-17.687L.307 1.812a1.069 1.069 0 010-1.505 1.069 1.069 0 011.505 0L21.005 19.5 1.812 38.693A1.04 1.04 0 011.06 39z" fill-rule="nonzero"/></symbol><symbol viewBox="0 0 100 100" fill-rule="evenodd" clip-rule="evenodd" stroke-linejoin="round" stroke-miterlimit="2" id="arrow-up" xmlns="http://www.w3.org/2000/svg"><path d="M6.381 67.25c-2 2-1.9 5.1 0 7.1 2 2 5.1 1.9 7.1 0l36.4-36.5 36.6 37c1.9 2 5.1 2 7.1 0 2-1.9 2-5.1 0-7.1l-43.7-44.1-43.5 43.6z" fill-rule="nonzero"/></symbol><symbol viewBox="0 0 39 39" fill-rule="evenodd" clip-rule="evenodd" stroke-linejoin="round" stroke-miterlimit="2" id="beach-alerts" xmlns="http://www.w3.org/2000/svg"><path d="M5.636 5.762a.186.186 0 01-.02-.01l.019-.038.001.048zm0 0c1.103.543 2.112 1.124 3.178 1.55 2.301.839 4.836.898 7.176.156 3.1-.896 6.142-2.027 9.223-3.042a17.582 17.582 0 017.098-1.072c1.989.175 3.881.897 5.48 2.106.175.195.273.448.273.721V25.72c-.507-.312-.936-.585-1.365-.838a11.445 11.445 0 00-7.722-1.248 52.334 52.334 0 00-8.717 2.691 22.398 22.398 0 01-8.131 1.716 10.719 10.719 0 01-6.181-2.145.73.73 0 01-.273-.507 6408.26 6408.26 0 01-.039-19.627zM2.925 0v39H0V0h2.925z"/></symbol><symbol fill-rule="evenodd" clip-rule="evenodd" stroke-linejoin="round" stroke-miterlimit="2" viewBox="0 0 12 18" id="breadcrumb-arrow" xmlns="http://www.w3.org/2000/svg"><path d="M.5 15.5l2.329 2.328 8.914-8.914L2.829 0 .5 2.5l6.587 6.414L.5 15.5z" fill-rule="nonzero"/></symbol><symbol viewBox="0 0 80.5 77.5" id="calendar" xmlns="http://www.w3.org/2000/svg"><path d="M71.7 19.597H8.715V7H71.7v12.597zM8.715 54.398h12.437v12.438H8.715zm0-15.544h12.437V51.29H8.715zm0-15.546h12.437v12.437H8.715zm16.847 31.09h12.437v12.438H25.562zm0-15.544h12.437V51.29H25.562zm0-15.546h12.437v12.437H25.562zM42.416 54.398H54.85v12.438H42.416zm0-15.544H54.85V51.29H42.416zm0-15.546H54.85v12.437H42.416zM59.264 54.398h12.437v12.438H59.264zm0-15.544h12.437V51.29H59.264zm0-15.546h12.437v12.437H59.264z"/></symbol><symbol viewBox="0 0 32 32" id="clear-x" xmlns="http://www.w3.org/2000/svg"><path d="M16 0C7.164 0 0 7.164 0 16s7.164 16 16 16 16-7.164 16-16S24.836 0 16 0zm7.914 21.086l-2.828 2.828L16 18.828l-5.086 5.086-2.828-2.828L13.172 16l-5.086-5.086 2.828-2.828L16 13.172l5.086-5.086 2.828 2.828L18.828 16l5.086 5.086z"/></symbol><symbol viewBox="0 0 37 29" fill-rule="evenodd" clip-rule="evenodd" stroke-linejoin="round" stroke-miterlimit="2" id="double-chevron" xmlns="http://www.w3.org/2000/svg"><path d="M0 4l10.5 10.5L0 25l4 4 14.5-14.5L4 0 0 4zm18.5 0L29 14.5 18.5 25l4 4L37 14.5 22.5 0l-4 4z"/></symbol><symbol viewBox="0 0 512 512" id="edit" xmlns="http://www.w3.org/2000/svg"><path d="M432 0c44.182 0 80 35.817 80 80 0 18.01-5.955 34.629-16 48l-32 32L352 48l32-32c13.371-10.045 29.989-16 48-16zM32 368L0 512l144-32 296-296L328 72 32 368zm325.789-186.211l-224 224-27.578-27.578 224-224 27.578 27.578z"/></symbol><symbol viewBox="0 0 255 201" id="email" xmlns="http://www.w3.org/2000/svg"><g fill-rule="evenodd"><path d="M232.144 200.376c5.73 0 10.695-1.893 14.916-5.63l-72.22-72.253a1408.856 1408.856 0 00-4.998 3.596c-5.405 3.984-9.79 7.093-13.16 9.32-3.367 2.232-7.848 4.508-13.441 6.831-5.597 2.327-10.81 3.486-15.648 3.486h-.284c-4.837 0-10.052-1.159-15.648-3.486-5.597-2.323-10.078-4.598-13.442-6.831-3.368-2.227-7.752-5.336-13.16-9.32a646.46 646.46 0 00-4.983-3.615L7.842 194.746c4.22 3.737 9.188 5.63 14.918 5.63h209.383zM14.368 76.996C8.964 73.391 4.172 69.263 0 64.613V174.54l63.653-63.68c-12.734-8.895-29.141-20.17-49.285-33.864zm226.313 0c-19.375 13.12-35.842 24.414-49.403 33.889l63.627 63.658V64.613c-4.08 4.557-8.82 8.682-14.224 12.383z"/><path d="M232.144.006H22.76c-7.304 0-12.92 2.468-16.855 7.399C1.97 12.337.003 18.505.003 25.904c0 5.975 2.609 12.45 7.823 19.426 5.214 6.973 10.762 12.45 16.642 16.435 3.223 2.277 12.944 9.039 29.162 20.279 8.754 6.07 16.368 11.36 22.91 15.925a4168.676 4168.676 0 0114.357 10.047c.455.32 1.172.833 2.124 1.514 1.025.736 2.322 1.671 3.923 2.827 3.082 2.23 5.641 4.033 7.68 5.41 2.037 1.377 4.504 2.916 7.398 4.624 2.893 1.706 5.62 2.99 8.18 3.843 2.56.852 4.931 1.28 7.112 1.28h.283c2.18 0 4.551-.428 7.113-1.28 2.56-.854 5.285-2.134 8.179-3.844 2.891-1.708 5.355-3.25 7.398-4.623 2.039-1.377 4.599-3.18 7.681-5.41a890.116 890.116 0 013.92-2.825c.951-.683 1.668-1.193 2.127-1.516a130183.015 130183.015 0 0166.571-46.25c6.922-4.838 12.705-10.675 17.353-17.504 4.64-6.828 6.965-13.991 6.965-21.486 0-6.262-2.255-11.62-6.756-16.083-4.505-4.457-9.841-6.687-16.005-6.687z"/></g></symbol><symbol viewBox="0 0 165 113" fill-rule="evenodd" clip-rule="evenodd" stroke-linejoin="round" stroke-miterlimit="2" id="email-alt" xmlns="http://www.w3.org/2000/svg"><path d="M7.771 112.226c16.175-15.953 32.178-31.73 48.011-47.335a1.944 1.944 0 012.699-.026c7.603 7.167 15.142 14.27 22.514 21.191a1.94 1.94 0 002.659-.004l22.097-20.746a1.943 1.943 0 012.675.01c15.991 15.327 32.232 30.914 48.477 46.474a.866.866 0 00-.277.436H7.771l-.004.004v-.004h.004zm40.59-55.442L3.305 100.863C2.074 102.068 0 101.195 0 99.472V10.413C0 8.68 2.093 7.812 3.32 9.036l45.055 44.981c.766.765.76 2.01-.014 2.767zm68.113-2.977l44.851-44.791c1.225-1.224 3.32-.355 3.32 1.377v88.713c0 1.724-2.075 2.596-3.307 1.39l-44.85-43.922a1.946 1.946 0 01-.014-2.767zM13.835 0h136.979c1.735 0 2.602 2.098 1.374 3.323L83.696 71.621a1.946 1.946 0 01-2.748 0C58.137 48.866 35.399 26.166 12.466 3.326 11.236 2.102 12.101 0 13.835 0z" fill-rule="nonzero"/></symbol><symbol viewBox="0 0 32 32" id="enlarge" xmlns="http://www.w3.org/2000/svg"><path d="M32 0H19l5 5-6 6 3 3 6-6 5 5zm0 32V19l-5 5-6-6-3 3 6 6-5 5zM0 32h13l-5-5 6-6-3-3-6 6-5-5zM0 0v13l5-5 6 6 3-3-6-6 5-5z"/></symbol><symbol viewBox="0 0 15 16" fill-rule="evenodd" clip-rule="evenodd" stroke-linejoin="round" stroke-miterlimit="2" id="ex" xmlns="http://www.w3.org/2000/svg"><path d="M6.094 7.5L.291 1.698A.995.995 0 011.697.291L7.5 6.094 13.303.291a.995.995 0 011.406 1.406L8.906 7.5l5.803 5.803a.995.995 0 01-1.406 1.406L7.5 8.906l-5.803 5.803a.995.995 0 01-1.406-1.406L6.094 7.5z"/></symbol><symbol viewBox="0 0 14 24" fill-rule="evenodd" clip-rule="evenodd" stroke-linejoin="round" stroke-miterlimit="2" id="facebook" xmlns="http://www.w3.org/2000/svg"><path d="M12.511 0H9.399a5.52 5.52 0 00-.315-.009c-3.001 0-5.471 2.469-5.471 5.471 0 .148.006.296.019.444V8.63H.49a.492.492 0 00-.49.489v3.945c0 .269.221.49.49.49h3.134v9.956c0 .269.221.49.49.49h4.093a.492.492 0 00.489-.49v-9.956h3.666a.492.492 0 00.489-.49V9.119a.492.492 0 00-.489-.489H8.696V6.321c0-1.11.266-1.673 1.713-1.673h2.1c.269 0 .49-.221.49-.49V.49a.492.492 0 00-.488-.49z" fill-rule="nonzero"/></symbol><symbol viewBox="0 0 512 512" id="facebook-circle" xmlns="http://www.w3.org/2000/svg"><path d="M256.5-.5C181.4-.5 113.8 31.8 67 83.4 25.4 128.9 0 189.5 0 256c0 141.4 114.6 256 256 256 75.1 0 142.7-32.4 189.5-83.9 41.6-45.5 67-106.1 67-172.6 0-141.4-114.7-256-256-256zm79.8 153.6c0 3.4-2.7 6.1-6.1 6.1h-26.3c-18.1 0-21.5 7.1-21.5 21v29h45.9c1.6 0 3.2.6 4.3 1.8s1.8 2.7 1.8 4.3v49.5c0 3.4-2.7 6.1-6.1 6.1h-45.9v125c0 3.4-2.7 6.1-6.1 6.1H225c-3.4 0-6.1-2.7-6.1-6.1V271h-39.3c-3.4 0-6.1-2.7-6.1-6.1v-49.5c0-3.4 2.7-6.1 6.1-6.1h39.3V175c0-45 28.4-74.1 72.3-74.1l39.1.1c3.4 0 6.1 2.8 6.1 6.1v46z"/></symbol><symbol viewBox="0 0 129 129" fill-rule="evenodd" clip-rule="evenodd" stroke-linejoin="round" stroke-miterlimit="2" id="facebook-square" xmlns="http://www.w3.org/2000/svg"><path d="M110.986 0H17.285C7.739 0 0 7.739 0 17.285v93.701c0 9.547 7.739 17.285 17.285 17.285h46.213l.079-45.837H51.668a2.81 2.81 0 01-2.81-2.799l-.057-14.775a2.81 2.81 0 012.81-2.82h11.887V47.763c0-16.568 10.119-25.59 24.898-25.59h12.128a2.81 2.81 0 012.81 2.81v12.459a2.81 2.81 0 01-2.808 2.81l-7.443.003c-8.037 0-9.594 3.82-9.594 9.425v12.36h17.661a2.81 2.81 0 012.791 3.14l-1.752 14.776a2.809 2.809 0 01-2.79 2.479H83.568l-.079 45.837h27.497c9.547 0 17.285-7.738 17.285-17.285V17.285C128.271 7.739 120.532 0 110.986 0" fill-rule="nonzero"/></symbol><symbol viewBox="0 0 24 28" id="file-pdf" xmlns="http://www.w3.org/2000/svg"><path d="M22.937 5.938q.438.438.75 1.188T24 8.501v18q0 .625-.438 1.062t-1.062.438h-21q-.625 0-1.062-.438T0 26.501v-25Q0 .876.438.439T1.5.001h14q.625 0 1.375.313t1.188.75zM16 2.125V8h5.875q-.156-.453-.344-.641L16.64 2.468q-.187-.187-.641-.344zM22 26V10h-6.5q-.625 0-1.062-.438T14 8.5V2H2v24h20zm-8.031-9.266q.516.406 1.312.875.922-.109 1.828-.109 2.297 0 2.766.766.25.344.031.812 0 .016-.016.031l-.031.031v.016q-.094.594-1.109.594-.75 0-1.797-.313t-2.031-.828q-3.453.375-6.125 1.297Q6.406 24 5.016 24q-.234 0-.438-.109l-.375-.187q-.016-.016-.094-.078-.156-.156-.094-.562.141-.625.875-1.43t2.063-1.508q.219-.141.359.094.031.031.031.063.812-1.328 1.672-3.078 1.062-2.125 1.625-4.094-.375-1.281-.477-2.492t.102-1.992q.172-.625.656-.625h.344q.359 0 .547.234.281.328.141 1.062-.031.094-.063.125.016.047.016.125v.469q-.031 1.922-.219 3 .859 2.562 2.281 3.719zm-9 6.422q.812-.375 2.141-2.469-.797.625-1.367 1.313t-.773 1.156zm6.219-14.375q-.234.656-.031 2.063.016-.109.109-.688 0-.047.109-.672.016-.063.063-.125-.016-.016-.016-.031t-.008-.023-.008-.023q-.016-.344-.203-.562 0 .016-.016.031v.031zM9.25 19.109q2.109-.844 4.438-1.266-.031-.016-.203-.148t-.25-.211q-1.188-1.047-1.984-2.75-.422 1.344-1.297 3.078-.469.875-.703 1.297zm10.094-.25q-.375-.375-2.188-.375 1.188.438 1.937.438.219 0 .281-.016 0-.016-.031-.047z"/></symbol><symbol viewBox="0 0 32 32" id="flickr" xmlns="http://www.w3.org/2000/svg"><path d="M29 0H3C1.35 0 0 1.35 0 3v26c0 1.65 1.35 3 3 3h26c1.65 0 3-1.35 3-3V3c0-1.65-1.35-3-3-3zM9 21c-2.763 0-5-2.238-5-5s2.237-5 5-5 5 2.238 5 5-2.238 5-5 5zm14 0c-2.762 0-5-2.238-5-5s2.238-5 5-5 5 2.238 5 5-2.238 5-5 5z"/></symbol><symbol viewBox="0 0 512 512" id="flickr-circle" xmlns="http://www.w3.org/2000/svg"><path d="M121.5-1392.5c-4 20.8-8.8 40.8-23.2 51.2-4.4-31.5 6.5-55.1 11.6-80.2-8.7-14.6 1-43.9 19.3-36.7 22.5 8.9-19.5 54.2 8.7 59.9 29.4 5.9 41.4-51 23.2-69.5-26.3-26.7-76.7-.6-70.5 37.7 1.5 9.4 11.2 12.2 3.9 25.1-16.9-3.7-21.9-17-21.2-34.8 1-29 26.1-49.3 51.2-52.2 31.8-3.6 61.6 11.7 65.7 41.5 4.6 33.7-14.3 70.2-48.3 67.6-9.4-.7-13.2-5.3-20.4-9.6z" fill="#fff"/><path d="M256.4.8C115 .8.4 115.4.4 256.8s114.6 256 256 256 256-114.6 256-256S397.8.8 256.4.8zM178.6 316c-33.1 0-59.9-26.8-59.9-59.9 0-33.1 26.8-59.9 59.9-59.9 33.1 0 59.9 26.8 59.9 59.9 0 33.1-26.8 59.9-59.9 59.9zm157.3 0c-33.1 0-59.9-26.8-59.9-59.9 0-33.1 26.8-59.9 59.9-59.9 33.1 0 59.9 26.8 59.9 59.9 0 33.1-26.8 59.9-59.9 59.9z"/></symbol><symbol viewBox="-0.2 -0.09 448.2 512.09" id="food" xmlns="http://www.w3.org/2000/svg"><!--! Font Awesome Pro 6.1.2 by @fontawesome - https://fontawesome.com License - https://fontawesome.com/license (Commercial License) Copyright 2022 Fonticons, Inc.--><path d="M221.6 148.7c3.1 12.6 3.2 25.8.5 38.5-2.8 11.9-8.5 24.7-16.5 34.9-14.5 16.5-32.6 27-54.5 32V472c0 10.6-3.3 20.8-10.8 28.3-7.5 7.5-17.7 11.7-29.2 11.7-9.7 0-19.88-4.2-27.39-11.7-7.5-7.5-12.61-17.7-12.61-28.3V254.1c-20.14-4-39.14-15.2-52.8-31.7a84.89 84.89 0 01-16.545-34.9 85.607 85.607 0 01.548-38.7L32.51 12.45c.85-3.852 3.1-7.253 6.31-9.55C42.02.602 45.97-.43 49.89.003c3.93.427 7.57 2.3 10.21 5.256A15.99 15.99 0 0164.16 16v144h17.37L98.62 11.91c.4-3.275 1.98-6.289 4.48-8.476 2.4-2.186 5.6-3.394 8-3.394 4.2 0 7.4 1.208 9.8 3.394 2.5 2.187 3.2 5.201 4.5 8.476L142.5 160h16.6V16c0-3.93 2.3-7.732 4-10.683 3.5-2.951 7.1-4.843 11-5.314 3.9-.43 7 .616 11.1 2.933 3.2 2.317 5.4 5.741 6.3 9.614l30.1 136.15zM448 472c0 10.6-4.2 20.8-11.7 28.3-7.5 7.5-17.7 11.7-28.3 11.7-10.6 0-20.8-4.2-28.3-11.7-7.5-7.5-11.7-17.7-11.7-28.3V352h-16.8c-8.4 0-16.8-1.7-24.6-4.9-7.7-3.3-14.8-8-20.8-14-5.9-6-10.6-13.1-14.7-20.9-2.3-7.8-3.9-16.2-3.9-24.6l-.1-113.8c.9-36.9 12-73 32.7-103.52 20.7-30.57 50-54.23 84.3-67.941 4-1.938 10.1-2.66 15.3-2.1 5.2.56 10.2 2.381 14.5 5.307 4.3 2.926 7.9 6.864 10.3 11.484 2.5 4.61 2.9 9.75 3.8 14.97v440z"/></symbol><symbol viewBox="0 0 24 28" id="gear" xmlns="http://www.w3.org/2000/svg"><path d="M16 14q0-1.656-1.172-2.828T12 10t-2.828 1.172T8 14t1.172 2.828T12 18t2.828-1.172T16 14zm8-1.703v3.469q0 .187-.125.359t-.313.203l-2.891.438q-.297.844-.609 1.422.547.781 1.672 2.156.156.187.156.391t-.141.359q-.422.578-1.547 1.687t-1.469 1.109q-.187 0-.406-.141l-2.156-1.687q-.688.359-1.422.594-.25 2.125-.453 2.906-.109.438-.562.438h-3.469q-.219 0-.383-.133t-.18-.336l-.438-2.875q-.766-.25-1.406-.578L5.655 23.75q-.156.141-.391.141-.219 0-.391-.172-1.969-1.781-2.578-2.625-.109-.156-.109-.359 0-.187.125-.359.234-.328.797-1.039t.844-1.102q-.422-.781-.641-1.547l-2.859-.422q-.203-.031-.328-.195t-.125-.367v-3.469q0-.187.125-.359t.297-.203l2.906-.438q.219-.719.609-1.437-.625-.891-1.672-2.156-.156-.187-.156-.375 0-.156.141-.359.406-.562 1.539-1.68t1.477-1.117q.203 0 .406.156l2.156 1.672q.688-.359 1.422-.594.25-2.125.453-2.906.109-.437.562-.437h3.469q.219 0 .383.133t.18.336l.438 2.875q.766.25 1.406.578l2.219-1.672q.141-.141.375-.141.203 0 .391.156 2.016 1.859 2.578 2.656.109.125.109.344 0 .187-.125.359-.234.328-.797 1.039t-.844 1.102q.406.781.641 1.531l2.859.438q.203.031.328.195t.125.367z"/></symbol><symbol viewBox="0 0 50 50" fill-rule="evenodd" clip-rule="evenodd" stroke-linejoin="round" stroke-miterlimit="2" id="google" xmlns="http://www.w3.org/2000/svg"><path d="M2.687 36.145a22.867 22.867 0 01-2.453-7.897 24.777 24.777 0 012.102-13.785c.117-.234.257-.468.374-.701l.003.002.008-.017a.106.106 0 00-.011-.009l-.023.024a20.723 20.723 0 014.159-5.958C16.005-1.869 31.145-2.64 41.238 6.051c.374.328.468.514.07.912-2.102 2.056-4.158 4.135-6.215 6.191-.21.21-.35.467-.724.117-5.584-4.836-13.925-4.65-19.299.421a15.873 15.873 0 00-4.135 6.331l-.011-.007-.06.153a15.855 15.855 0 00-.086 9.418l.005-.004.104.331a16.823 16.823 0 003.015 5.109c3.224 3.785 8.154 5.655 13.084 5.024a15.688 15.688 0 006.532-2.228l.179-.127-.005-.005a12.594 12.594 0 003.901-4.603 13.28 13.28 0 00.842-2.336c.163-.538.116-.748-.561-.748-4.019.023-8.061 0-12.08 0-.576 0-.864-.296-.864-.888v-8.177c0-.538.093-.725.677-.725 7.43.024 14.86.024 22.267 0 .397 0 .654.024.724.514a27.301 27.301 0 01-3.224 18.435 18.704 18.704 0 01-3.683 4.522l-.172.18.023.018-.027-.014-.019.019.023.018a20.689 20.689 0 01-9.346 5.117 25.093 25.093 0 01-22.874-4.626 23.2 23.2 0 01-6.612-8.248z"/></symbol><symbol viewBox="0 0 42 31" fill-rule="evenodd" clip-rule="evenodd" stroke-linejoin="round" stroke-miterlimit="2" id="hamburger" xmlns="http://www.w3.org/2000/svg"><path d="M32.675 9.175c-4.151 0-8.196-1.532-11.937-2.957-6.539-2.477-12.186-4.615-17.798.249a1.778 1.778 0 01-2.512-.178 1.777 1.777 0 01.178-2.512C7.839-2.476 15.357.374 22.003 2.886c5.986 2.263 11.634 4.419 17.192.748a1.785 1.785 0 012.477.499 1.8 1.8 0 01-.499 2.477c-2.851 1.888-5.683 2.565-8.48 2.565h-.018zm0 10.904c-4.151 0-8.196-1.532-11.937-2.958-6.539-2.476-12.186-4.614-17.798.25a1.779 1.779 0 01-2.512-.178 1.778 1.778 0 01.178-2.513c7.215-6.253 14.751-3.402 21.397-.873 5.986 2.263 11.634 4.419 17.192.749a1.784 1.784 0 012.477.499 1.8 1.8 0 01-.499 2.476c-2.851 1.889-5.683 2.566-8.48 2.566l-.018-.018zm0 10.921c-4.151 0-8.196-1.532-11.937-2.957-6.539-2.477-12.186-4.615-17.798.249a1.779 1.779 0 01-2.512-.178 1.777 1.777 0 01.178-2.512c7.215-6.254 14.751-3.403 21.397-.873 5.986 2.262 11.634 4.418 17.192.748a1.8 1.8 0 012.477.499 1.8 1.8 0 01-.499 2.476c-2.851 1.889-5.683 2.566-8.48 2.566L32.675 31z"/></symbol><symbol viewBox="0 0 225 164" fill-rule="evenodd" clip-rule="evenodd" stroke-linejoin="round" stroke-miterlimit="2" id="hotel" xmlns="http://www.w3.org/2000/svg"><path d="M184.5 61.95V0H177v15.075H47.7V0h-7.5v61.95L0 113.4v49.725h7.5v-16.35h209.85v16.35h7.5V113.4L184.5 61.95zM47.7 22.5h129.375v23.4c-8.1-4.575-19.35-6.825-30.45-6.825-12.975 0-26.1 3.075-34.2 9.3-8.1-6.225-21.225-9.3-34.2-9.3-11.175 0-22.425 2.25-30.45 6.825V22.5H47.7zm129.375 32.4v4.5H116.1v-4.5c6.45-5.625 18.45-8.4 30.45-8.4 12.075 0 24 2.85 30.525 8.4zM47.7 54.9c6.45-5.625 18.45-8.4 30.45-8.4 12.075 0 24 2.775 30.45 8.4v4.5H47.625v-4.5h.075zm-1.95 12h133.275l34.425 43.95H11.325L45.75 66.9zm171.525 72.375H7.425v-20.85h209.85v20.85z"/></symbol><symbol viewBox="0 0 32 32" id="icon-placeholder" xmlns="http://www.w3.org/2000/svg"><path d="M29 13c-.888 0-1.686.386-2.236 1h-5.936l4.197-4.197a3 3 0 10-2.829-2.829l-4.197 4.197V5.235a3 3 0 10-4 0v5.936L9.802 6.974a3 3 0 10-2.829 2.829L11.17 14H5.234a3 3 0 100 4h5.936l-4.197 4.197a3 3 0 102.829 2.829l4.197-4.197v5.936a3 3 0 104-.001v-5.936l4.197 4.197a3 3 0 102.829-2.829l-4.197-4.197h5.936a3 3 0 102.235-5z"/></symbol><symbol viewBox="0 0 612 612" id="imap-point" xmlns="http://www.w3.org/2000/svg"><path d="M516.316 337.52l94.233 193.581c3.832 7.873-.196 14.314-8.952 14.314H10.402c-8.756 0-12.785-6.441-8.952-14.314L95.684 337.52c1.499-3.079 5.528-5.599 8.952-5.599h80.801c2.49 0 5.853 1.559 7.483 3.442 5.482 6.335 11.066 12.524 16.634 18.65 5.288 5.815 10.604 11.706 15.878 17.735h-95.891c-3.425 0-7.454 2.519-8.952 5.599L58.163 505.589h495.67l-62.421-128.242c-1.498-3.08-5.527-5.599-8.953-5.599h-96.108c5.273-6.029 10.591-11.92 15.879-17.735 5.585-6.144 11.2-12.321 16.695-18.658 1.628-1.878 4.984-3.434 7.47-3.434h80.971c3.423 0 7.451 2.518 8.95 5.599zm-71.775-132.292c0 105.776-88.058 125.614-129.472 227.265-3.365 8.26-14.994 8.218-18.36-.04-37.359-91.651-112.638-116.784-127.041-198.432-14.181-80.379 41.471-159.115 122.729-166.796 82.64-7.812 152.144 56.979 152.144 138.003zm-65.427 0c0-40.436-32.779-73.216-73.216-73.216s-73.216 32.78-73.216 73.216c0 40.437 32.779 73.216 73.216 73.216s73.216-32.779 73.216-73.216z"/></symbol><symbol viewBox="0 0 512 512" id="instagram" xmlns="http://www.w3.org/2000/svg"><path d="M256.1 56.8c65.2 0 72.9.2 98.6 1.4 23.8 1.1 36.7 5.1 45.3 8.4 11.4 4.4 19.5 9.7 28.1 18.3 8.5 8.5 13.8 16.7 18.3 28.1 3.3 8.6 7.3 21.5 8.4 45.3 1.2 25.7 1.4 33.5 1.4 98.6s-.2 72.9-1.4 98.6c-1.1 23.8-5.1 36.7-8.4 45.3-4.4 11.4-9.7 19.5-18.3 28.1-8.5 8.5-16.7 13.8-28.1 18.3-8.6 3.3-21.5 7.3-45.3 8.4-25.7 1.2-33.4 1.4-98.6 1.4s-72.9-.2-98.6-1.4c-23.8-1.1-36.7-5.1-45.3-8.4-11.4-4.4-19.5-9.7-28.1-18.3-8.5-8.5-13.8-16.7-18.3-28.1-3.3-8.6-7.3-21.5-8.4-45.3-1.2-25.7-1.4-33.5-1.4-98.6s.2-72.9 1.4-98.6c1.1-23.8 5.1-36.7 8.4-45.3 4.4-11.4 9.7-19.5 18.3-28.1 8.5-8.5 16.7-13.8 28.1-18.3 8.6-3.3 21.5-7.3 45.3-8.4 25.7-1.2 33.5-1.4 98.6-1.4m0-44c-66.3 0-74.6.3-100.6 1.5s-43.7 5.3-59.2 11.3c-16 6.2-29.7 14.6-43.2 28.1C39.5 67.3 31.1 81 24.9 97c-6 15.5-10.2 33.3-11.3 59.2-1.2 26-1.5 34.3-1.5 100.6s.3 74.6 1.5 100.6 5.3 43.7 11.3 59.2c6.2 16 14.6 29.7 28.1 43.2 13.6 13.6 27.2 21.9 43.2 28.1 15.5 6 33.3 10.2 59.2 11.3 26 1.2 34.3 1.5 100.6 1.5s74.6-.3 100.6-1.5 43.7-5.3 59.2-11.3c16-6.2 29.7-14.6 43.2-28.1 13.6-13.6 21.9-27.2 28.1-43.2 6-15.5 10.2-33.3 11.3-59.2 1.2-26 1.5-34.3 1.5-100.6s-.3-74.6-1.5-100.6-5.3-43.7-11.3-59.2c-6.2-16-14.6-29.7-28.1-43.2-13.3-13.6-27-21.9-43-28.2-15.5-6-33.3-10.2-59.2-11.3-26.1-1.2-34.4-1.5-100.7-1.5z"/><path d="M256.1 131.5c-69.2 0-125.3 56.1-125.3 125.3s56.1 125.3 125.3 125.3S381.4 326 381.4 256.8s-56.1-125.3-125.3-125.3zm0 206.7c-44.9 0-81.4-36.4-81.4-81.4s36.4-81.4 81.4-81.4 81.4 36.4 81.4 81.4-36.4 81.4-81.4 81.4z"/><circle cx="386.4" cy="126.6" r="29.3"/></symbol><symbol viewBox="0 0 512 512" id="instagram-circle" xmlns="http://www.w3.org/2000/svg"><path d="M305 256c0 27.1-21.9 49-49 49s-49-21.9-49-49 21.9-49 49-49 49 21.9 49 49z"/><path d="M370.6 169.3c-2.4-6.4-6.1-12.2-11-16.9-4.7-4.9-10.5-8.6-16.9-11-5.2-2-13-4.4-27.3-5.1-15.5-.7-20.2-.9-59.4-.9-39.3 0-43.9.1-59.4.9-14.3.7-22.1 3.1-27.3 5.1-6.4 2.4-12.2 6.1-16.9 11-4.9 4.7-8.6 10.5-11 16.9-2 5.2-4.4 13-5.1 27.3-.7 15.5-.9 20.1-.9 59.4 0 39.2.2 43.9.9 59.4.7 14.3 3 22.1 5.1 27.3 2.4 6.4 6.1 12.2 11 16.9 4.7 4.9 10.5 8.6 16.9 11 5.2 2 13 4.4 27.3 5.1 15.5.7 20.1.9 59.4.9s43.9-.1 59.4-.9c14.3-.7 22.1-3 27.3-5.1 12.8-4.9 23-15.1 27.9-27.9 2-5.2 4.4-13 5.1-27.3.7-15.5.9-20.2.9-59.4 0-39.3-.1-43.9-.9-59.4-.7-14.3-3.1-22.1-5.1-27.3zM256 331.5c-41.7 0-75.5-33.8-75.5-75.5s33.8-75.5 75.5-75.5 75.5 33.8 75.5 75.5-33.8 75.5-75.5 75.5zm78.5-136.3c-9.7 0-17.6-7.9-17.6-17.6s7.9-17.6 17.6-17.6 17.6 7.9 17.6 17.6c0 9.7-7.9 17.6-17.6 17.6z"/><path d="M256 0C114.6 0 0 114.6 0 256s114.6 256 256 256 256-114.6 256-256S397.4 0 256 0zm146.1 316.6c-.7 15.6-3.2 26.3-6.8 35.7-7.6 19.7-23.2 35.4-43 43-9.3 3.6-20 6.1-35.7 6.8-15.7.7-20.7.9-60.6.9-39.9 0-44.9-.2-60.6-.9-15.6-.7-26.3-3.2-35.7-6.8-9.8-3.7-18.7-9.5-26-17-7.5-7.3-13.3-16.2-17-26-3.6-9.3-6.1-20-6.8-35.7-.7-15.7-.9-20.7-.9-60.6s.2-44.9.9-60.6c.7-15.6 3.2-26.3 6.8-35.7 3.7-9.8 9.5-18.7 17-26 7.3-7.5 16.2-13.3 26-17 9.4-3.6 20-6.1 35.7-6.8 15.7-.7 20.7-.9 60.6-.9s44.9.2 60.6.9c15.6.7 26.3 3.2 35.7 6.8 9.8 3.7 18.7 9.5 26 17 7.5 7.3 13.3 16.2 17 26 3.6 9.4 6.1 20 6.8 35.7.7 15.7.9 20.7.9 60.6s-.2 44.9-.9 60.6z"/></symbol><symbol viewBox="0 0 32 32" id="link" xmlns="http://www.w3.org/2000/svg"><path d="M13.757 19.868a1.62 1.62 0 01-1.149-.476c-2.973-2.973-2.973-7.81 0-10.783l6-6C20.048 1.169 21.963.376 24 .376s3.951.793 5.392 2.233c2.973 2.973 2.973 7.81 0 10.783l-2.743 2.743a1.624 1.624 0 11-2.298-2.298l2.743-2.743a4.38 4.38 0 000-6.187c-.826-.826-1.925-1.281-3.094-1.281s-2.267.455-3.094 1.281l-6 6a4.38 4.38 0 000 6.187 1.624 1.624 0 01-1.149 2.774z"/><path d="M8 31.625a7.575 7.575 0 01-5.392-2.233c-2.973-2.973-2.973-7.81 0-10.783l2.743-2.743a1.624 1.624 0 112.298 2.298l-2.743 2.743a4.38 4.38 0 000 6.187c.826.826 1.925 1.281 3.094 1.281s2.267-.455 3.094-1.281l6-6a4.38 4.38 0 000-6.187 1.624 1.624 0 112.298-2.298c2.973 2.973 2.973 7.81 0 10.783l-6 6A7.575 7.575 0 018 31.625z"/></symbol><symbol viewBox="0 0 28 28" id="link-external" xmlns="http://www.w3.org/2000/svg"><path d="M22 14.5v5q0 1.859-1.32 3.18T17.5 24h-13q-1.859 0-3.18-1.32T0 19.5v-13q0-1.859 1.32-3.18T4.5 2h11q.219 0 .359.141T16 2.5v1q0 .219-.141.359T15.5 4h-11q-1.031 0-1.766.734T2 6.5v13q0 1.031.734 1.766T4.5 22h13q1.031 0 1.766-.734T20 19.5v-5q0-.219.141-.359T20.5 14h1q.219 0 .359.141T22 14.5zM28 1v8q0 .406-.297.703T27 10t-.703-.297l-2.75-2.75L13.36 17.14q-.156.156-.359.156t-.359-.156l-1.781-1.781q-.156-.156-.156-.359t.156-.359L21.048 4.454l-2.75-2.75q-.297-.297-.297-.703t.297-.703.703-.297h8q.406 0 .703.297t.297.703z"/></symbol><symbol viewBox="0 0 24 28" id="linkedin" xmlns="http://www.w3.org/2000/svg"><path d="M5.453 9.766V25.25H.297V9.766h5.156zm.328-4.782q.016 1.141-.789 1.906t-2.117.766h-.031q-1.281 0-2.063-.766T0 4.984Q0 3.828.805 3.07t2.102-.758 2.078.758.797 1.914zM24 16.375v8.875h-5.141v-8.281q0-1.641-.633-2.57t-1.977-.93q-.984 0-1.648.539t-.992 1.336q-.172.469-.172 1.266v8.641H8.296q.031-6.234.031-10.109t-.016-4.625l-.016-.75h5.141v2.25h-.031q.313-.5.641-.875t.883-.812 1.359-.68 1.789-.242q2.672 0 4.297 1.773t1.625 5.195z"/></symbol><symbol viewBox="0 0 512 512" fill-rule="evenodd" clip-rule="evenodd" stroke-linecap="round" stroke-linejoin="round" stroke-miterlimit="1.5" id="linkedin-circle" xmlns="http://www.w3.org/2000/svg"><path d="M256 0c141.29 0 256 114.71 256 256 0 141.29-114.71 256-256 256C114.71 512 0 397.29 0 256 0 114.71 114.71 0 256 0zm18.849 232.194v-28.889h-67.481l.21 9.845c.14 6.563.21 26.799.21 60.708s-.136 78.14-.407 132.692h67.481V293.127c0-6.974.753-12.513 2.258-16.617 2.87-6.975 7.211-12.82 13.021-17.537 5.811-4.717 13.021-7.075 21.632-7.075 11.761.009 20.411 4.078 25.95 12.207 5.539 8.13 8.309 19.375 8.309 33.734v108.698h67.481V290.043l-.013.013c0-29.945-7.11-52.675-21.33-68.19-14.22-15.516-33.021-23.273-56.403-23.273-8.619-.009-16.447 1.05-23.482 3.176-7.036 2.127-12.982 5.102-17.839 8.926-4.856 3.824-8.72 7.377-11.59 10.659-2.728 3.119-5.398 6.733-8.007 10.84v.645h-.407l.407-.645zm-104.786-28.902v203.245h-67.678V203.292h67.678zm4.306-62.769c.14 9.985-3.312 18.324-10.357 25.018-7.044 6.695-16.307 10.046-27.788 10.055h-.407c-11.209 0-20.236-3.352-27.079-10.055-6.843-6.703-10.26-15.042-10.251-25.018 0-10.116 3.522-18.49 10.566-25.123 7.044-6.633 16.242-9.95 27.591-9.95 11.35 0 20.442 3.317 27.276 9.95 6.835 6.633 10.322 15.007 10.462 25.123h-.013z" stroke="#ebebeb"/></symbol><symbol viewBox="0 0 22 27" fill-rule="evenodd" clip-rule="evenodd" stroke-linejoin="round" stroke-miterlimit="2" id="location" xmlns="http://www.w3.org/2000/svg"><path d="M10.983 27c-.237 0-.491-.068-.695-.203C9.864 26.525 0 19.898 0 11.017c.068-3.119 1.322-5.983 3.508-8.068C5.559.983 8.22-.051 11.017 0c2.746-.051 5.39.966 7.441 2.932 2.186 2.085 3.44 4.932 3.508 8.034V11c0 8.881-9.864 15.508-10.288 15.78-.22.135-.458.203-.695.203V27zm-.169-24.458c-2.085 0-4.034.78-5.543 2.238-1.695 1.61-2.661 3.847-2.729 6.254 0 6.237 6.305 11.508 8.441 13.119 2.136-1.611 8.441-6.882 8.441-13.136-.068-2.407-1.034-4.627-2.729-6.237A7.952 7.952 0 0011 2.559h-.203l.017-.017zm.169 13.424A4.973 4.973 0 016.017 11c0-2.729 2.237-4.966 4.966-4.966S15.949 8.271 15.949 11s-2.237 4.966-4.966 4.966zm0-7.407a2.424 2.424 0 100 4.847 2.424 2.424 0 000-4.847z"/></symbol><symbol viewBox="0 0 33 39" fill-rule="evenodd" clip-rule="evenodd" stroke-linejoin="round" stroke-miterlimit="2" id="location-detail" xmlns="http://www.w3.org/2000/svg"><path d="M32.976 15.763c0 5.247-2.546 10.036-5.646 13.876-4.53 5.612-10.195 9.175-10.195 9.175a1.217 1.217 0 01-1.293 0s-5.665-3.563-10.196-9.175C2.546 25.799 0 21.01 0 15.763 0 7.075 7.365 0 16.488 0s16.488 7.075 16.488 15.763zm-2.426 0c0-7.381-6.311-13.336-14.062-13.336-7.751 0-14.061 5.955-14.061 13.336 0 4.681 2.342 8.925 5.107 12.351 3.371 4.176 7.407 7.149 8.955 8.214 1.546-1.065 5.582-4.038 8.953-8.214 2.766-3.426 5.108-7.67 5.108-12.351zM16.489 9.009c3.897 0 7.031 3.043 7.031 6.754 0 3.711-3.134 6.754-7.031 6.754-3.896 0-7.03-3.043-7.03-6.754 0-3.711 3.134-6.754 7.03-6.754zm0 2.426c-2.525 0-4.603 1.923-4.603 4.328 0 2.405 2.078 4.327 4.603 4.327 2.526 0 4.604-1.922 4.604-4.327 0-2.405-2.078-4.328-4.604-4.328z"/></symbol><symbol viewBox="0 0 27 30" fill-rule="evenodd" clip-rule="evenodd" stroke-linejoin="round" stroke-miterlimit="2" id="news" xmlns="http://www.w3.org/2000/svg"><path d="M24.393 14.407a3.921 3.921 0 001.228-5.417 3.85 3.85 0 00-1.706-1.487 3.93 3.93 0 00-2.237-.3L19.168.505A.815.815 0 0018.431 0a.793.793 0 00-.737.532A18.47 18.47 0 017.381 11.678c-4.871 2.06-5.839 2.196-5.839 2.196a2.38 2.38 0 00-1.378 3.043l1.664 4.406a2.365 2.365 0 002.21 1.528c.273 0 .56-.054.819-.15l.9-.341 4.83 6.985a1.58 1.58 0 001.855.573l1.419-.532a1.574 1.574 0 00.914-2.033 1.11 1.11 0 00-.177-.327l-4.38-6.33.505-.191a18.453 18.453 0 0115.089 1.569.775.775 0 001.064-.287.818.818 0 00.054-.668l-2.523-6.699-.014-.013z" fill-rule="nonzero"/></symbol><symbol viewBox="0 0 32 32" id="pause" xmlns="http://www.w3.org/2000/svg"><path d="M4 4h10v24H4zm14 0h10v24H18z"/></symbol><symbol viewBox="0 0 16 16" fill-rule="evenodd" clip-rule="evenodd" stroke-linejoin="round" stroke-miterlimit="2" id="pinterest" xmlns="http://www.w3.org/2000/svg"><path d="M8.002 0C3.615.004.007 3.615.007 8.002a8.017 8.017 0 004.782 7.326 7.014 7.014 0 01.138-1.84l1.03-4.359a3.069 3.069 0 01-.254-1.264c0-1.185.686-2.07 1.541-2.07h.016a1.076 1.076 0 011.063 1.2 17.239 17.239 0 01-.706 2.84 1.244 1.244 0 001.263 1.54c1.516 0 2.537-1.946 2.537-4.253 0-1.753-1.181-3.066-3.329-3.066a3.806 3.806 0 00-3.939 3.785v.046c-.024.57.164 1.13.527 1.57a.387.387 0 01.115.446l-.163.643a.275.275 0 01-.4.201 3.087 3.087 0 01-1.639-3.058c0-2.273 1.917-4.998 5.718-4.998.095-.005.19-.008.285-.008 2.552 0 4.677 2.041 4.779 4.591 0 3.138-1.747 5.483-4.316 5.483a2.297 2.297 0 01-1.954-.998c-.439-.642-.46 1.839-.563 2.199a6.73 6.73 0 01-.805 1.714 8.03 8.03 0 002.284.333c4.39 0 8.003-3.613 8.003-8.003C16.02 3.612 12.407 0 8.017 0h-.015" fill-rule="nonzero"/></symbol><symbol viewBox="0 0 512 512" id="pinterest-circle" xmlns="http://www.w3.org/2000/svg"><path d="M121.5-1392.5c-4 20.8-8.8 40.8-23.2 51.2-4.4-31.5 6.5-55.1 11.6-80.2-8.7-14.6 1-43.9 19.3-36.7 22.5 8.9-19.5 54.2 8.7 59.9 29.4 5.9 41.4-51 23.2-69.5-26.3-26.7-76.7-.6-70.5 37.7 1.5 9.4 11.2 12.2 3.9 25.1-16.9-3.7-21.9-17-21.2-34.8 1-29 26.1-49.3 51.2-52.2 31.8-3.6 61.6 11.7 65.7 41.5 4.6 33.7-14.3 70.2-48.3 67.6-9.4-.7-13.2-5.3-20.4-9.6z" fill="#fff"/><path d="M256.4.8C115 .8.4 115.4.4 256.8s114.6 256 256 256 256-114.6 256-256S397.8.8 256.4.8zm17.3 324.9c-17.7-1.4-25.1-10.1-39-18.6-7.6 40-17 78.4-44.6 98.4-8.5-60.5 12.5-105.9 22.3-154.1-16.7-28 2-84.5 37.1-70.6 43.2 17.1-37.4 104.2 16.7 115.1 56.5 11.4 79.6-98.1 44.6-133.7-50.7-51.4-147.5-1.2-135.6 72.4 2.9 18 21.5 23.5 7.4 48.3-32.4-7.2-42.1-32.8-40.9-66.8 2-55.8 50.1-94.9 98.4-100.3 61.1-6.8 118.4 22.4 126.3 79.8 9.1 64.9-27.4 135.1-92.7 130.1z"/></symbol><symbol viewBox="0 0 20 28" id="pinterest-regular" xmlns="http://www.w3.org/2000/svg"><path d="M0 9.328q0-1.687.586-3.18t1.617-2.602 2.375-1.922T7.469.405t3.156-.406q2.469 0 4.594 1.039t3.453 3.023T20 8.545q0 1.5-.297 2.938t-.938 2.766-1.563 2.336-2.266 1.609-2.953.602q-1.062 0-2.109-.5t-1.5-1.375q-.156.609-.438 1.758t-.367 1.484-.32 1.109-.406 1.109-.5.977-.719 1.211-.969 1.352l-.219.078-.141-.156q-.234-2.453-.234-2.938 0-1.437.336-3.227t1.039-4.492.812-3.172q-.5-1.016-.5-2.641 0-1.297.812-2.438t2.063-1.141q.953 0 1.484.633t.531 1.602q0 1.031-.688 2.984t-.688 2.922q0 .984.703 1.633t1.703.648q.859 0 1.594-.391t1.227-1.062.875-1.484.594-1.727.313-1.734.102-1.555q0-2.703-1.711-4.211t-4.461-1.508q-3.125 0-5.219 2.023T2.888 9.7q0 .688.195 1.328t.422 1.016.422.711.195.477q0 .438-.234 1.141t-.578.703q-.031 0-.266-.047-.797-.234-1.414-.875t-.953-1.477-.508-1.687-.172-1.664z"/></symbol><symbol viewBox="0 0 32 32" id="play" xmlns="http://www.w3.org/2000/svg"><path d="M6 4l20 12L6 28z"/></symbol><symbol viewBox="0 0 72 72" fill-rule="evenodd" clip-rule="evenodd" stroke-linejoin="round" stroke-miterlimit="2" id="play-video" xmlns="http://www.w3.org/2000/svg"><path d="M36 0C16.25 0-.001 16.251-.001 36.001c0 19.75 16.251 36.001 36.001 36.001 19.75 0 36.001-16.251 36.001-36.001V36c0-19.749-16.251-36-36-36H36m15.422 38.505L32.37 49.504c-.44.255-.941.39-1.45.39a2.905 2.905 0 01-2.891-2.891V25.001a2.904 2.904 0 012.891-2.89c.507 0 1.006.133 1.445.387l19.057 10.999a2.895 2.895 0 010 5.006" fill-rule="nonzero"/></symbol><symbol viewBox="0 0 13 20" fill-rule="evenodd" clip-rule="evenodd" stroke-linejoin="round" stroke-miterlimit="2" id="podcast" xmlns="http://www.w3.org/2000/svg"><path d="M12.107 9.132a.875.875 0 01.868.868v.703c-.006 3.236-2.428 5.991-5.619 6.426v1.136h1.942c.476 0 .868.392.868.868a.872.872 0 01-.868.868H3.679a.873.873 0 01-.869-.868c0-.476.392-.868.869-.868h1.943v-1.136c-3.192-.435-5.613-3.19-5.62-6.426v-.702c0-.477.392-.869.868-.869.477 0 .869.392.869.869v.706l-.001.1c0 2.607 2.144 4.752 4.751 4.752 2.606 0 4.751-2.145 4.751-4.752l-.001-.102V10a.875.875 0 01.868-.868zm-1.941.333H2.81V7.026h2.274a.54.54 0 00.537-.537.54.54 0 00-.537-.537H2.81V4.215h2.274a.54.54 0 00.537-.536.54.54 0 00-.537-.537L2.81 3.141v-.166A2.99 2.99 0 015.786 0h1.405a2.99 2.99 0 012.975 2.975v.166H7.893a.539.539 0 00-.537.536c0 .295.242.537.537.537h2.273v1.737H7.893a.539.539 0 00-.537.537.54.54 0 00.537.537h2.273v2.44zm-4.38 4.911a2.99 2.99 0 01-2.976-2.975v-.869h7.356v.869a2.99 2.99 0 01-2.975 2.975H5.786z"/></symbol><symbol viewBox="0 0 512 512" id="printer" xmlns="http://www.w3.org/2000/svg"><path d="M304 352h-96c-8.836 0-16 7.163-16 16s7.164 16 16 16h96c8.837 0 16-7.163 16-16s-7.163-16-16-16zm32 64H176c-8.836 0-16 7.163-16 16s7.164 16 16 16h160c8.837 0 16-7.163 16-16s-7.163-16-16-16z"/><path d="M509.313 231.125l-64-96A16 16 0 00432 128h-48V16c0-8.836-7.163-16-16-16H144c-8.836 0-16 7.164-16 16v112H80a16.001 16.001 0 00-13.313 7.125l-64 96A16 16 0 000 240v160c0 8.837 7.164 16 16 16h73.801l-24.98 74.94A16 16 0 0080 512h352c5.144 0 9.973-2.473 12.979-6.645a15.996 15.996 0 002.199-14.415L422.198 416H496c8.837 0 16-7.163 16-16V240c0-3.159-.934-6.247-2.687-8.875zM160 32h192v128H160V32zm-57.801 448l53.333-160h200.936l53.333 160H102.199z"/></symbol><symbol viewBox="0 0 126 126" fill-rule="evenodd" clip-rule="evenodd" stroke-linejoin="round" stroke-miterlimit="2" id="quote" xmlns="http://www.w3.org/2000/svg"><path d="M91.36 49.706c-7.396 0-13.394 5.997-13.394 13.394H91.36v23.44H67.919V63.1c0-12.946 10.495-23.44 23.441-23.44v10.046zm-33.485 0c-7.398 0-13.395 5.997-13.395 13.394h13.395v23.44H34.434V63.1c0-12.946 10.494-23.44 23.441-23.44v10.046zM63 0C28.206 0 0 28.206 0 63c0 34.793 28.206 63 63 63 34.795 0 63-28.207 63-63 0-34.794-28.205-63-63-63" fill-rule="nonzero"/></symbol><symbol viewBox="0 0 73 83" id="recurring-event" xmlns="http://www.w3.org/2000/svg"><path d="M34.351 60.349c-2.808-6.307-1.504-13.504 3.322-18.333 4.828-4.826 12.029-6.131 18.34-3.323.06.026.122.037.182.06l-3.092 2.426a2.969 2.969 0 103.666 4.672l7.837-6.148a2.969 2.969 0 001.074-2.942l-2.039-9.784a2.97 2.97 0 10-5.815 1.212l.942 4.52c-.026-.013-.048-.031-.074-.042-8.826-3.927-18.906-2.089-25.686 4.685-6.773 6.778-8.611 16.858-4.683 25.681a3.297 3.297 0 004.354 1.671 3.298 3.298 0 001.672-4.355zm36.003-16.022a3.298 3.298 0 00-6.028 2.678c2.805 6.313 1.5 13.511-3.325 18.335-4.729 4.729-11.729 6.069-17.945 3.482l3.086-2.42a2.969 2.969 0 10-3.666-4.672l-7.839 6.149a2.966 2.966 0 00-1.074 2.941l2.038 9.784a2.97 2.97 0 005.814-1.211l-.938-4.499a23.328 23.328 0 009.021 1.837c5.951 0 11.759-2.319 16.168-6.729 6.771-6.768 8.611-16.847 4.688-25.675z"/><path d="M6.082 20.459H54.15v.007h5.15V9.112a3.444 3.444 0 00-3.437-3.434H48.14V3.134A3.146 3.146 0 0045.005 0h-2.312a3.144 3.144 0 00-3.135 3.134v2.544H20.673V3.134A3.144 3.144 0 0017.538 0h-2.312a3.147 3.147 0 00-3.135 3.134v2.544H4.367A3.444 3.444 0 00.933 9.112v51.496a3.446 3.446 0 003.434 3.437h16.127v-5.819H6.082V20.459z"/></symbol><symbol viewBox="0 0 16 15" fill-rule="evenodd" clip-rule="evenodd" stroke-linejoin="round" stroke-miterlimit="2" id="save" xmlns="http://www.w3.org/2000/svg"><path d="M7.987 15a.839.839 0 01-.476-.155C7.201 14.624 0 9.48 0 4.679A4.68 4.68 0 012.356.608a4.667 4.667 0 015.642.797A4.671 4.671 0 0111.305.011a4.666 4.666 0 014.657 4.668c0 4.801-7.201 9.956-7.511 10.166a.833.833 0 01-.475.155h.011zM4.657 1.659c-.509 0-1.018.133-1.482.399a2.983 2.983 0 00-1.516 2.621c0 3.031 4.193 6.848 6.328 8.463 2.135-1.615 6.327-5.432 6.327-8.463a3.017 3.017 0 00-2.998-3.009 2.985 2.985 0 00-2.599 1.516.834.834 0 01-.719.42.833.833 0 01-.719-.42 2.968 2.968 0 00-1.814-1.405 2.844 2.844 0 00-.797-.111l-.011-.011z" fill-rule="nonzero"/></symbol><symbol viewBox="0 0 32 29" fill-rule="evenodd" clip-rule="evenodd" stroke-linejoin="round" stroke-miterlimit="2" id="save-detail" xmlns="http://www.w3.org/2000/svg"><path d="M22.227 0c4.814 0 8.776 3.962 8.776 8.776 0 3.8-2.396 7.845-5.342 11.295-4.254 4.983-9.572 8.742-9.572 8.742a1.02 1.02 0 01-1.176 0s-5.317-3.759-9.571-8.742C2.396 16.621 0 12.576 0 8.776V8.77C0 3.957 3.96-.002 8.772-.002a8.783 8.783 0 016.73 3.146A8.78 8.78 0 0122.227 0zm0 2.038a6.736 6.736 0 00-5.84 3.388 1.018 1.018 0 01-1.769 0 6.742 6.742 0 00-5.846-3.39c-3.694 0-6.734 3.039-6.734 6.734v.006c0 3.373 2.239 6.909 4.854 9.972 3.252 3.81 7.151 6.875 8.609 7.969 1.459-1.094 5.358-4.159 8.61-7.969 2.616-3.063 4.854-6.599 4.854-9.972 0-3.696-3.041-6.738-6.738-6.738z"/></symbol><symbol viewBox="0 0 16 15" fill-rule="evenodd" clip-rule="evenodd" stroke-linejoin="round" stroke-miterlimit="2" id="saved" xmlns="http://www.w3.org/2000/svg"><path d="M7.976 15a.843.843 0 01-.465-.155C7.201 14.624 0 9.48 0 4.679A4.68 4.68 0 012.356.608a4.667 4.667 0 015.642.797A4.671 4.671 0 0111.305.011a4.666 4.666 0 014.657 4.668c0 4.801-7.201 9.956-7.511 10.166a.84.84 0 01-.464.155h-.011z"/></symbol><symbol viewBox="0 0 32 29" fill-rule="evenodd" clip-rule="evenodd" stroke-linejoin="round" stroke-miterlimit="2" id="saved-detail" xmlns="http://www.w3.org/2000/svg"><path d="M22.227 0c4.814 0 8.776 3.962 8.776 8.776 0 3.8-2.396 7.845-5.342 11.295-4.254 4.983-9.572 8.742-9.572 8.742a1.02 1.02 0 01-1.176 0s-5.317-3.759-9.571-8.742C2.396 16.621 0 12.576 0 8.776V8.77C0 3.957 3.96-.002 8.772-.002a8.783 8.783 0 016.73 3.146A8.78 8.78 0 0122.227 0z"/></symbol><symbol viewBox="0 0 24 24" fill-rule="evenodd" clip-rule="evenodd" stroke-linejoin="round" stroke-miterlimit="2" id="search" xmlns="http://www.w3.org/2000/svg"><path d="M17.184 18.853a10.546 10.546 0 01-6.606 2.303 10.586 10.586 0 01-7.487-3.091c-4.125-4.126-4.125-10.849 0-14.974s10.837-4.125 14.974 0a10.516 10.516 0 013.102 7.487c0 2.44-.819 4.749-2.324 6.62l4.804 4.804A1.17 1.17 0 0122.825 24h-.012a1.204 1.204 0 01-.823-.341l-4.806-4.806zm-.689-2.534a8.178 8.178 0 002.322-5.729 8.177 8.177 0 00-2.41-5.818 8.196 8.196 0 00-5.817-2.41l-.012-.011c-2.104 0-4.22.799-5.818 2.409-3.209 3.209-3.209 8.439 0 11.647 3.176 3.176 8.332 3.209 11.548.098a1.144 1.144 0 01.187-.186z"/></symbol><symbol viewBox="0 0 68 68" id="settings" xmlns="http://www.w3.org/2000/svg"><path d="M9.832 55H4a4 4 0 100 8h5.832A9.966 9.966 0 019 59a9.97 9.97 0 01.832-4zm18.336 0H64a4 4 0 110 8H28.168A9.966 9.966 0 0029 59a9.966 9.966 0 00-.832-4zm11.664-25H4a4 4 0 100 8h35.832A9.966 9.966 0 0139 34a9.97 9.97 0 01.832-4zm18.336 0H64a4 4 0 110 8h-5.832A9.966 9.966 0 0059 34a9.966 9.966 0 00-.832-4zM24.832 5H4a4 4 0 100 8h20.832A9.966 9.966 0 0124 9a9.97 9.97 0 01.832-4zm18.336 0H64a4 4 0 110 8H43.168A9.966 9.966 0 0044 9a9.966 9.966 0 00-.832-4zM34 18a9 9 0 110-18 9 9 0 010 18zm15 25a9 9 0 110-18 9 9 0 010 18zM19 68a9 9 0 110-18 9 9 0 010 18z" fill-rule="evenodd"/></symbol><symbol viewBox="0 0 21 21" fill-rule="evenodd" clip-rule="evenodd" stroke-linejoin="round" stroke-miterlimit="2" id="share" xmlns="http://www.w3.org/2000/svg"><path d="M20.46 5.51c-.02.54-.45.97-.99.99-.56.01-1.03-.43-1.05-.99V3.47l-6.58 6.55c-.39.37-1.01.37-1.4 0-.41-.38-.43-1.02-.04-1.43l6.55-6.55h-2.03c-.54-.02-.97-.45-.99-.99-.01-.56.43-1.03.99-1.05h4.52c.56.01 1.02.46 1.02 1.02v4.49zM9.92 3.32v.01l-.09-.02h-.58c-4.15.16-7.38 3.65-7.22 7.79.16 4.15 3.65 7.38 7.79 7.22 4.15-.16 7.38-3.65 7.22-7.79-.02-.56.42-1.04.98-1.06.56-.02 1.04.42 1.06.98a9.546 9.546 0 01-9.92 9.92A9.546 9.546 0 010 10.45c.22-5.27 4.66-9.37 9.92-9.17.54.02.97.45.99.99.01.56-.43 1.03-.99 1.05z"/></symbol><symbol viewBox="0 0 32 32" id="shrink" xmlns="http://www.w3.org/2000/svg"><path d="M18 14h13l-5-5 6-6-3-3-6 6-5-5zm0 4v13l5-5 6 6 3-3-6-6 5-5zm-4 0H1l5 5-6 6 3 3 6-6 5 5zm0-4V1L9 6 3 0 0 3l6 6-5 5z"/></symbol><symbol viewBox="0 0 391 317" fill-rule="evenodd" clip-rule="evenodd" stroke-linejoin="round" stroke-miterlimit="2" id="stay" xmlns="http://www.w3.org/2000/svg"><path d="M389.772 211.296l-42.991-68.063V18.028l-17.5-17.5H61.275l-17.5 17.5v125.204L.784 211.296h388.988zM311.781 35.528v87.362c-22.553-5.834-61.514-13.028-116.503-13.028s-93.95 7.194-116.503 13.028V35.528h233.006zM0 232.831v35h40.778v48.197h35v-48.197h239v48.197h35v-48.197h40.779v-35H0z"/><path d="M181.075 91.653V71.264c0-12.102-17.564-21.916-39.23-21.916-21.666 0-39.229 9.814-39.229 21.916v30.604s23.14-5.826 39.045-7.332c14.319-1.357 39.414-2.883 39.414-2.883zm106.866 10.215V71.264c0-12.102-17.564-21.916-39.23-21.916-21.666 0-39.23 9.814-39.23 21.916v20.389s25.096 1.525 39.415 2.883c15.906 1.506 39.045 7.332 39.045 7.332z"/></symbol><symbol viewBox="0 0 512 512" fill-rule="evenodd" clip-rule="evenodd" stroke-linejoin="round" stroke-miterlimit="2" id="target" xmlns="http://www.w3.org/2000/svg"><path d="M512 224h-50.462C447.718 134.88 377.12 64.282 288 50.462V0h-64v50.462C134.88 64.282 64.282 134.88 50.462 224H0v64h50.462C64.282 377.12 134.88 447.718 224 461.538V512h64v-50.462C377.12 447.718 447.718 377.12 461.538 288H512v-64zm-224-59.776v-48.635c53.757 12.245 96.166 54.655 108.411 108.411h-48.635c3.499 10.022 5.401 20.791 5.401 32s-1.902 21.978-5.401 32h48.635C384.166 341.757 341.757 384.166 288 396.411v-48.635c-10.022 3.499-20.791 5.401-32 5.401s-21.978-1.902-32-5.401v48.635C170.244 384.166 127.834 341.757 115.589 288h48.635c-3.499-10.022-5.401-20.791-5.401-32s1.902-21.978 5.401-32h-48.635c12.245-53.756 54.655-96.166 108.411-108.411v48.635c10.022-3.499 20.791-5.401 32-5.401s21.978 1.902 32 5.401zm-32 59.954c17.563 0 31.822 14.259 31.822 31.822S273.563 287.822 256 287.822 224.178 273.563 224.178 256s14.259-31.822 31.822-31.822z" fill-rule="nonzero"/></symbol><symbol viewBox="0 0 192 192" id="threads" xmlns="http://www.w3.org/2000/svg"><path class="cfx19hqcy" d="M141.537 88.988a66.667 66.667 0 00-2.518-1.143c-1.482-27.307-16.403-42.94-41.457-43.1h-.34c-14.986 0-27.449 6.396-35.12 18.036l13.779 9.452c5.73-8.695 14.724-10.548 21.348-10.548h.229c8.249.053 14.474 2.452 18.503 7.129 2.932 3.405 4.893 8.111 5.864 14.05-7.314-1.243-15.224-1.626-23.68-1.14-23.82 1.371-39.134 15.264-38.105 34.568.522 9.792 5.4 18.216 13.735 23.719 7.047 4.652 16.124 6.927 25.557 6.412 12.458-.683 22.231-5.436 29.049-14.127 5.178-6.6 8.453-15.153 9.899-25.93 5.937 3.583 10.337 8.298 12.767 13.966 4.132 9.635 4.373 25.468-8.546 38.376-11.319 11.308-24.925 16.2-45.488 16.351-22.809-.169-40.06-7.484-51.275-21.742C35.236 139.966 29.808 120.682 29.605 96c.203-24.682 5.63-43.966 16.133-57.317C56.954 24.425 74.204 17.11 97.013 16.94c22.975.17 40.526 7.52 52.171 21.847 5.71 7.026 10.015 15.86 12.853 26.162l16.147-4.308c-3.44-12.68-8.853-23.606-16.219-32.668C147.036 9.607 125.202.195 97.07 0h-.113C68.882.194 47.292 9.642 32.788 28.08 19.882 44.485 13.224 67.315 13.001 95.932L13 96v.067c.224 28.617 6.882 51.447 19.788 67.854C47.292 182.358 68.882 191.806 96.957 192h.113c24.96-.173 42.554-6.708 57.048-21.189 18.963-18.945 18.392-42.692 12.142-57.27-4.484-10.454-13.033-18.945-24.723-24.553zM98.44 129.507c-10.44.588-21.286-4.098-21.82-14.135-.397-7.442 5.296-15.746 22.461-16.735a99.978 99.978 0 015.79-.169c6.235 0 12.068.606 17.371 1.765-1.978 24.702-13.58 28.713-23.802 29.274z"/></symbol><symbol viewBox="0 0 274.37 274.37" id="threads-circle" xmlns="http://www.w3.org/2000/svg"><path d="M137.18 0C61.42 0 0 61.42 0 137.18s61.42 137.18 137.18 137.18 137.18-61.42 137.18-137.18S212.95 0 137.18 0zM87.33 195.41c11.22 14.26 28.47 21.57 51.28 21.74 20.56-.15 34.17-5.04 45.49-16.35 12.92-12.91 12.68-28.74 8.55-38.38-2.43-5.67-6.83-10.38-12.77-13.97-1.45 10.78-4.72 19.33-9.9 25.93-6.82 8.69-16.59 13.44-29.05 14.13-9.43.52-18.51-1.76-25.56-6.41-8.34-5.5-13.21-13.93-13.74-23.72-1.03-19.3 14.29-33.2 38.11-34.57 8.46-.48 16.37-.1 23.68 1.14-.97-5.94-2.93-10.64-5.86-14.05-4.03-4.68-10.25-7.08-18.5-7.13h-.23c-6.62 0-15.62 1.85-21.35 10.55l-13.78-9.45c7.67-11.64 20.13-18.04 35.12-18.04h.34c25.05.16 39.98 15.79 41.46 43.1.85.37 1.69.75 2.52 1.14 11.69 5.61 20.24 14.1 24.72 24.55 6.25 14.58 6.82 38.32-12.14 57.27-14.49 14.48-32.09 21.02-57.05 21.19h-.11c-28.08-.19-49.66-9.64-64.17-28.08-12.91-16.41-19.56-39.24-19.79-67.85v-.14c.22-28.62 6.88-51.45 19.79-67.85 14.5-18.44 36.09-27.88 64.17-28.08h.11c28.13.2 49.97 9.61 64.9 27.97 7.37 9.06 12.78 19.99 16.22 32.67l-16.15 4.31c-2.84-10.3-7.14-19.14-12.85-26.16-11.65-14.33-29.2-21.68-52.17-21.85-22.81.17-40.06 7.48-51.28 21.74-10.5 13.35-15.93 32.64-16.13 57.32.2 24.68 5.63 43.97 16.13 57.32z"/><path d="M134.66 138.26c-17.17.99-22.86 9.29-22.46 16.74.53 10.04 11.38 14.72 21.82 14.14 10.22-.56 21.82-4.57 23.8-29.27-5.3-1.16-11.14-1.76-17.37-1.76-1.9 0-3.82.06-5.79.17z"/></symbol><symbol viewBox="0 0 102 408" id="three-dots" xmlns="http://www.w3.org/2000/svg"><path d="M51 102c28.05 0 51-22.95 51-51S79.05 0 51 0 0 22.95 0 51s22.95 51 51 51zm0 51c-28.05 0-51 22.95-51 51s22.95 51 51 51 51-22.95 51-51-22.95-51-51-51zm0 153c-28.05 0-51 22.95-51 51s22.95 51 51 51 51-22.95 51-51-22.95-51-51-51z"/></symbol><symbol viewBox="0 0 563 497" id="tickets" xmlns="http://www.w3.org/2000/svg"><path d="M28.319 252.072c3.781 7.17 1.036 16.05-6.132 19.833l7.138 13.536c7.168-3.783 16.044-1.037 19.826 6.134 3.782 7.17 1.036 16.05-6.132 19.834l7.138 13.535c7.168-3.783 16.044-1.037 19.825 6.134 3.782 7.17 1.037 16.05-6.131 19.833l7.138 13.536a14.614 14.614 0 0110.468-1.241V242.365h20.505c8.701 0 15.78-7.082 15.78-15.786v-20.513h367.11a36.117 36.117 0 0115.512-15.867l-7.908-14.995c-7.168 3.783-16.044 1.037-19.826-6.134-3.781-7.17-1.036-16.05 6.132-19.833l-7.138-13.536c-7.168 3.783-16.044 1.037-19.825-6.134-3.781-7.17-1.036-16.05 6.131-19.833l-7.138-13.536c-7.168 3.783-16.044 1.037-19.825-6.134-3.782-7.17-1.037-16.05 6.131-19.833l-7.138-13.535c-7.168 3.782-16.044 1.036-19.825-6.134-3.782-7.171-1.036-16.051 6.132-19.834l-7.908-14.995c-17.724 9.355-39.673 2.564-49.024-15.168L187.541 91.232 15.748 181.9c9.35 17.731 2.562 39.689-15.163 49.043l7.908 14.995c7.168-3.783 16.044-1.037 19.826 6.134z"/><path d="M526.715 226.58H138.247c0 20.047-16.246 36.299-36.285 36.299v16.954c8.104 0 14.673 6.572 14.673 14.68 0 8.107-6.57 14.679-14.673 14.679v15.304c8.104 0 14.673 6.572 14.673 14.68 0 8.107-6.57 14.68-14.673 14.68v15.303c8.104 0 14.673 6.572 14.673 14.68 0 8.107-6.57 14.68-14.673 14.68v15.303c8.104 0 14.673 6.573 14.673 14.68s-6.57 14.68-14.673 14.68v16.953c20.04 0 36.285 16.252 36.285 36.3h388.468c0-20.048 16.245-36.3 36.285-36.3v-16.953c-8.104 0-14.674-6.573-14.674-14.68s6.57-14.68 14.674-14.68v-15.304c-8.104 0-14.674-6.572-14.674-14.68 0-8.107 6.57-14.679 14.674-14.679v-15.304c-8.104 0-14.674-6.572-14.674-14.68 0-8.107 6.57-14.68 14.674-14.68v-15.303c-8.104 0-14.674-6.572-14.674-14.68 0-8.107 6.57-14.68 14.674-14.68V262.88c-20.04 0-36.285-16.252-36.285-36.3zM342.733 448.567c0 5.665-4.59 10.257-10.252 10.257-5.662 0-10.252-4.592-10.252-10.257V274.446c0-5.665 4.59-10.257 10.252-10.257 5.662 0 10.252 4.592 10.252 10.257v174.122z"/></symbol><symbol viewBox="0 0 27 30" fill-rule="evenodd" clip-rule="evenodd" stroke-linejoin="round" stroke-miterlimit="2" id="tiktok" xmlns="http://www.w3.org/2000/svg"><path d="M22.763 6.416c-.203-.105-.4-.22-.591-.345a8.27 8.27 0 01-1.518-1.288 7.159 7.159 0 01-1.708-3.527 4.34 4.34 0 01-.069-1.261h-5.145v19.928c0 .266 0 .54-.011.792v.098a.17.17 0 010 .045v.011a4.377 4.377 0 01-2.2 3.472c-.65.37-1.385.564-2.132.563-2.366-.048-4.287-2.008-4.287-4.375s1.921-4.327 4.287-4.375c.454 0 .906.072 1.337.213v-5.246a9.575 9.575 0 00-7.374 2.162 10.122 10.122 0 00-2.206 2.722A9.435 9.435 0 00.009 20.33a10.228 10.228 0 00.553 3.424v.012c.34.914.811 1.774 1.399 2.552a10.439 10.439 0 002.231 2.105v-.021l.012.012a9.646 9.646 0 005.261 1.584 9.313 9.313 0 003.903-.863 9.81 9.81 0 003.17-2.382 9.911 9.911 0 001.728-2.871c.377-1.056.587-2.164.622-3.284V10.031c.063.037.901.587.901.587.958.561 1.989.986 3.064 1.262 1.035.238 2.09.382 3.152.43V7.209a6.685 6.685 0 01-3.242-.793z" fill-rule="nonzero"/></symbol><symbol viewBox="0 0 3333 3333" shape-rendering="geometricPrecision" text-rendering="geometricPrecision" image-rendering="optimizeQuality" fill-rule="evenodd" clip-rule="evenodd" id="tiktok-circle" xmlns="http://www.w3.org/2000/svg"><path d="M1667 0c920 0 1667 746 1667 1667 0 920-746 1667-1667 1667C747 3334 0 2588 0 1667 0 747 746 0 1667 0zm361 744c31 262 177 418 430 434v294c-147 14-276-34-426-124v550c0 700-763 918-1069 417-197-322-76-889 556-911v311c-48 8-99 20-146 36-141 47-220 137-198 294 43 301 595 390 549-198V745h305z"/></symbol><symbol viewBox="0 0 24 24" fill-rule="evenodd" clip-rule="evenodd" stroke-linejoin="round" stroke-miterlimit="2" id="tripadvisor" xmlns="http://www.w3.org/2000/svg"><path d="M12.005 0c6.626 0 12.006 5.379 12.006 12.005 0 6.626-5.38 12.006-12.006 12.006S0 18.631 0 12.005 5.379 0 12.005 0zm7.417 9.647l1.441-1.569h-3.212a10.046 10.046 0 00-11.291 0H3.137l1.452 1.58a4.434 4.434 0 00-.331 6.253 4.434 4.434 0 006.253.331c.022-.021.054-.043.075-.064l1.419 1.547 1.42-1.547a4.424 4.424 0 006.264-.203 4.424 4.424 0 00-.203-6.264l-.064-.064zM7.566 15.932a3.001 3.001 0 01-2.999-2.998 3.002 3.002 0 012.999-2.999 2.998 2.998 0 01.011 5.997h-.011zm1.579-2.998l.011-.011a1.579 1.579 0 00-1.579-1.558c-.865 0-1.569.704-1.569 1.569a1.57 1.57 0 001.569 1.568 1.57 1.57 0 001.568-1.568zm2.845-.175a4.88 4.88 0 00-3.325-4.297 8.655 8.655 0 016.648 0 4.907 4.907 0 00-3.323 4.297zm4.433 3.173a3 3 0 01-2.998-2.998 3.001 3.001 0 012.998-2.999 2.998 2.998 0 01.011 5.997h-.011zm0-4.567a1.57 1.57 0 00-1.568 1.569 1.57 1.57 0 001.568 1.568 1.57 1.57 0 001.569-1.568c0-.865-.704-1.569-1.569-1.569z"/></symbol><symbol viewBox="0 0 26 28" id="twitter" xmlns="http://www.w3.org/2000/svg"><path d="M25.312 6.375q-1.047 1.531-2.531 2.609.016.219.016.656 0 2.031-.594 4.055t-1.805 3.883-2.883 3.289-4.031 2.281T8.437 24q-4.234 0-7.75-2.266.547.063 1.219.063 3.516 0 6.266-2.156-1.641-.031-2.938-1.008t-1.781-2.492q.516.078.953.078.672 0 1.328-.172-1.75-.359-2.898-1.742t-1.148-3.211v-.063q1.062.594 2.281.641-1.031-.688-1.641-1.797t-.609-2.406q0-1.375.688-2.547Q4.298 7.25 7.009 8.649t5.805 1.555q-.125-.594-.125-1.156 0-2.094 1.477-3.57t3.57-1.477q2.188 0 3.687 1.594 1.703-.328 3.203-1.219-.578 1.797-2.219 2.781 1.453-.156 2.906-.781z"/></symbol><symbol viewBox="0 0 138 115" fill-rule="evenodd" clip-rule="evenodd" stroke-linejoin="round" stroke-miterlimit="2" id="twitter-alt" xmlns="http://www.w3.org/2000/svg"><path d="M135.483 13.322a54.506 54.506 0 01-9.493 3.201 29.576 29.576 0 007.812-12.442c.435-1.36-1.042-2.535-2.269-1.807a54.758 54.758 0 01-14.513 5.995c-.296.075-.6.113-.906.113a3.849 3.849 0 01-2.541-.97A29.684 29.684 0 0093.934 0c-3.134 0-6.297.489-9.403 1.452-9.624 2.985-17.05 10.924-19.38 20.718-.874 3.674-1.11 7.351-.704 10.929.047.411-.148.698-.268.833a1.1 1.1 0 01-.924.366C42.189 32.341 23.192 22.192 9.764 5.72a1.552 1.552 0 00-2.544.199 29.66 29.66 0 00-4.018 14.922 29.648 29.648 0 008.847 21.157 26.614 26.614 0 01-6.77-2.621 1.552 1.552 0 00-2.305 1.338c-.147 11.953 6.852 22.589 17.335 27.379a26.744 26.744 0 01-5.634-.47 1.552 1.552 0 00-1.769 1.998c3.403 10.624 12.55 18.455 23.497 20.233-9.085 6.098-19.665 9.316-30.676 9.316l-3.433-.003c-1.058 0-1.953.69-2.222 1.714-.265 1.009.224 2.074 1.126 2.598a81.463 81.463 0 0040.935 11.038c12.582 0 24.352-2.497 34.982-7.422 9.745-4.514 18.357-10.967 25.596-19.179 6.743-7.651 12.016-16.482 15.672-26.249 3.486-9.31 5.328-19.244 5.328-28.729v-.451c0-1.523.688-2.957 1.889-3.932a58.629 58.629 0 0011.802-12.953c.864-1.292-.498-2.911-1.919-2.281" fill-rule="nonzero"/></symbol><symbol viewBox="0 0 512 512" id="twitter-circle" xmlns="http://www.w3.org/2000/svg"><path d="M256.5-.5C181.4-.5 113.8 31.8 67 83.4 25.4 128.9 0 189.5 0 256c0 141.4 114.6 256 256 256 75.1 0 142.7-32.4 189.5-83.9 41.6-45.5 67-106.1 67-172.6 0-141.4-114.7-256-256-256zM385.1 194l.2 8.3c0 84.5-66.3 181.9-187.4 181.9-37.2 0-71.8-10.6-101-28.7 5.2.6 10.4.9 15.7.9 30.9 0 59.3-10.2 81.8-27.4-28.8-.5-53.2-19-61.5-44.4 4 .8 8.1 1.1 12.4 1.1 6 0 11.8-.8 17.4-2.2-30.1-5.9-52.8-31.7-52.8-62.7v-.8c8.9 4.8 19 7.7 29.9 8-17.7-11.4-29.3-31-29.3-53.2 0-11.7 3.2-22.7 8.9-32.1 32.5 38.7 81 64.1 135.8 66.8-1.1-4.7-1.7-9.6-1.7-14.6 0-35.3 29.5-63.9 65.9-63.9 19 0 36.1 7.8 48.1 20.2 15-2.9 29.1-8.2 41.8-15.5-4.9 15-15.4 27.5-29 35.4 13.3-1.6 26-5 37.8-10.1-9 12.7-20.2 24-33 33z"/></symbol><symbol viewBox="0 0 1200 1227" id="twitter-x" xmlns="http://www.w3.org/2000/svg"><path d="M714.163 519.284L1160.89 0h-105.86L667.137 450.887 357.328 0H0l468.492 681.821L0 1226.37h105.866l409.625-476.152 327.181 476.152H1200L714.137 519.284h.026zM569.165 687.828l-47.468-67.894-377.686-540.24h162.604l304.797 435.991 47.468 67.894 396.2 566.721H892.476L569.165 687.854v-.026z"/></symbol><symbol viewBox="0 0 140.5 140.5" id="twitter-x-circle" xmlns="http://www.w3.org/2000/svg"><path d="M70.25.5C31.73.5.5 31.73.5 70.25S31.73 140 70.25 140 140 108.77 140 70.25 108.77.5 70.25.5zm15.08 106.88L65 78.55l-25.45 28.83h-6.58l29.11-32.97-29.11-41.29h22.2l19.25 27.3 24.1-27.3h6.58L77.34 64.56l30.19 42.82h-22.2z"/><path d="M73.9 68.46l-2.95-4.11-18.94-26.4h-10.1l23.47 32.71 2.95 4.11v.01l20.09 28h10.1L73.9 68.46z"/></symbol><symbol viewBox="0 0 32 32" id="volume-off" xmlns="http://www.w3.org/2000/svg"><path d="M30 19.348V22h-2.652L24 18.652 20.652 22H18v-2.652L21.348 16 18 12.652V10h2.652L24 13.348 27.348 10H30v2.652L26.652 16 30 19.348zM13 30a1 1 0 01-.707-.293L4.586 22H1a1 1 0 01-1-1V11a1 1 0 011-1h3.586l7.707-7.707A1 1 0 0114 3v26a1.002 1.002 0 01-1 1z"/></symbol><symbol viewBox="0 0 32 32" id="volume-on" xmlns="http://www.w3.org/2000/svg"><path d="M13 30a1 1 0 01-.707-.293L4.586 22H1a1 1 0 01-1-1V11a1 1 0 011-1h3.586l7.707-7.707A1 1 0 0114 3v26a1.002 1.002 0 01-1 1z"/></symbol><symbol viewBox="0 0 95 36" fill-rule="evenodd" clip-rule="evenodd" stroke-linejoin="round" stroke-miterlimit="2" id="yelp" xmlns="http://www.w3.org/2000/svg"><path d="M76.12 21.049l1.547-.359s.09-.018.162-.036a1.672 1.672 0 001.205-2.015h-.018a2.155 2.155 0 00-.251-.594 2.572 2.572 0 00-.63-.54 8.14 8.14 0 00-.9-.414l-1.673-.629c-.935-.36-1.889-.684-2.842-1.008-.63-.216-1.152-.414-1.602-.557-.072-.018-.179-.054-.251-.072a4.329 4.329 0 00-1.26-.234c-.216 0-.432.036-.647.126-.216.09-.396.234-.576.395-.09.09-.162.18-.216.27a2.678 2.678 0 00-.306.648 9.075 9.075 0 00-.468 2.861 5.519 5.519 0 00.522 2.788c.108.198.27.36.45.486.324.198.683.306 1.061.288.54 0 1.062-.072 1.583-.216l5.128-1.188h-.018zM93.247 12.9a9.483 9.483 0 00-1.655-2.375c-.09-.09-.18-.162-.288-.234a2.746 2.746 0 00-.288-.198c-.089-.054-.215-.09-.305-.162a2.19 2.19 0 00-.684-.126c-.216.018-.432.09-.63.18a6.265 6.265 0 00-1.043.774c-.054.054-.144.126-.198.18-.36.323-.738.737-1.187 1.205l-2.105 2.159-1.242 1.295a6.274 6.274 0 00-.629.756c-.162.234-.27.486-.324.755-.036.198-.036.414.018.63h.018a1.687 1.687 0 001.979 1.313c.054-.018.126-.018.162-.036l6.638-1.547a5.28 5.28 0 001.529-.503c.342-.162.63-.414.81-.738.108-.198.18-.414.198-.648 0-.953-.27-1.871-.738-2.698l-.036.018zm-11.874 2.788a3.926 3.926 0 00.522-2.249c.144-2.464.288-4.911.414-7.394.09-.936.126-1.853.09-2.789a4.269 4.269 0 00-.54-2.302C80.996-.162 79.142-.054 77.901.09c-.396.054-.774.126-1.151.216-.396.09-.756.198-1.134.306-1.205.395-2.914 1.115-3.202 2.5-.054.81.126 1.602.522 2.303.377.846.827 1.673 1.313 2.483a282.896 282.896 0 003.598 6.477 4.105 4.105 0 001.439 1.781c.054 0 .09.036.144.054.306.108.648.144.972.054h.054c.288-.108.557-.27.773-.486a.392.392 0 00.144-.09zm-.575 6.585a1.503 1.503 0 00-1.71-.558c-.072.018-.143.054-.215.072a1.029 1.029 0 00-.288.198c-.27.216-.522.468-.72.738-.054.054-.09.162-.18.216l-1.079 1.457c-.612.827-1.206 1.637-1.799 2.483-.396.539-.72.989-.99 1.403-.054.072-.108.162-.162.234-.252.36-.45.737-.594 1.151-.071.216-.089.45-.054.666.018.234.09.45.216.648.072.107.144.197.216.287.162.18.342.342.54.486.738.504 1.547.9 2.393 1.17a8.203 8.203 0 002.177.413h.396c.125 0 .233-.036.359-.054.108-.018.216-.054.324-.09.432-.144.774-.485.936-.917.144-.414.216-.846.252-1.295 0-.072.018-.18.018-.27.036-.486.054-1.062.09-1.71.054-1.007.089-2.032.125-3.058l.054-1.817c.036-.432 0-.882-.125-1.313a1.236 1.236 0 00-.216-.522l.036-.018zm12.054 2.824a4.057 4.057 0 00-1.044-.773 1.643 1.643 0 01-.234-.144c-.414-.252-.917-.504-1.493-.828-.9-.485-1.799-.971-2.699-1.439l-1.601-.846s-.18-.071-.252-.125a4.482 4.482 0 00-.971-.36c-.126-.018-.234-.036-.36-.036-.072 0-.162 0-.234.018-.666.09-1.169.611-1.295 1.259-.018.198 0 .414.018.612.09.432.252.827.467 1.205l.864 1.601c.468.918.954 1.799 1.439 2.699.306.576.594 1.079.846 1.493.036.072.09.162.144.234.198.396.468.738.809 1.026.162.162.342.27.54.359.216.072.45.108.684.072l.36-.054c.126-.036.233-.054.323-.089.09-.036.234-.09.324-.162a9.085 9.085 0 003.419-3.437c.054-.108.107-.234.161-.36a1.75 1.75 0 01.126-.323l.054-.36c.018-.234 0-.468-.072-.684a1.11 1.11 0 00-.305-.612l-.018.054z" fill-rule="nonzero"/><path d="M37.745 9.535c0-1.313 1.062-2.393 2.375-2.393a2.444 2.444 0 012.375 2.429v18.711a2.373 2.373 0 01-2.375 2.375 2.373 2.373 0 01-2.375-2.375V9.535zm-2.195 11.55c0 .576-.216 1.116-.575 1.566a2.318 2.318 0 01-1.638.665c-1.691.018-3.4.018-5.091.018-1.691 0-3.4 0-5.092.018a4.33 4.33 0 001.116 1.817c.288.27.612.504.953.702.54.324 1.152.504 1.781.504a5.476 5.476 0 002.537-.702l.054-.036a6.156 6.156 0 011.727-.683 2.054 2.054 0 011.691.431c.558.468.792 1.224.558 1.907a3.518 3.518 0 01-1.655 1.943c-.414.234-.846.45-1.313.612a9.657 9.657 0 01-3.563.558c-.305 0-.611 0-.917-.036a6.026 6.026 0 01-.99-.198 7.156 7.156 0 01-1.475-.504 8.846 8.846 0 01-1.331-.755 8.107 8.107 0 01-1.188-1.026 9.195 9.195 0 01-.971-1.223 9.125 9.125 0 01.378-10.237c.108-.162.234-.342.378-.486.054-.054.107-.126.161-.198a7.463 7.463 0 013.851-2.339h.036a8.01 8.01 0 014.551-.018c1.476.432 2.807 1.26 3.886 2.357.072.072.27.306.54.666a8.463 8.463 0 011.421 2.986c.162.558.234 1.134.234 1.709l-.054-.018zm-10.884-3.058a4.209 4.209 0 00-1.44 2.339h8.078a4.159 4.159 0 00-4.066-3.257c-.935 0-1.835.342-2.572.918zm30.746-4.912a7.19 7.19 0 00-5.415 2.483v-.036a2.357 2.357 0 00-2.375-2.357 2.358 2.358 0 00-2.357 2.375v17.991A2.358 2.358 0 0047.568 36a2.358 2.358 0 002.429-2.303v-5.703a7.326 7.326 0 005.397 2.501c4.804-.576 8.204-4.948 7.628-9.733a8.75 8.75 0 00-7.628-7.629l.018-.018zm-1.061 13.44c-2.609.216-4.894-1.745-5.11-4.354-.216-2.609 1.746-4.894 4.354-5.11 2.609-.215 4.894 1.746 5.11 4.354v.378c.09 2.501-1.871 4.624-4.372 4.714l.018.018zm-39.113-3.509l-.773 1.71c-.36.737-.702 1.511-1.026 2.266a5.928 5.928 0 00-.306.702c-1.475 3.292-3.238 7.215-7.088 8.042a5.677 5.677 0 01-5.703-1.889 2.226 2.226 0 01.737-3.076 2.204 2.204 0 011.746-.252c.323.072.647.198.935.378a2.707 2.707 0 001.619.413c.54-.162.99-.503 1.296-.971.449-.54.773-1.17.953-1.853 0 0-.018-.036-.018-.054-.018-.018-.018-.036-.036-.054-.486-.9-.899-1.709-1.241-2.375-.234-.432-.432-.828-.612-1.133l-.791-1.53c-.594-1.133-.684-1.313-.954-1.799a47.446 47.446 0 00-1.817-3.22 4.212 4.212 0 01-.828-3.796 2.248 2.248 0 012.771-1.296c1.187.36 1.709 1.512 2.231 2.555.072.198.162.378.27.558.791 1.583 1.583 3.166 2.357 4.731.089.216.197.414.305.63.108.234.252.504.396.81.072.162.144.288.216.432.072.143.144.287.198.431.378-.899.72-1.799 1.097-2.698.378-.9.738-1.799 1.098-2.699.054-.18.126-.36.216-.522.198-.432.396-.863.557-1.295.486-1.17 1.062-2.573 2.339-2.969a2.265 2.265 0 012.501.882c.27.378.414.828.414 1.295a7.192 7.192 0 01-.882 2.951c-.09.216-.198.432-.27.648l-.054.125c-.125.252-.431.936-.953 2.087-.198.414-.378.828-.558 1.224-.072.198-.198.432-.288.647l-.054-.036z"/></symbol><symbol viewBox="0 0 18 18" fill-rule="evenodd" clip-rule="evenodd" stroke-linejoin="round" stroke-miterlimit="2" id="youtube" xmlns="http://www.w3.org/2000/svg"><path d="M14.954 2.77H3.046A3.06 3.06 0 000 5.816v6.369a3.06 3.06 0 003.046 3.045h11.908A3.06 3.06 0 0018 12.184V5.816a3.06 3.06 0 00-3.046-3.046zm-5.192 7.615l-2.7 1.385V6.231L12.461 9l-2.699 1.385z" fill-rule="nonzero"/></symbol><symbol viewBox="0 0 512 512" id="youtube-circle" xmlns="http://www.w3.org/2000/svg"><path d="M301 255.2l-80.1-40.6c-2.1-1.1-4.7.5-4.7 2.9v78.8c0 2.4 2.5 3.9 4.6 2.9l80.1-38.2c2.4-1.2 2.5-4.6.1-5.8z"/><path d="M256.4.8C115 .8.4 115.4.4 256.8s114.6 256 256 256 256-114.6 256-256S397.8.8 256.4.8zm146.5 298.8c0 33.6-27.2 60.9-60.9 60.9H170.8c-33.6 0-60.9-27.2-60.9-60.9V214c0-33.6 27.2-60.9 60.9-60.9h171.3c33.6 0 60.9 27.2 60.9 60.9v85.6z"/></symbol><symbol viewBox="0 0 269 269" fill-rule="evenodd" clip-rule="evenodd" stroke-linejoin="round" stroke-miterlimit="2" id="zoom-in" xmlns="http://www.w3.org/2000/svg"><path d="M268.5 249.75v.75c-5.925 5.775-11.925 11.625-18.225 17.7L185.7 203.625c-.9.6-1.575 1.125-2.25 1.65-19.425 14.4-41.175 22.35-65.325 23.025-56.925 1.725-105.9-38.025-116.1-94.05-.75-4.275-1.35-8.475-2.025-12.75v-14.25c.225-.825.6-1.65.675-2.4C4.65 56.25 39.15 15.525 86.325 3.6 92.475 2.025 98.775 1.2 105 0h19.5c3.975.75 8.025 1.425 12 2.175 74.475 13.875 114.975 98.55 78.9 165.15-3.45 6.3-7.575 12.225-11.4 18.375.3.3.6.75.9 1.05l62.1 61.875c.45.525.975.75 1.5 1.125zm-64.95-135.675c-.375-51.675-43.65-90.225-91.725-88.8C65.25 26.625 24.075 66 25.5 116.85c1.35 47.4 40.575 86.7 90 86.4 48.375-.375 88.35-40.875 88.05-89.175zm-76.31-12.563h60.072v25.464H127.24v60.072h-25.464v-60.072H41.704v-25.464h60.072V41.44h25.464v60.072z" fill-rule="nonzero"/></symbol></svg>